<?xml version="1.0" encoding="utf-8"?>
<!-- Generator: Adobe Illustrator 22.1.0, SVG Export Plug-In . SVG Version: 6.00 Build 0)  -->
<svg version="1.1" id="图层_1" xmlns="http://www.w3.org/2000/svg" xmlns:xlink="http://www.w3.org/1999/xlink" x="0px" y="0px"
	 width="160px" height="54px" viewBox="0 0 160 54" style="enable-background:new 0 0 160 54;" xml:space="preserve">
<style type="text/css">
	.st0{fill-rule:evenodd;clip-rule:evenodd;fill:#FFFFFF;}
	.st1{fill-rule:evenodd;clip-rule:evenodd;fill:url(#SVGID_1_);}
</style>
<title>haina_logo_all_white</title>
<g>
	<g>
		<g>
			<path class="st0" d="M72.2,34.1h-9.8v2.2h9.8V34.1z M77.7,30.5v-2.3c-2-0.8-3.7-2.2-4.9-3.9h3.8v-2.2h-6.8
				c0.2-0.7,0.4-1.4,0.6-2.2h6.2v-2.2h-1.6l0.7-2.8h-2.2l-0.7,2.8h-2.1V15h-2.2v2.5c0,0.1,0,0.2,0,0.3h-2.2L65.4,15h-2.2l0.7,2.8
				h-1.5v2.2h5.7c-0.2,0.8-0.4,1.5-0.7,2.2h-5v2.2h3.8c-1.2,1.7-2.9,3-4.8,3.9V15h-6.6v19h0c0,0,0,0.1,0,0.1c0,1.6-0.6,3-1.7,4.1
				l1.5,1.5c1.4-1.4,2.3-3.4,2.3-5.6c0,0,0-0.1,0-0.1h0v-3.1h2.3v5.5c0,0.6-0.5,1.1-1.1,1.1h-0.4v2.2h0.6v0c1.7-0.1,3-1.5,3-3.2h0
				v-6c1.3-0.5,2.5-1.1,3.6-1.9v0.1h7.2v2.2h-6.5v-1h-2.2v3.2h10.8v3.5c0,0.6-0.5,1.1-1.1,1.1H69v2.2h4.3v0c1.7,0,3.1-1.4,3.2-3.2h0
				v-5.7h-2.2v-1.9C75.4,29.5,76.5,30.1,77.7,30.5z M59.3,28.7H57v-4.5h2.3V28.7z M59.3,22.1H57v-5h2.3V22.1z M67.3,26.4
				c0.6-0.7,1.1-1.4,1.5-2.2h1.4c0.4,0.8,0.9,1.5,1.5,2.2H67.3z"/>
		</g>
	</g>
	<g>
		<g>
			<path class="st0" d="M85.4,18.2l-3.1-3.1l-1.5,1.5l3.1,3.1L85.4,18.2z M85,36.2V22.3h-4.3v2.2h2.2v13l-1,0.6l1.1,1.9l5.6-3.2
				l-1.1-1.9L85,36.2z M102.2,34.5V15.1h-15v2.2h4.3v7.1h-4.3v2.2h4.3v13.2h2.2V26.6h6.4v7.9c0,3,2.4,5.3,5.3,5.3v-2.2
				C103.6,37.7,102.2,36.2,102.2,34.5z M100,24.4h-6.4v-7.1h6.4V24.4z"/>
		</g>
	</g>
	<g>
		<g>
			<path class="st0" d="M112.5,18.9l-3.9-3.9l-1.5,1.5l3.9,3.9L112.5,18.9z M112,26.3l-3.9-3.9l-1.5,1.5l3.9,3.9L112,26.3z
				 M113.5,24.9c1.4-1.6,2.5-3.5,3.3-5.5h13.9v-2.2h-13.2c0.2-0.7,0.3-1.4,0.4-2.2h-2.2c-0.5,3.1-1.9,5.9-3.8,8.2L113.5,24.9z
				 M131.7,29.6v-2.2h-2.2v-5.8h-13.6l-1,5.8h-2v2.2h1.7l-1,5.8h13.9v1h0c0,0,0,0,0,0.1c0,0.6-0.5,1.1-1.1,1.1h-5.5v2.2h5.6v0
				c1.8,0,3.2-1.5,3.2-3.2c0,0,0,0,0-0.1h0v-1h1.3v-2.2h-1.3v-3.7H131.7z M117.8,23.7h2.1l2.1,3.7h-1.3l0,0l0,0h-3.6L117.8,23.7z
				 M116.1,33.3l0.7-3.7h2.7l2.1,3.7H116.1z M127.4,33.3h-3.3l-2.1-3.7h5.4V33.3z M127.4,27.4h-2.9l-2.1-3.7h5V27.4z M107,39.7h2.3
				l3.3-9h-2.3L107,39.7z"/>
		</g>
	</g>
	<g>
		<g>
			<path class="st0" d="M135,39.7h7.2v-2.2H135V39.7z M142,15h-2.5l-4.5,7.7V25h4.8l-4.8,8.3h0v2.2h7.2v-2.2h-4.7l4.7-8.2v-2.2h-4.8
				L142,15z M152.7,18.4V15h-2.2v3.3h-7.1v21.4h2.2V20.5h5v1.7c0,4.1-1.8,7.7-4.7,10.3l1.1,1.9c2-1.7,3.6-3.9,4.6-6.4
				c1,2.5,2.6,4.7,4.6,6.4l1.1-1.9c-2.8-2.5-4.6-6.1-4.6-10.2v-1.7h4.8v16c0,0.6-0.5,1.1-1.1,1.1h-4.8v2.2h4.8v0
				c1.7,0,3.1-1.4,3.2-3.2h0V18.4H152.7z"/>
		</g>
	</g>
	<g>
		<g>
			<g>
				<linearGradient id="SVGID_1_" gradientUnits="userSpaceOnUse" x1="0.3112" y1="27.0762" x2="49.708" y2="27.0762">
					<stop  offset="0" style="stop-color:#FFFFFF;stop-opacity:0.3"/>
					<stop  offset="1" style="stop-color:#FFFFFF"/>
				</linearGradient>
				<path class="st1" d="M45.9,27.8C45.9,27.8,45.9,27.8,45.9,27.8C45.9,27.8,45.9,27.8,45.9,27.8L45.9,27.8c0-0.6-0.5-1-1-1
					c-0.4,0-0.8,0.3-0.9,0.7l-0.1,0c-2.1,6.2-8,10.7-14.9,10.7c-6.8,0-12.6-4.4-14.8-10.4H2.5C2.7,39.6,12.3,49,24.2,49
					c11.8,0,21.4-9.4,21.7-21.1C45.9,27.9,45.9,27.9,45.9,27.8z"/>
			</g>
		</g>
		<g>
			<g>
				<path class="st0" d="M28,9.2c0-2-1.6-3.6-3.6-3.6c0,0-0.1,0-0.1,0c-0.1,0-0.2,0-0.3,0c-12,0-21.7,9.7-21.7,21.7
					C2.3,39.3,12,49,24,49c1,0,1.9-0.1,2.8-0.2h-2.5v-0.1c-6,0-10.8-4.8-10.8-10.8c0-6,4.8-10.8,10.8-10.8v0c0,0,0,0,0,0
					c2,0,3.6-1.6,3.6-3.6c0-1.2-0.6-2.3-1.5-2.9c0,0,0,0,0,0c-0.2-0.2-0.3-0.4-0.3-0.7c0-0.3,0.1-0.5,0.3-0.7c0,0,0,0,0,0
					c0.9-0.7,1.5-1.7,1.5-2.9c0-1.2-0.6-2.3-1.5-2.9c0,0,0,0,0,0c-0.2-0.2-0.3-0.4-0.3-0.7c0-0.3,0.1-0.5,0.3-0.7c0,0,0,0,0,0
					C27.4,11.4,28,10.4,28,9.2z M24.5,20C24.5,20,24.5,19.9,24.5,20c-0.1,0-0.1,0-0.1,0v0C24.4,19.9,24.4,19.9,24.5,20
					C24.5,19.9,24.5,19.9,24.5,20L24.5,20z M24.5,12.8C24.5,12.8,24.5,12.8,24.5,12.8c-0.1,0-0.1,0-0.1,0v0
					C24.4,12.8,24.4,12.8,24.5,12.8C24.5,12.8,24.5,12.8,24.5,12.8L24.5,12.8z M34.5,8.9c-2,0-3.6,1.6-3.6,3.6c0,2,1.6,3.6,3.6,3.6
					c2,0,3.6-1.6,3.6-3.6C38.2,10.5,36.5,8.9,34.5,8.9z M31.7,18c-1,0-1.8,0.8-1.8,1.8s0.8,1.8,1.8,1.8s1.8-0.8,1.8-1.8
					S32.7,18,31.7,18z"/>
			</g>
		</g>
	</g>
</g>
</svg>
