<?xml version="1.0" encoding="UTF-8"?>
<svg width="132px" height="134px" viewBox="0 0 132 134" version="1.1" xmlns="http://www.w3.org/2000/svg" xmlns:xlink="http://www.w3.org/1999/xlink">
    <!-- Generator: Sketch 52.4 (67378) - http://www.bohemiancoding.com/sketch -->
    <title>分组 32</title>
    <desc>Created with Sketch.</desc>
    <defs>
        <linearGradient x1="50%" y1="7.92862603%" x2="50%" y2="100%" id="linearGradient-1">
            <stop stop-color="#C8F8FF" stop-opacity="0" offset="0%"></stop>
            <stop stop-color="#D2F9FF" offset="100%"></stop>
        </linearGradient>
        <linearGradient x1="82.4788214%" y1="88.8806621%" x2="14.0208324%" y2="0%" id="linearGradient-2">
            <stop stop-color="#59E8F6" offset="0%"></stop>
            <stop stop-color="#2DCDEA" offset="100%"></stop>
        </linearGradient>
    </defs>
    <g id="页面-1" stroke="none" stroke-width="1" fill="none" fill-rule="evenodd">
        <g id="海纳官网首页-copy-2" transform="translate(-894.000000, -2380.000000)">
            <g id="我们的优势" transform="translate(385.000000, 1843.000000)">
                <g id="分组-32" transform="translate(508.000000, 531.000000)">
                    <polygon id="矩形" fill="url(#linearGradient-1)" fill-rule="nonzero" points="0 0 134.759358 0 112.299465 76.3636364 22.459893 76.3636364"></polygon>
                    <rect id="矩形" fill="#4E73FC" fill-rule="nonzero" transform="translate(46.000000, 54.000000) rotate(-22.000000) translate(-46.000000, -54.000000) " x="25" y="33" width="42" height="42" rx="8"></rect>
                    <rect id="矩形" fill="url(#linearGradient-2)" fill-rule="nonzero" x="37" y="41" width="42" height="42" rx="8"></rect>
                    <g id="分组-18" transform="translate(47.000000, 50.000000)" fill="#CBF8FF">
                        <path d="M7.15246806,23 L1.97451607,23 C0.884822285,22.9990724 0.00161451384,22.1160364 0,21.0261811 L0,15.8468348 C0,14.7586285 0.885474961,13.8730159 1.97451607,13.8730159 L7.15339554,13.8730159 C8.24243665,13.8730159 9.12698413,14.7576666 9.12698413,15.8468348 L9.12698413,21.0261811 C9.12698413,22.1144217 8.24150917,23 7.15246806,23 Z" id="路径"></path>
                        <path d="M7.15246806,9.88756614 L1.97451607,9.88756614 C0.884822285,9.88650125 0.00161451384,9.00367467 0,7.91398498 L0,2.73419752 C0,1.64512616 0.885474961,0.760582011 1.97451607,0.760582011 L7.15339554,0.760582011 C8.24243665,0.760582011 9.12698413,1.64608799 9.12698413,2.73419752 L9.12698413,7.91302315 C9.12698413,9.00113267 8.24150917,9.88756614 7.15246806,9.88756614 Z" id="路径"></path>
                        <path d="M20.2655945,23 L15.086223,23 C13.9965216,22.9990724 13.1134989,22.115899 13.1124339,21.0261811 L13.1124339,15.8468348 C13.1124339,14.7586285 13.9979988,13.8730159 15.086223,13.8730159 L20.2655945,13.8730159 C21.3546432,13.8730159 22.239418,14.7576666 22.239418,15.8468348 L22.239418,21.0261811 C22.239418,22.1144217 21.3538187,23 20.2655945,23 Z" id="路径"></path>
                        <path d="M17.7947306,10.4087241 C17.310749,10.4099632 16.8465975,10.2172327 16.5055196,9.87345697 L13.1239939,6.48809198 C12.4136952,5.77432839 12.4136952,4.61985192 13.1239939,3.90608833 L16.5072329,0.51726017 C17.1942431,-0.172420057 18.3942028,-0.172420057 19.0839099,0.51726017 L22.4671806,3.90608833 C23.1776062,4.61835863 23.1776062,5.77667954 22.4671806,6.48809198 L19.0847983,9.87431482 C18.7429589,10.2174869 18.2786805,10.4098679 17.7947306,10.4087241 Z" id="路径"></path>
                    </g>
                    <g id="举牌人物" transform="translate(67.000000, 15.000000)">
                        <g>
                            <path d="M20.8565756,14.0335595 C20.8565756,14.3389898 21.4173488,19.1237788 22.2041645,21.5946439 C22.9909803,24.0655091 24.0257736,24.3486067 24.3455033,25.6081736 C24.6652329,26.8677405 25,28.4114425 23.779602,28.7554019 C22.5592041,29.0993613 22.0635951,28.8590122 20.8565756,27.4750954 C19.649556,26.0911786 19.0636577,22.0018819 19.2788677,18.8837496 C19.4940776,15.7656173 19.1569018,14.854913 19.4940776,14.0335595 C19.8312533,13.212206 20.8565756,13.7281291 20.8565756,14.0335595 Z" id="Path-44" fill="#000000"></path>
                            <path d="M22.7730752,39.82603 C21.9473543,43.4305301 21.5344939,46.7858799 21.5344939,49.8920795 C21.5344939,52.998279 21.5344939,56.0179611 21.5344939,58.9511256 L22.7730752,58.9511256 C23.5703296,57.8933698 24.2396787,56.7051191 24.7811223,55.3863736 C25.3225659,54.067628 25.8282812,52.0947314 26.2982682,49.4676837 L28.7193694,44.9715029 L30.2815388,41.0862623 L22.7730752,39.82603 Z" id="Path-46" stroke="#0055B9" stroke-width="1.2"></path>
                            <polygon id="Path-23" fill="#F6C5C1" transform="translate(22.385540, 60.247588) scale(-1, 1) translate(-22.385540, -60.247588) " points="21.9320868 61.1489068 22.8389931 61.1489068 22.8389931 59.346269 21.9320868 59.346269"></polygon>
                            <polygon id="Path-24" fill="#0A2048" transform="translate(21.360342, 61.207688) scale(-1, 1) translate(-21.360342, -61.207688) " points="19.5465291 60.5316993 20.4887983 60.5316993 23.1741541 61.4583646 23.1741541 61.8836776 19.5465291 61.8836776"></polygon>
                            <polygon id="Path-23" fill="#F6C5C1" transform="translate(35.506107, 59.457301) scale(-1, 1) rotate(22.000000) translate(-35.506107, -59.457301) " points="35.0511056 60.3603743 35.9572277 60.3584337 35.9611091 58.5542278 35.0549869 58.5561685"></polygon>
                            <polygon id="Path-24" fill="#0A2048" transform="translate(34.972716, 61.251753) scale(-1, 1) rotate(31.000000) translate(-34.972716, -61.251753) " points="33.1649862 60.5759332 34.1057155 60.5733704 36.7841466 61.4942557 36.7829826 61.920268 33.1612862 61.9301347"></polygon>
                            <path d="M27.1007952,39.3793851 L34.9790791,39.3793851 C33.568205,42.8283219 33.0354557,45.4056542 33.380831,47.1113823 C33.7262064,48.8171103 34.5485427,52.5968108 35.8478401,58.4504838 L34.9790791,59.346269 C32.7365049,57.7250178 31.1826115,56.0798672 30.3173989,54.4108173 C29.4521863,52.7417674 28.3799851,50.082213 27.1007952,46.4321541 L27.1007952,39.3793851 Z" id="Path-47" fill="#FFC107"></path>
                            <path d="M29.0599159,21.3067695 C30.9116513,21.3067695 32.5206975,23.0784192 33.8870546,26.6217186 C34.664121,26.6217186 35.3700038,28.3042253 36.0047029,31.6692387 C36.8507049,36.1545259 35.5127354,40.8271269 35.0526542,41.7006459 C30.4860895,41.9473104 22.2958999,42.7147445 21.2592073,40.5094275 C20.2225148,38.3041105 22.611567,28.4760757 23.25552,26.6217186 C24.1734255,23.9784753 26.7633749,21.3067695 29.0599159,21.3067695 Z" id="Path-45" stroke="#0055B9" stroke-width="1.2"></path>
                            <path d="M33.5118537,22.305534 C35.7535262,22.8187634 37.1978777,22.6898453 37.8449082,21.9187798 C38.8154539,20.7621816 40.6200513,17.3285778 41.3085071,15.0540044 C41.9969628,12.779431 41.4119873,10.7744923 41.7067578,10.0194509 C42.0015283,9.26440949 42.8762912,9.00485253 43.2733678,10.0211017 C43.6704445,11.0373509 43.6125726,16.1485111 43.281361,17.5624171 C42.9501494,18.9763232 41.711663,24.3603506 39.2610104,26.4423014 C37.627242,27.8302687 35.0220941,28.3769785 31.4455668,28.082431 C30.2588363,27.3758493 29.8904498,26.2302689 30.3404073,24.6456899 C30.7903648,23.0611108 31.8475136,22.2810589 33.5118537,22.305534 Z" id="Path-44" fill="#B5D3FF" transform="translate(36.852823, 18.756168) rotate(-10.000000) translate(-36.852823, -18.756168) "></path>
                            <path d="M19.1826654,10.209212 C19.3640073,10.2090015 19.8350617,10.2084546 20.5958284,10.2075715 C21.7369785,10.2062468 21.7369073,10.2679199 21.736158,10.9171104 C21.7356585,11.3499041 20.883971,11.5672894 19.1810956,11.5692662 L19.1826654,10.209212 Z" id="Path-20" fill="#F6C5C1" transform="translate(20.458645, 10.888409) scale(-1, 1) rotate(-101.000000) translate(-20.458645, -10.888409) "></path>
                            <path d="M26.4929837,17.1426724 L26.4913394,16.5019096 C27.2557575,15.8023978 27.851367,15.587159 28.2781679,15.8561933 C28.9183693,16.2597447 29.9011701,16.7855885 29.9031225,17.5464389 C29.905075,18.3072893 30.2771889,19.2126587 29.9080639,19.4720506 C29.6619806,19.6449786 29.0799399,20.0946696 28.1619417,20.8211237 L27.4317917,20.4982125 L26.4929837,17.1426724 Z" id="Path-43" fill="#000000" transform="translate(28.281308, 18.282611) rotate(-28.000000) translate(-28.281308, -18.282611) "></path>
                            <path d="M27.637276,17.7495948 C26.9816525,18.0678865 26.6540666,18.3150634 26.6545184,18.4911257 C26.6549702,18.667188 26.6555482,18.8924106 26.6562523,19.1667933 L26.369918,19.6548023 C26.371595,20.3083192 26.5844761,20.6356199 27.0085612,20.6367044 C27.4326464,20.6377889 27.5348141,20.9721662 27.3150645,21.6398363 L27.3198486,23.5041388 C28.646368,23.2115712 29.3090203,22.8285607 29.3078053,22.3551075 C29.3065904,21.8816543 29.3055069,21.4594335 29.3045549,21.0884451 C28.7927725,21.11829 28.6153198,20.9655333 28.7721967,20.630175 C28.9290737,20.2948167 29.1871223,19.9724002 29.5463425,19.6629253 C29.4744715,19.3369141 29.3922376,19.1737901 29.299641,19.1735533 C29.2070444,19.1733165 29.0304006,19.3357784 28.7697096,19.6609392 L28.7667215,18.4965272 C28.3620259,18.5853203 28.0914995,18.5846285 27.9551422,18.4944518 C27.8187849,18.4042751 27.7128295,18.1559894 27.637276,17.7495948 Z" id="Path-42" fill="#F6C5C1" transform="translate(27.958130, 20.626867) rotate(-28.000000) translate(-27.958130, -20.626867) "></path>
                            <path d="M5.64632431,15.9142976 L47.7696658,2.12623732 C48.4991035,2.57371418 48.9342213,3.14079332 49.0750191,3.82747473 C49.215817,4.51415614 49.2162127,5.2493036 49.0762061,6.03291712 L6.74292502,19.5301005 L0.850812957,20.1685258 L5.64632431,15.9142976 Z" id="路径-22" fill="#5A92F4" fill-rule="nonzero" transform="translate(25.015864, 11.147382) rotate(-5.000000) translate(-25.015864, -11.147382) "></path>
                            <path d="M6.31203112,17.7509212 C6.89684338,18.266627 7.2620166,18.8023499 7.40755077,19.3580897 C7.55308494,19.9138295 7.5534453,20.5833743 7.40863183,21.366724 L1.51651977,22.0051494 L6.31203112,17.7509212 Z" id="路径-22" fill="#93BAFF" fill-rule="nonzero" transform="translate(4.516746, 19.878035) rotate(-5.000000) translate(-4.516746, -19.878035) "></path>
                            <path d="M38.9674724,7.20214866 C39.148945,7.20174442 39.6203388,7.20069438 40.3816537,7.19899854 C41.5236261,7.19645477 41.5234894,7.25808368 41.5220505,7.90680913 C41.5210913,8.33929276 40.6685604,8.55743254 38.964458,8.56122847 L38.9674724,7.20214866 Z" id="Path-20" fill="#F6C5C1" transform="translate(40.243303, 7.880078) rotate(-113.000000) translate(-40.243303, -7.880078) "></path>
                        </g>
                    </g>
                    <rect id="矩形" fill="#0A5FDA" fill-rule="nonzero" x="22.459893" y="76.3636364" width="44.9197861" height="63.6363636"></rect>
                    <polygon id="矩形" fill="#4993FF" fill-rule="nonzero" points="21.7112299 76.3636364 67.3796791 76.3636364 49.4117647 92.8342246 3.74331551 92.8342246"></polygon>
                    <rect id="矩形" fill="#2E83FF" fill-rule="nonzero" x="67.3796791" y="76.3636364" width="44.9197861" height="63.6363636"></rect>
                    <polygon id="矩形" fill="#9DC5FF" fill-rule="nonzero" points="67.3796791 76.3636364 113.048128 76.3636364 132.513369 92.8342246 86.8449198 92.8342246"></polygon>
                </g>
            </g>
        </g>
    </g>
</svg>