<?xml version="1.0" encoding="UTF-8"?>
<svg width="157px" height="109px" viewBox="0 0 157 109" version="1.1" xmlns="http://www.w3.org/2000/svg" xmlns:xlink="http://www.w3.org/1999/xlink">
    <!-- Generator: Sketch 52.4 (67378) - http://www.bohemiancoding.com/sketch -->
    <title>02简单的信息管理</title>
    <desc>Created with Sketch.</desc>
    <defs>
        <linearGradient x1="0%" y1="92.0151795%" x2="117.437878%" y2="36.9310667%" id="linearGradient-1">
            <stop stop-color="#FBAF04" offset="0%"></stop>
            <stop stop-color="#FEE384" offset="100%"></stop>
        </linearGradient>
        <linearGradient x1="153.384534%" y1="-38.8508928%" x2="5.73263539%" y2="112.232195%" id="linearGradient-2">
            <stop stop-color="#5BB9FF" offset="0%"></stop>
            <stop stop-color="#0A5FDA" offset="100%"></stop>
        </linearGradient>
    </defs>
    <g id="页面-1" stroke="none" stroke-width="1" fill="none" fill-rule="evenodd">
        <g id="海纳官网首页-copy-2" transform="translate(-885.000000, -2002.000000)">
            <g id="我们的优势" transform="translate(385.000000, 1843.000000)">
                <g id="02简单的信息管理" transform="translate(500.000000, 159.000000)">
                    <g id="分组-21">
                        <g id="分组-20" transform="translate(0.000000, 51.479730)">
                            <rect id="矩形" fill="url(#linearGradient-1)" fill-rule="nonzero" x="16.3175676" y="-4.61852778e-14" width="69" height="50"></rect>
                            <path d="M67.5139066,21.2971303 L62.4609589,17.2643808 C62.472857,17.1648433 62.4788061,17.0636325 62.4788061,16.9612743 L62.4788061,11.3338695 C62.4788061,9.90802635 61.2897732,8.75201483 59.8246233,8.75201483 L57.8151556,8.75201483 C56.3489733,8.75201483 55.1599895,9.90821759 55.1599895,11.3338695 L55.1599895,11.4362277 L51.1450365,8.23137936 C50.1248399,7.41657769 48.6565926,7.40835461 47.6275953,8.21306868 L31.5028349,20.8037457 C30.3009204,21.7421326 30.1092709,23.4501898 31.0747457,24.6179623 C32.0392371,25.7868343 33.7954011,25.9731921 34.9972664,25.03514 L49.3548988,13.8235015 L63.9726198,25.4921422 C65.1637178,26.442529 66.9217992,26.2746253 67.9003521,25.1164145 C68.8776759,23.9577735 68.7050537,22.248808 67.5139066,21.2971303 Z M35.8986486,26.5259396 L35.8986486,40.8995864 C35.8986486,42.3429965 37.09999,43.5135135 38.5812999,43.5135135 L48.5902259,43.5135135 C48.5510323,43.3482675 48.5310629,43.1771647 48.5310629,43.0024802 L48.5310629,32.4240713 C48.5310629,30.9801287 49.9190334,29.8101442 51.6322761,29.8101442 L54.2557147,29.8101442 C55.9689077,29.8101442 57.3569279,30.9803223 57.3569279,32.4240713 L57.3569279,43.0024802 C57.3569279,43.1771647 57.3367598,43.3482675 57.2977153,43.5135135 L60.412142,43.5135135 C61.8934519,43.5135135 63.0945946,42.3429965 63.0945946,40.8995864 L63.0945946,26.8328112 L49.4967955,16.3175676 L35.8988473,26.5259396 L35.8986486,26.5259396 Z" id="4-copy" fill="#E19700"></path>
                            <rect id="矩形" fill="#FFDB9F" fill-rule="nonzero" x="-3.55271368e-14" y="41.3378378" width="43.5135135" height="2.17567568" rx="1.08783784"></rect>
                            <rect id="矩形" fill="#FFDB9F" fill-rule="nonzero" x="-3.55271368e-14" y="45.6891892" width="43.5135135" height="2.17567568" rx="1.08783784"></rect>
                            <rect id="矩形" fill="#FFDB9F" fill-rule="nonzero" x="-3.55271368e-14" y="50.0405405" width="43.5135135" height="2.17567568" rx="1.08783784"></rect>
                            <rect id="矩形" fill="#FFDB9F" fill-rule="nonzero" x="-3.55271368e-14" y="54.3918919" width="43.5135135" height="2.17567568" rx="1.08783784"></rect>
                        </g>
                        <g id="分组-19" transform="translate(66.182432, 0.000000)">
                            <rect id="矩形" fill="url(#linearGradient-2)" fill-rule="nonzero" x="0" y="15.2297297" width="66.3581081" height="50.0405405"></rect>
                            <g id="zhuhudengji" transform="translate(16.317568, 21.756757)" fill="#FFFFFF">
                                <path d="M13.1632214,25.2902927 C13.5771497,22.765934 14.7075674,20.601075 16.4520076,18.7594458 C17.6847253,17.4569259 19.1132538,16.4417026 20.7642944,15.7499898 C20.8487935,15.7096212 20.9154915,15.6376988 20.9511491,15.5523576 C21.0891067,15.1840991 21.2047574,14.8066889 21.342715,14.4384305 C21.382934,14.3485415 21.4539711,14.2721836 21.5430872,14.227211 C21.8768555,14.0746075 22.1617268,13.8366066 22.3663824,13.5311189 C22.7401473,12.9920096 22.8203074,12.3678398 22.8425029,11.7388416 C22.8646429,11.1550405 22.7134459,10.6249145 22.2729829,10.2027563 C22.2284248,10.1623877 22.2149629,10.0770465 22.2106239,10.0141074 C22.1838668,9.51559128 22.1660658,9.01252742 22.1349697,8.51401135 C22.0548097,7.10357974 21.7699384,5.7336852 21.2492598,4.422182 C20.7329758,3.12404143 19.905286,2.0774328 18.6860303,1.36331793 C16.5676027,0.123512558 14.289022,-0.271695757 11.8859456,0.181847753 C9.66082341,0.599682712 7.99198176,1.84847137 6.91068363,3.8607268 C6.37225969,4.86236288 6.12299037,5.95826728 5.97613231,7.06759047 C5.84701959,8.01549528 5.82465711,8.97653814 5.75362009,9.93342624 C5.74905859,10.0187113 5.73576348,10.1263984 5.68686642,10.1893375 C4.89917316,11.2089963 4.95697071,12.2779509 5.51325126,13.3604926 C5.713401,13.7513216 6.02063475,14.0656242 6.44329671,14.2408544 C6.51895087,14.2721836 6.58587142,14.371112 6.61691187,14.4517931 C6.77272605,14.8606448 6.90178314,15.2784236 7.05737481,15.6826152 C7.27988703,16.2574892 7.61365536,16.7515697 8.11669986,17.1200528 C8.35245156,17.2950584 8.5617243,17.5016739 8.77967502,17.7038539 C9.10020387,18.0004145 9.3138156,18.3596336 9.35831805,18.7998145 C9.39831462,19.1636374 9.42051021,19.5275165 9.4294107,19.8957189 C9.44721168,20.3942349 9.295959,20.8839923 8.99328675,21.2792006 C8.43266721,22.0472713 7.66711392,22.5593746 6.80838364,22.8962477 C5.97157081,23.2285169 5.1038844,23.4710656 4.24493161,23.7452241 C3.43504276,24.0011354 2.59822992,24.1943883 1.86399523,24.6523112 C1.0095483,25.1914205 0.377669226,25.8921165 0.226416545,26.9387252 C0.141917529,27.5181469 0.0838974677,28.0975687 0.0350004074,28.681426 C-0.0451596198,29.6650393 0.0039043247,30.6353462 0.270752104,31.5920097 C0.390908703,32.0231512 0.62237704,32.3240912 1.07196298,32.4093762 C2.05975035,32.5936458 3.04325436,32.8137924 4.03588138,32.9484855 C5.49088878,33.1416822 6.9461187,33.2899625 8.40591012,33.4289788 C10.4085201,33.6222317 12.4155247,33.7391267 14.4315967,33.7211601 C14.5026337,33.7211601 14.5784547,33.7075168 14.6851493,33.6985335 C14.6227903,33.5728798 14.5784547,33.4785553 14.5293908,33.3886664 C13.1764609,30.8419056 12.6960013,28.1423167 13.1632214,25.2902927 Z" id="Fill-1"></path>
                                <path d="M26.1042706,16.3175676 C20.1030798,16.3175676 15.2336374,21.1901343 15.2297318,27.1921292 C15.2260168,33.1980352 20.1107004,38.0780424 26.1195594,38.0743222 C32.1017464,38.0743222 36.9750944,33.1980352 36.9864776,27.211112 C36.9940981,21.2014858 32.1169875,16.3175676 26.1042706,16.3175676 Z M27.0149751,28.5199705 L26.0547846,29.4928622 C25.7347687,29.8058874 25.4450922,30.0920601 25.1898511,30.3513802 C24.9346099,30.6109388 24.7211866,30.8246144 24.553582,30.9925024 C24.3859296,31.1603427 24.2867671,31.2557335 24.2525222,31.2825861 C24.172554,31.3550355 24.081012,31.4312528 23.9781344,31.5113334 C23.8791624,31.5877415 23.7686167,31.6525597 23.6544035,31.7021152 C23.4942289,31.7785233 23.3304821,31.8472525 23.1628298,31.9082072 C22.9455486,31.9882879 22.7207897,32.064696 22.4845047,32.1411041 C22.2482198,32.2172737 22.0235085,32.2821395 21.8139907,32.3395172 C21.6043301,32.396704 21.4442983,32.430997 21.3414208,32.4462596 C21.1243301,32.4691534 20.9795871,32.4386283 20.9109068,32.3508687 C20.8422741,32.2631091 20.8193648,32.1142516 20.8498947,31.904487 C20.8766619,31.7403193 20.9146218,31.57639 20.9642983,31.4159426 C21.0214525,31.2024577 21.0861796,30.9848234 21.1548123,30.7558853 C21.2233021,30.5270902 21.2880292,30.3170872 21.3529469,30.1263054 C21.3948123,29.9889902 21.4482039,29.859354 21.5090731,29.7294793 C21.5548441,29.6227369 21.6082356,29.5197147 21.6729627,29.4243238 C21.7492636,29.3136227 21.8329945,29.2106005 21.932157,29.1189299 C21.981643,29.0693743 22.0921412,28.9550006 22.267414,28.7755704 C22.4426393,28.5963309 22.6636831,28.371113 22.9265925,28.1078341 L27.3541377,23.6740178 L29.5982973,25.9330172 L27.0149751,28.5199705 Z M31.3244493,24.1243582 C31.2786783,24.2350116 31.2139512,24.3380338 31.1339353,24.4257934 C31.0386783,24.5211843 30.9510419,24.6052236 30.874741,24.677673 C30.7986783,24.7501701 30.7337607,24.811268 30.6766065,24.8684548 C30.6118793,24.9332729 30.5508672,24.9867872 30.4976186,25.0363428 L28.2533161,22.7888857 C28.3485731,22.7011261 28.4628339,22.594336 28.5962413,22.4721402 C28.7296011,22.3461765 28.8401468,22.2507857 28.9277833,22.1783363 C29.0306608,22.0944877 29.1487795,22.0333898 29.2745664,21.9914655 C29.3887795,21.9569817 29.5069458,21.9379989 29.6287795,21.9419099 C29.7432308,21.9456302 29.8574439,21.964613 29.9640365,21.9951858 C30.0592935,22.0219906 30.1545505,22.0600039 30.2460925,22.1021189 C30.4137448,22.1898786 30.6005438,22.3461765 30.8061084,22.5638109 C31.0005279,22.7698552 31.160512,23.0025613 31.2786783,23.2544409 C31.3129232,23.3345693 31.3396904,23.4184179 31.3549315,23.5061775 C31.3739353,23.6054794 31.3852709,23.7085016 31.3852709,23.8076127 C31.3815559,23.9182661 31.3625997,24.0251993 31.3244493,24.1243582 Z" id="Fill-3"></path>
                            </g>
                            <rect id="矩形" fill="#E2E2E2" fill-rule="nonzero" x="0" y="0" width="43.5135135" height="2.17567568" rx="1.08783784"></rect>
                            <rect id="矩形" fill="#E2E2E2" fill-rule="nonzero" x="0" y="4.35135135" width="43.5135135" height="2.17567568" rx="1.08783784"></rect>
                            <rect id="矩形" fill="#E2E2E2" fill-rule="nonzero" x="0" y="8.7027027" width="43.5135135" height="2.17567568" rx="1.08783784"></rect>
                        </g>
                    </g>
                    <g id="中间人物" transform="translate(130.327012, 74.856148) scale(-1, 1) rotate(-10.000000) translate(-130.327012, -74.856148) translate(105.327012, 43.125378)">
                        <path d="M19.4256757,31.3600139 L29.9392973,32.5008647 C31.1960254,37.4004262 31.1960254,41.6690223 29.9392973,45.3066528 C28.6825693,48.9442833 25.5694167,53.5923202 20.5998396,59.2507633 C19.8170636,59.2704757 19.4256757,59.1749256 19.4256757,58.9641133 C19.4256757,58.6478947 22.7417299,52.9087013 22.7417299,49.107677 C22.7417299,46.5736609 21.6363785,40.6577732 19.4256757,31.3600139 Z" id="Path-69" fill="#0A2048"></path>
                        <path d="M33.6098471,5.7611543 C33.6098471,6.16956771 33.7351686,13.0261576 34.9562723,14.7629378 C35.7703414,15.9207912 37.018865,17.2419612 38.7018429,18.7264478 C38.8823108,22.330304 38.3916523,24.0223061 37.2298674,23.8024542 C35.4871901,23.4726763 34.9562723,23.9409992 33.3570515,22.0904622 C31.7578308,20.2399252 30.652858,14.8279417 31.2666934,10.6023414 C31.8805287,6.37674115 31.3578923,6.85944652 31.8046278,5.7611543 C32.2513633,4.66286209 33.6098471,5.3527409 33.6098471,5.7611543 Z" id="Path-44" fill="#000000" transform="translate(34.916391, 14.495242) scale(-1, 1) rotate(-16.000000) translate(-34.916391, -14.495242) "></path>
                        <path d="M39.9785819,7.29952879 C40.0762991,7.10774804 40.3301295,6.60957785 40.7400731,5.80501821 C41.3549885,4.59817875 41.2901379,4.56513572 40.6075,4.21731431 C40.152408,3.98543337 39.4660599,4.76994292 38.5484555,6.57084295 L39.9785819,7.29952879 Z" id="Path-20" fill="#F6C5C1" transform="translate(39.855819, 5.738583) rotate(-13.000000) translate(-39.855819, -5.738583) "></path>
                        <path d="M20.9314955,19.1713993 C22.6720049,16.9954233 26.5029944,13.9267152 27.5404581,13.9267152 C28.5779218,13.9267152 30.3282246,14.8649511 31.1197606,17.7740482 C31.9112965,20.6831453 33.6981371,26.7470343 32.4361766,33.6402758 C31.174216,40.5335173 31.5578632,39.5475564 30.2959027,40.6226037 C29.5996955,41.2156932 25.6511139,41.6340005 22.1065093,41.0192506 C19.2260846,40.5196911 14.7073028,38.0510345 13.579363,36.8168875 C13.579363,36.8168875 14.0702661,31.5449221 15.9563714,26.8608997 C17.3448384,23.4127306 19.190986,21.3473753 20.9314955,19.1713993 Z" id="Path-66" stroke="#0055B9"></path>
                        <polygon id="Path-23" fill="#FFDFDD" transform="translate(19.736674, 59.990016) rotate(13.000000) translate(-19.736674, -59.990016) " points="19.1685996 61.1261648 20.3047485 61.1261648 20.3047485 58.853867 19.1685996 58.853867"></polygon>
                        <polygon id="Path-24" fill="#0A2048" transform="translate(20.822627, 61.021417) rotate(18.000000) translate(-20.822627, -61.021417) " points="18.5503292 60.1693052 19.7307799 60.1693052 23.0949247 61.3374043 23.0949247 61.8735285 18.5503292 61.8735285"></polygon>
                        <polygon id="Path-23" fill="#F5C27A" transform="translate(2.867540, 53.914215) rotate(60.000000) translate(-2.867540, -53.914215) " points="2.29946587 55.0503643 3.43561473 55.0503643 3.43561473 52.7780665 2.29946587 52.7780665"></polygon>
                        <polygon id="Path-24" fill="#0A2048" transform="translate(1.874099, 56.168178) rotate(60.000000) translate(-1.874099, -56.168178) " points="-0.39819853 55.3160668 0.782252116 55.3160668 4.14639692 56.4841659 4.14639692 57.0202901 -0.39819853 57.0202901"></polygon>
                        <path d="M16.3067496,33.9198932 C15.8280195,35.0512102 15.5045501,36.09301 15.3363414,37.0452927 C15.0840282,38.4737168 13.8702003,45.0496075 13.1082379,46.2769477 C12.1381589,47.8395144 8.93096614,50.054672 3.48665974,52.9224205 L3.83818792,54.2723493 C8.5237702,53.91312 12.1419005,53.2480895 14.6925787,52.2772576 C18.5185961,50.8210099 21.4793914,49.6354957 23.7251435,44.9773464 C25.2223115,41.8719135 26.375938,38.9538289 27.186023,36.2230926 L16.3067496,33.9198932 Z" id="Path-70" stroke="#0055B9"></path>
                        <path d="M29.0043448,9.44452581 C29.3956321,9.93079086 29.6492324,10.3182592 29.7651457,10.6069308 C29.9390156,11.0399383 30.1878129,11.1322878 30.422201,11.1322878 C30.6565892,11.1322878 31.0095437,11.6060216 31.0095437,11.9976216 C31.0095437,12.3892216 31.0195615,12.5724223 30.5675272,12.9137613 C30.266171,13.1413206 29.9987105,13.2778472 29.7651457,13.3233409 C29.4935226,13.4025235 29.357711,13.609924 29.357711,13.9455422 C29.357711,14.2811604 29.6126836,14.8884242 30.1226288,15.7673335 L27.4716274,15.919751 C27.9243956,15.329727 28.1347228,14.9166969 28.1026091,14.6806605 C28.0704953,14.4446242 27.7112282,13.7629451 27.0248078,12.6356232 C27.3226875,10.6862951 27.4716274,9.71163107 27.4716274,9.71163107 C27.4716274,9.71163107 27.9825332,9.62259598 29.0043448,9.44452581 Z" id="Path-65" fill="#F6C5C1" transform="translate(29.017185, 12.682138) rotate(17.000000) translate(-29.017185, -12.682138) "></path>
                        <path d="M27.3267874,4.57832085 C28.9071971,4.57832085 29.4111502,4.78683092 28.9071971,6.11430858 C28.403244,7.44178625 27.3267874,7.15467554 27.3267874,8.59295829 C27.3267874,10.031241 26.947082,11.7391677 25.3795254,11.7391677 C23.8119689,11.7391677 20.0229485,12.8668687 18.154948,11.7391677 C16.2869476,10.6114667 16.0663007,9.48376567 12.8851303,10.6114667 C9.70395979,11.7391677 10.9325178,18.4113418 5.76638464,16.5746252 C0.600251458,14.7379087 2.37929744,10.1513254 3.00856937,8.59295829 C3.63784131,7.03459121 4.34416953,6.11430858 6.28286265,6.11430858 C8.22155577,6.11430858 8.99328416,7.65029631 11.4696701,6.11430858 C13.946056,4.57832085 16.2682033,3.04233313 18.154948,4.57832085 C20.0416927,6.11430858 22.399722,6.86046893 23.2062612,6.11430858 C24.0128003,5.36814823 25.7463776,4.57832085 27.3267874,4.57832085 Z" id="Path-64" fill="#000000" transform="translate(15.646577, 10.417319) rotate(17.000000) translate(-15.646577, -10.417319) "></path>
                        <path d="M30.9119944,13.5211422 C32.2053058,13.3114231 34.850484,13.8910894 34.1354828,16.7118326 C33.290718,20.0445048 33.1927351,22.5800798 33.8415343,24.3185577 L42.5935276,30.6972192 L42.1209399,31.6801805 L36.6655257,30.4470968 C33.786716,29.4904833 31.7483028,28.4393529 30.5502863,27.2937055 C29.3522698,26.1480582 28.4788233,24.1833866 27.9299466,21.3996908 C27.7689142,16.4958103 28.7629301,13.8696275 30.9119944,13.5211422 Z" id="Path-16" fill="#0820BD" transform="translate(35.253318, 22.581217) rotate(-50.000000) translate(-35.253318, -22.581217) "></path>
                        <path d="M46.0239085,21.3383576 C46.2492662,21.3383576 46.8346557,21.3383576 47.7800773,21.3383576 C49.1982097,21.3383576 49.1982097,21.4145622 49.1982097,22.2167161 C49.1982097,22.7514853 48.1401093,23.01887 46.0239085,23.01887 L46.0239085,21.3383576 Z" id="Path-20" fill="#F6C5C1" transform="translate(47.611059, 22.178614) rotate(-25.000000) translate(-47.611059, -22.178614) "></path>
                    </g>
                </g>
            </g>
        </g>
    </g>
</svg>