<?xml version="1.0" encoding="UTF-8"?>
<svg width="151px" height="126px" viewBox="0 0 151 126" version="1.1" xmlns="http://www.w3.org/2000/svg" xmlns:xlink="http://www.w3.org/1999/xlink">
    <!-- Generator: Sketch 52.2 (67145) - http://www.bohemiancoding.com/sketch -->
    <title>分组 43</title>
    <desc>Created with Sketch.</desc>
    <defs>
        <linearGradient x1="74.0484893%" y1="-14.4286159%" x2="29.8481514%" y2="100%" id="linearGradient-1">
            <stop stop-color="#87F5FF" offset="0%"></stop>
            <stop stop-color="#22C4E7" offset="100%"></stop>
        </linearGradient>
        <linearGradient x1="110.580802%" y1="50%" x2="15.0699884%" y2="50%" id="linearGradient-2">
            <stop stop-color="#0A6CFD" offset="0%"></stop>
            <stop stop-color="#66E5F7" stop-opacity="0" offset="100%"></stop>
        </linearGradient>
        <linearGradient x1="33.923077%" y1="-20.2258026%" x2="50%" y2="100%" id="linearGradient-3">
            <stop stop-color="#4D98F7" offset="0%"></stop>
            <stop stop-color="#0367FD" offset="100%"></stop>
        </linearGradient>
    </defs>
    <g id="页面-1" stroke="none" stroke-width="1" fill="none" fill-rule="evenodd">
        <g id="画板" transform="translate(-422.000000, -1955.000000)">
            <g id="我们的优势" transform="translate(370.000000, 1833.000000)">
                <g id="分组-17" transform="translate(2.000000, 122.000000)">
                    <g id="分组-43" transform="translate(50.000000, 0.000000)">
                        <g id="分组-42" transform="translate(0.000000, 14.000000)">
                            <path d="M54.4466835,101.261828 C82.3076175,101.261828 104.893367,78.6760781 104.893367,50.8151441 C104.893367,22.9542101 82.3076175,0.368460576 54.4466835,0.368460576 C26.5857495,0.368460576 4,22.9542101 4,50.8151441 C4,78.6760781 26.5857495,101.261828 54.4466835,101.261828 Z" id="椭圆形" stroke="#E7E7E7" stroke-width="1.5" stroke-dasharray="2" fill-rule="nonzero"></path>
                            <g id="分组-16" transform="translate(3.515394, 69.964456)">
                                <circle id="椭圆形" fill="#FF9B07" fill-rule="nonzero" cx="9.42377972" cy="9.42377972" r="9.42377972"></circle>
                                <path d="M11.5698685,4.3494368 C13.2469135,4.3494368 14.611208,5.63650071 14.611208,7.23118366 C14.611208,7.72702204 14.4729811,8.21123088 14.2184203,8.64819569 C13.8370406,9.28562716 13.2235226,9.75812924 12.483216,9.98248819 C12.2868146,10.0413772 12.1366502,10.0652077 11.9979391,10.0652077 C11.6737656,10.0652077 11.419689,9.80537327 11.419689,9.47494305 C11.419689,9.14403407 11.6737656,8.88419962 11.9979391,8.88419962 C12.0208004,8.88419962 12.0670223,8.88419962 12.1251817,8.86084788 C12.622396,8.71871424 13.0157133,8.42383674 13.2354601,8.03355996 C13.3856245,7.78591105 13.4547228,7.51436984 13.4547228,7.23070489 C13.4547228,6.29782448 12.6109881,5.53044489 11.5812764,5.53044489 C11.2248913,5.53080011 10.8744825,5.62431518 10.5634872,5.8019861 C10.0200509,6.12070956 9.69587742,6.65208521 9.69587742,7.23118366 L9.69587742,12.179019 C9.69587742,13.1829585 9.15244119,14.1040704 8.25050167,14.6238011 C7.76788769,14.9041455 7.22172808,15.0506344 6.66641487,15.0485803 C4.98935476,15.0485803 3.62453066,13.7615164 3.62453066,12.167374 C3.62453066,11.6710414 3.76324171,11.186848 4.01778737,10.750362 C4.3991671,10.1128687 5.01223118,9.63988789 5.75252271,9.41557527 C5.96086162,9.3567017 6.09963319,9.33287119 6.23834423,9.33287119 C6.56251775,9.33287119 6.81659439,9.59270563 6.81659439,9.92361462 C6.81659439,10.2545236 6.5620336,10.5138793 6.23834423,10.5138793 C6.21493826,10.5138793 6.16871637,10.5138793 6.11104114,10.5377098 C5.61381167,10.6909942 5.22055496,10.9863659 5.00076271,11.3644572 C4.85495574,11.6055886 4.77895818,11.8839562 4.78150001,12.167374 C4.78150001,13.1001927 5.62528014,13.8675722 6.66641487,13.8675722 C7.02267894,13.8671552 7.37284565,13.7737019 7.68371998,13.5960928 C8.22715621,13.2773076 8.55132973,12.7459319 8.55132973,12.167374 L8.55132973,7.23118366 C8.55132973,6.22730593 9.09476596,5.30613227 9.99717451,4.78640161 C10.470998,4.49102989 11.0149638,4.3494368 11.5703375,4.3494368 L11.5698685,4.3494368 Z" id="Fill-1" stroke="#FFFFFF" stroke-width="0.5" fill="#FFFFFF"></path>
                            </g>
                            <g id="分组-16" transform="translate(0.467084, 18.930663)">
                                <circle id="椭圆形" fill="#23C4E7" fill-rule="nonzero" cx="9.42377972" cy="9.42377972" r="9.42377972"></circle>
                                <path d="M4.3494368,9.76206925 L9.76206925,9.76206925 L9.76206925,4.3494368 L4.3494368,4.3494368 L4.3494368,9.76206925 Z M5.70259491,8.40891114 L8.40891114,8.40891114 L8.40891114,5.70259491 L5.70259491,5.70259491 L5.70259491,8.40891114 Z M9.0854902,9.76206925 L14.4981227,9.76206925 L14.4981227,4.3494368 L9.0854902,4.3494368 L9.0854902,9.76206925 Z M10.4386483,8.40891114 L13.1449645,8.40891114 L13.1449645,5.70259491 L10.4386483,5.70259491 L10.4386483,8.40891114 Z M6.37917397,7.73233208 L7.73233208,7.73233208 L7.73233208,6.37917397 L6.37917397,6.37917397 L6.37917397,7.73233208 Z M4.3494368,14.4981227 L9.76206925,14.4981227 L9.76206925,9.0854902 L4.3494368,9.0854902 L4.3494368,14.4981227 Z M5.70259491,13.1449645 L8.40891114,13.1449645 L8.40891114,10.4386483 L5.70259491,10.4386483 L5.70259491,13.1449645 Z M12.4683855,6.37917397 L11.1152274,6.37917397 L11.1152274,7.73233208 L12.4683215,7.73233208 L12.4683215,6.37917397 L12.4683855,6.37917397 Z M9.0854902,14.4981227 L10.4386483,14.4981227 L10.4386483,13.1449645 L9.0854902,13.1449645 L9.0854902,14.4981227 Z M10.4386483,13.1449645 L11.7918064,13.1449645 L11.7918064,10.4386483 L10.4386483,10.4386483 L10.4386483,13.1449645 Z M13.1449326,13.1449645 L11.7918064,13.1449645 L11.7918064,14.4981227 L14.4981227,14.4981227 L14.4981227,11.7918064 L13.1449326,11.7918064 L13.1449326,13.1449645 Z M13.1449645,10.4386483 L14.4981227,10.4386483 L14.4981227,9.0854902 L13.1449645,9.0854902 L13.1449645,10.4386483 Z M9.0854902,10.4386483 L10.4386483,10.4386483 L10.4386483,9.0854902 L9.0854902,9.0854902 L9.0854902,10.4386483 Z M6.37917397,12.4683855 L7.73233208,12.4683855 L7.73233208,11.1152274 L6.37917397,11.1152274 L6.37917397,12.4683855 Z" id="erweima-(5)" fill="#FFFFFF"></path>
                            </g>
                        </g>
                        <g id="04齐全的公共服务能力" transform="translate(28.000000, 0.000000)" fill-rule="nonzero">
                            <g id="分组-3" transform="translate(0.781609, 0.000000)">
                                <g id="分组-2" transform="translate(13.000000, 0.000000)">
                                    <g id="手机" transform="translate(0.408790, 0.000000)">
                                        <path d="M11.0201767,0 L59.0479218,0 C63.4661998,-8.11624501e-16 67.0479218,3.581722 67.0479218,8 L67.0479218,117.577211 C67.0479218,121.995489 63.4661998,125.577211 59.0479218,125.577211 L11.0201767,125.577211 C6.60189866,125.577211 3.02017666,121.995489 3.02017666,117.577211 L3.02017666,8 C3.02017666,3.581722 6.60189866,8.11624501e-16 11.0201767,0 Z" id="矩形" fill="#0A5FDA"></path>
                                        <path d="M8,0 L56.0277452,0 C60.4460232,-8.11624501e-16 64.0277452,3.581722 64.0277452,8 L64.0277452,117.577211 C64.0277452,121.995489 60.4460232,125.577211 56.0277452,125.577211 L8,125.577211 C3.581722,125.577211 -1.13145755e-13,121.995489 -1.13686838e-13,117.577211 L-1.13686838e-13,8 C-1.14227921e-13,3.581722 3.581722,8.11624501e-16 8,0 Z" id="矩形" fill="#52D6EC"></path>
                                        <path d="M6.9529318,1.8086195 C6.9529318,1.8086195 6.9529318,1.8086195 6.9529318,1.8086195 C8.48456782,1.8086195 13.0207147,1.8086195 20.5613726,1.8086195 C20.8554005,3.24840143 21.3511694,3.9682924 22.0486795,3.9682924 C23.892441,3.9682924 27.5161897,3.9682924 32.9199256,3.9682924 C37.609318,3.9682924 41.2772826,3.9682924 43.9238194,3.9682924 C44.6945125,3.9682924 45.2410867,3.24840143 45.5635422,1.8086195 C52.2101407,1.8086195 56.1051446,1.8086195 57.2485538,1.8086195 C57.2485538,1.8086195 57.2485538,1.8086195 57.2485538,1.8086195 L57.2485538,1.8086195 C59.9919096,1.8086195 62.2158388,4.03254874 62.2158388,6.77590449 L62.2158347,118.259404 C62.2158347,121.302044 59.7492872,123.768592 56.7066467,123.768592 C56.7066459,123.768592 56.7066451,123.768592 56.7066443,123.768592 C56.7066443,123.768592 56.7066443,123.768592 56.7066443,123.768592 C47.5416911,123.768588 31.2107751,123.768588 7.71389608,123.768592 L7.71389608,123.768592 C4.62119193,123.768592 2.11405986,121.26146 2.11405986,118.168756 L2.11405986,6.64749145 C2.11405986,3.97505626 4.28049662,1.8086195 6.9529318,1.8086195 Z" id="矩形" fill="#E7F6FE"></path>
                                    </g>
                                </g>
                                <g id="分组-30" transform="translate(0.742546, 73.245307)">
                                    <path d="M16.5822314,-7.16574622e-06 L73.5264649,-7.16574626e-06 C82.4628028,-7.16574624e-06 89.7071361,7.24432608 89.7071361,16.180664 C89.7071361,16.1806647 89.7071361,16.1806655 89.7071361,16.1806662 L89.7071361,16.1806662 C89.7071349,25.2859159 82.4944218,32.7547719 73.3947133,33.0723869 C71.6358318,33.1337597 70.4017598,33.1644556 69.6924965,33.1644556 C67.5979212,33.1644556 65.8820788,34.6144691 64.5449694,37.5144961 C62.6768422,34.6144691 60.9399778,33.1644556 59.334376,33.1644556 C45.0836611,33.1644556 30.8329463,33.1644556 16.5822314,33.1644556 L16.5822314,33.1644556 C7.42411787,33.1644556 -5.01868306e-13,25.7403377 -4.86721774e-13,16.5822242 L-4.86721774e-13,16.5822242 C-4.71575242e-13,7.4241107 7.42411787,-7.16574622e-06 16.5822314,-7.16574622e-06 Z" id="矩形" fill="url(#linearGradient-1)"></path>
                                    <rect id="矩形" fill="#BAF6FF" x="22.5724656" y="7.87359199" width="45.1254068" height="1.6310388" rx="0.815519399"></rect>
                                    <rect id="矩形" fill="#BAF6FF" x="22.5724656" y="13.310388" width="45.1254068" height="1.6310388" rx="0.815519399"></rect>
                                    <rect id="矩形" fill="#BAF6FF" x="22.5724656" y="18.747184" width="45.1254068" height="1.6310388" rx="0.815519399"></rect>
                                    <rect id="矩形" fill="#BAF6FF" x="22.5724656" y="23.997184" width="45.1254068" height="1.6310388" rx="0.815519399"></rect>
                                </g>
                                <g id="分组-22" transform="translate(54.000000, 79.961773)">
                                    <g id="分组-6" transform="translate(0.141294, 0.413196)">
                                        <rect id="矩形" fill="url(#linearGradient-2)" x="-4.26325641e-14" y="-4.97379915e-14" width="66.4110138" height="18.8475594" rx="9.42377972"></rect>
                                        <circle id="椭圆形" fill="#0A6CFD" cx="57.7121402" cy="9.42377972" r="9.42377972"></circle>
                                        <polyline id="路径-4" stroke="#FFFFFF" stroke-width="2" points="52.6377972 9.42377972 57.1020588 13.0483104 63.5113892 5.79924906"></polyline>
                                    </g>
                                </g>
                            </g>
                        </g>
                        <g id="分组-30" transform="translate(32.170964, 20.000000)">
                            <path d="M22.1096379,-1.66259721e-06 L87.8865989,-1.66259719e-06 C99.8017155,-1.6625972e-06 109.460826,9.65910886 109.460826,21.5742255 L109.460826,21.5742255 C109.460826,33.5494793 99.860117,43.3135172 87.8865669,43.5155095 C60.0759844,43.9846935 45.0386762,44.2192741 42.7746428,44.2192741 C39.9818757,44.2192741 37.6940859,46.1526254 35.9112734,50.0193281 C33.4204371,46.1526254 31.1046178,44.2192741 28.9638155,44.2192741 C26.6790896,44.2192741 24.3943638,44.2192741 22.1096379,44.2192741 L22.1096379,44.2192741 C9.89882205,44.2192741 1.59687216e-13,34.320452 4.97379915e-14,22.1096362 L4.97379915e-14,22.1096362 C4.82425979e-14,9.89882039 9.89882205,-1.6625972e-06 22.1096379,-1.66259721e-06 Z" id="矩形" fill="url(#linearGradient-3)" fill-rule="nonzero"></path>
                            <rect id="矩形" fill="#92C5FF" fill-rule="nonzero" x="54.0876095" y="21.747184" width="34.0705882" height="2.1747184" rx="1.0873592"></rect>
                            <rect id="矩形" fill="#92C5FF" fill-rule="nonzero" x="54.0876095" y="13.7732165" width="34.0705882" height="2.1747184" rx="1.0873592"></rect>
                            <rect id="矩形" fill="#92C5FF" fill-rule="nonzero" x="54.0876095" y="28.9962453" width="34.0705882" height="2.1747184" rx="1.0873592"></rect>
                            <g id="weixin-color-(1)" transform="translate(12.832040, 7.465332)" fill="#FFFFFF">
                                <path d="M35.7645909,18.5794899 C35.7645909,13.6456702 30.8193583,9.59280611 25.167756,9.59280611 C19.3393082,9.59280611 14.5706911,13.6456702 14.5706911,18.5794899 C14.5706911,23.5133555 19.1626928,27.5661737 25.167756,27.5661737 C26.4039721,27.5661737 27.6402343,27.2137547 28.8764964,26.8613817 L32.2322359,28.7997778 L31.3492047,25.6279611 C33.821913,23.689565 35.7645909,21.222724 35.7645909,18.5794899 Z M21.8120165,16.9936963 C21.1055547,16.9936963 20.5757543,16.4650679 20.5757543,15.7602758 C20.5757543,15.2314638 21.2821701,14.5266717 21.8120165,14.5266717 C22.6950477,14.5266717 23.4014635,15.0552543 23.4014635,15.7602758 C23.4014635,16.2888584 22.6950477,16.9936963 21.8120165,16.9936963 Z M28.5233115,16.9936963 C27.9934652,16.9936963 27.2870494,16.4650679 27.2870494,15.7602758 C27.2870494,15.2314638 27.9934652,14.5266717 28.5233115,14.5266717 C29.4065267,14.5266717 30.1129425,15.0552543 30.1129425,15.7602758 C30.1129425,16.2888584 29.5831422,16.9936963 28.5233115,16.9936963 Z" id="Fill-1"></path>
                                <path d="M12.319904,0 C5.45589133,0 0,4.57407407 0,10.5554639 C0,13.8981023 1.93588604,16.7130088 4.92794325,18.8240283 L3.69600327,22.5185185 L8.0959526,20.4074532 C9.67984269,20.7593051 10.9117827,21.1111569 12.4959019,21.1111569 L13.7278419,21.1111569 C13.5518439,20.2315731 13.375846,19.3517602 13.375846,18.4721764 C13.375846,13.0185185 17.9517933,8.62037037 23.9356327,8.62037037 L25.167756,8.62037037 C23.7596347,3.69449026 18.4797413,0 12.319904,0 Z M8.44790271,8.26851852 C7.56795868,8.26851852 6.51183334,7.74078655 6.51183334,6.68527681 C6.51183334,5.80550974 7.3919607,5.10180604 8.44790271,5.10180604 C9.32789258,5.10180604 10.0318386,5.62958382 10.0318386,6.68527681 C9.85584066,7.74078655 9.32789258,8.26851852 8.44790271,8.26851852 Z M17.0718034,8.26851852 C16.1918594,8.26851852 15.135734,7.74078655 15.135734,6.68527681 C15.135734,5.80550974 16.0158614,5.10180604 17.0718034,5.10180604 C17.9517933,5.10180604 18.6557393,5.62958382 18.6557393,6.68527681 C18.6557393,7.74078655 17.9517933,8.26851852 17.0718034,8.26851852 Z" id="Fill-2"></path>
                            </g>
                        </g>
                    </g>
                </g>
            </g>
        </g>
    </g>
</svg>