<?xml version="1.0" encoding="UTF-8"?>
<svg width="160px" height="126px" viewBox="0 0 160 126" version="1.1" xmlns="http://www.w3.org/2000/svg" xmlns:xlink="http://www.w3.org/1999/xlink">
    <!-- Generator: Sketch 52.4 (67378) - http://www.bohemiancoding.com/sketch -->
    <title>04齐全的公共服务能力</title>
    <desc>Created with Sketch.</desc>
    <defs>
        <linearGradient x1="105.949466%" y1="0%" x2="0%" y2="91.0711965%" id="linearGradient-1">
            <stop stop-color="#2C82FA" offset="0%"></stop>
            <stop stop-color="#1369DE" offset="100%"></stop>
        </linearGradient>
        <path d="M6.67725174,0.855445293 L81.2696039,0.855445293 C84.5833124,0.855445293 87.2696039,3.54173679 87.2696039,6.85544529 L87.2696039,37.1281954 C87.2696039,40.4419039 84.5833124,43.1281954 81.2696039,43.1281954 L6.67725174,43.1281954 C3.36354324,43.1281954 0.677251736,40.4419039 0.677251736,37.1281954 L0.677251736,6.85544529 C0.677251736,3.54173679 3.36354324,0.855445293 6.67725174,0.855445293 Z" id="path-2"></path>
        <filter x="-23.7%" y="-43.8%" width="147.3%" height="197.0%" filterUnits="objectBoundingBox" id="filter-3">
            <feOffset dx="0" dy="2" in="SourceAlpha" result="shadowOffsetOuter1"></feOffset>
            <feGaussianBlur stdDeviation="6.5" in="shadowOffsetOuter1" result="shadowBlurOuter1"></feGaussianBlur>
            <feColorMatrix values="0 0 0 0 0.0465890977   0 0 0 0 0.420393956   0 0 0 0 0.856239371  0 0 0 0.031787817 0" type="matrix" in="shadowBlurOuter1"></feColorMatrix>
        </filter>
        <linearGradient x1="100%" y1="50%" x2="23.9076019%" y2="50%" id="linearGradient-4">
            <stop stop-color="#FF9D07" offset="0%"></stop>
            <stop stop-color="#FFE7C3" stop-opacity="0.170346467" offset="54.9343139%"></stop>
            <stop stop-color="#FFFFFF" stop-opacity="0" offset="100%"></stop>
        </linearGradient>
        <linearGradient x1="100%" y1="50%" x2="0%" y2="61.1257259%" id="linearGradient-5">
            <stop stop-color="#FFCC11" offset="0%"></stop>
            <stop stop-color="#FF9D07" offset="100%"></stop>
        </linearGradient>
        <linearGradient x1="100%" y1="50%" x2="10.2290594%" y2="50%" id="linearGradient-6">
            <stop stop-color="#33CCEB" offset="0%"></stop>
            <stop stop-color="#FFFFFF" stop-opacity="0" offset="100%"></stop>
        </linearGradient>
        <linearGradient x1="110.580802%" y1="50%" x2="15.0699884%" y2="50%" id="linearGradient-7">
            <stop stop-color="#0A46FD" stop-opacity="0.695538949" offset="0%"></stop>
            <stop stop-color="#66E5F7" stop-opacity="0" offset="100%"></stop>
        </linearGradient>
    </defs>
    <g id="页面-1" stroke="none" stroke-width="1" fill="none" fill-rule="evenodd">
        <g id="海纳官网首页-copy-2" transform="translate(-430.000000, -2381.000000)">
            <g id="我们的优势" transform="translate(385.000000, 1843.000000)">
                <g id="04齐全的公共服务能力" transform="translate(44.000000, 538.000000)">
                    <g id="分组-3" transform="translate(37.781609, 0.000000)">
                        <g id="分组-2">
                            <g id="手机" transform="translate(9.408790, 0.000000)" fill-rule="nonzero">
                                <path d="M11.0201767,0 L59.0479218,0 C63.4661998,-8.11624501e-16 67.0479218,3.581722 67.0479218,8 L67.0479218,117.577211 C67.0479218,121.995489 63.4661998,125.577211 59.0479218,125.577211 L11.0201767,125.577211 C6.60189866,125.577211 3.02017666,121.995489 3.02017666,117.577211 L3.02017666,8 C3.02017666,3.581722 6.60189866,8.11624501e-16 11.0201767,0 Z" id="矩形" fill="#0A5FDA"></path>
                                <path d="M8,0 L56.0277452,0 C60.4460232,-8.11624501e-16 64.0277452,3.581722 64.0277452,8 L64.0277452,117.577211 C64.0277452,121.995489 60.4460232,125.577211 56.0277452,125.577211 L8,125.577211 C3.581722,125.577211 -1.13145755e-13,121.995489 -1.13686838e-13,117.577211 L-1.13686838e-13,8 C-1.14227921e-13,3.581722 3.581722,8.11624501e-16 8,0 Z" id="矩形" fill="#52D6EC"></path>
                                <path d="M6.9529318,1.8086195 C6.9529318,1.8086195 6.9529318,1.8086195 6.9529318,1.8086195 C8.48456782,1.8086195 13.0207147,1.8086195 20.5613726,1.8086195 C20.8554005,3.24840143 21.3511694,3.9682924 22.0486795,3.9682924 C23.892441,3.9682924 27.5161897,3.9682924 32.9199256,3.9682924 C37.609318,3.9682924 41.2772826,3.9682924 43.9238194,3.9682924 C44.6945125,3.9682924 45.2410867,3.24840143 45.5635422,1.8086195 C52.2101407,1.8086195 56.1051446,1.8086195 57.2485538,1.8086195 C57.2485538,1.8086195 57.2485538,1.8086195 57.2485538,1.8086195 L57.2485538,1.8086195 C59.9919096,1.8086195 62.2158388,4.03254874 62.2158388,6.77590449 L62.2158347,118.259404 C62.2158347,121.302044 59.7492872,123.768592 56.7066467,123.768592 C56.7066459,123.768592 56.7066451,123.768592 56.7066443,123.768592 C56.7066443,123.768592 56.7066443,123.768592 56.7066443,123.768592 C47.5416911,123.768588 31.2107751,123.768588 7.71389608,123.768592 L7.71389608,123.768592 C4.62119193,123.768592 2.11405986,121.26146 2.11405986,118.168756 L2.11405986,6.64749145 C2.11405986,3.97505626 4.28049662,1.8086195 6.9529318,1.8086195 Z" id="矩形" fill="#E7F6FE"></path>
                            </g>
                            <g id="分组-22" transform="translate(0.000000, 12.961773)">
                                <path d="M20.6572136,85.8789653 L63.0074458,85.8789653 C65.2165848,85.8789653 67.0074458,87.6698263 67.0074458,89.8789653 L67.0074458,100.036789 C67.0074458,102.245928 65.2165848,104.036789 63.0074458,104.036789 L20.6572136,104.036789 C18.4480746,104.036789 16.6572136,102.245928 16.6572136,100.036789 L16.6572136,89.8789653 C16.6572136,87.6698263 18.4480746,85.8789653 20.6572136,85.8789653 Z" id="矩形" fill="#B7D8FF" fill-rule="nonzero"></path>
                                <path d="M20.6572136,61.493063 L63.0074458,61.493063 C65.2165848,61.493063 67.0074458,63.283924 67.0074458,65.493063 L67.0074458,75.6508865 C67.0074458,77.8600255 65.2165848,79.6508865 63.0074458,79.6508865 L20.6572136,79.6508865 C18.4480746,79.6508865 16.6572136,77.8600255 16.6572136,75.6508865 L16.6572136,65.493063 C16.6572136,63.283924 18.4480746,61.493063 20.6572136,61.493063 Z" id="矩形" fill="#B7D8FF" fill-rule="nonzero"></path>
                                <path d="M20.6572136,0 L63.0074458,0 C65.2165848,-4.05812251e-16 67.0074458,1.790861 67.0074458,4 L67.0074458,14.1578235 C67.0074458,16.3669625 65.2165848,18.1578235 63.0074458,18.1578235 L20.6572136,18.1578235 C18.4480746,18.1578235 16.6572136,16.3669625 16.6572136,14.1578235 L16.6572136,4 C16.6572136,1.790861 18.4480746,4.05812251e-16 20.6572136,0 Z" id="矩形" fill="#B7D8FF" fill-rule="nonzero"></path>
                                <g id="分组-27" transform="translate(0.000000, 21.149425)">
                                    <g id="矩形" fill-rule="nonzero">
                                        <use fill="black" fill-opacity="1" filter="url(#filter-3)" xlink:href="#path-2"></use>
                                        <use fill="url(#linearGradient-1)" xlink:href="#path-2"></use>
                                    </g>
                                    <rect id="矩形" fill="#92C5FF" fill-rule="nonzero" x="39.5402299" y="22.0689655" width="33.2873563" height="2.12472487" rx="1.06236244"></rect>
                                    <rect id="矩形" fill="#92C5FF" fill-rule="nonzero" x="39.5402299" y="13.7931034" width="33.2873563" height="2.12472487" rx="1.06236244"></rect>
                                    <rect id="矩形" fill="#92C5FF" fill-rule="nonzero" x="39.5402299" y="29.4252874" width="33.2873563" height="2.12472487" rx="1.06236244"></rect>
                                    <g id="分组-4" transform="translate(9.147234, 9.944234)">
                                        <g id="yiyuan-(1)">
                                            <path d="M0.0396683303,12.4384952 C0.0604108935,10.9736604 0.605619042,9.60718694 1.68922591,8.4521761 C1.92877807,8.19663253 2.13337518,7.90790601 2.35218477,7.63231296 C3.83859546,5.76289087 5.5461554,4.11111394 7.38012624,2.58703894 C7.91073777,2.14689342 8.42350511,1.68558069 8.96640853,1.26192186 C9.7819684,0.625263482 10.7111933,0.243240511 11.74022,0.118926737 C13.6317742,-0.110559495 15.2652685,0.436015932 16.6652169,1.73046498 C17.2046982,2.22737079 17.7931374,2.67233656 18.3537803,3.14797035 C20.148885,4.67312816 21.7552115,6.37810259 23.1989497,8.23809374 C23.4562064,8.5693992 23.7555069,8.86996679 23.9921607,9.21545359 C24.8768974,10.502777 25.1850327,11.9320187 24.9573534,13.4726153 C24.7745814,14.7126094 24.2185829,15.7656613 23.3686267,16.6837809 C22.8884748,17.2021333 22.4553952,17.7653701 21.9942049,18.3001044 C20.992835,19.4643716 19.9584655,20.5979358 18.8033771,21.6130892 C18.1959762,22.1454833 17.5637121,22.6496195 16.940213,23.1630819 C16.5853895,23.4565588 16.2441149,23.7712029 15.8650568,24.0291916 C14.5757354,24.9118578 13.1472572,25.2147656 11.6054632,24.9827994 C10.3711061,24.7958921 9.31777498,24.2469764 8.41163226,23.3927078 C8.17972761,23.1749229 7.91360122,22.9926613 7.66235081,22.7963231 C6.06367187,21.5373623 4.63044456,20.1056406 3.30742521,18.5652187 C2.80230538,17.9759246 2.30018869,17.3842902 1.80393857,16.7855652 C1.50998083,16.4330226 1.19954079,16.0875358 0.9486745,15.7041506 C0.325315077,14.7528481 0.0449761916,13.6903653 0.0396683303,12.4384952 Z" id="路径" fill="#FFFFFF"></path>
                                            <path d="M10.4503748,14.6535088 L10.4503748,14.8427564 C10.4503748,16.425932 10.4496764,18.0113779 10.4509335,19.5969986 C10.4514573,20.1412686 10.7696846,20.4819701 11.3079785,20.4867205 C12.1295447,20.4961515 12.9516695,20.4890608 13.773096,20.4890608 C13.9275128,20.4890608 14.0576602,20.4323005 14.1652841,20.3234255 C14.4870732,19.9969054 14.6271379,19.5993039 14.6271379,19.1449421 C14.6271379,17.7015191 14.6289188,16.2602618 14.6242744,14.8168388 C14.6236109,14.6819065 14.662058,14.6510638 14.7927292,14.6510638 C16.3536594,14.6558491 17.9149738,14.6535088 19.476393,14.6535088 C19.5540204,14.6535088 19.632032,14.6510638 19.7088563,14.6464182 C20.1171077,14.6155755 20.444065,14.3150079 20.4524109,13.9056701 C20.4688932,13.0349149 20.4618044,12.1616796 20.4618044,11.2908894 C20.4618044,11.1085928 20.4050592,10.9405124 20.291429,10.7961492 C20.1004857,10.5501413 19.8372228,10.4767197 19.5404016,10.4767197 L14.6271379,10.4767197 L14.6271379,10.2850271 C14.6271379,8.70897713 14.6278363,7.13292716 14.6266141,5.5568772 C14.6259156,4.96772282 14.2983997,4.64106297 13.7110429,4.63998015 C12.9302635,4.63875762 12.1495888,4.63519482 11.3688094,4.64350802 C11.2173957,4.64462576 11.0542488,4.66942565 10.9175714,4.73097127 C10.5745159,4.88487026 10.4496764,5.18177025 10.4503748,5.54391839 C10.4509335,7.13292716 10.4503748,8.72315847 10.4503748,10.3109447 L10.4503748,10.4767197 L8.08684004,10.4767197 C7.22871251,10.4767197 6.37044531,10.4742746 5.51231778,10.4767197 C4.95045273,10.47906 4.61500986,10.8151158 4.61448606,11.3712619 C4.61270513,12.1710756 4.61448606,12.9709242 4.61326385,13.7707378 C4.61326385,13.9766467 4.65757751,14.1683393 4.78538522,14.3339746 C4.97880788,14.5872128 5.24619139,14.6558491 5.54832045,14.6558491 C7.11864423,14.6510638 8.68949182,14.6535088 10.2598156,14.6535088 C10.3184814,14.6535088 10.3764489,14.6535088 10.4503748,14.6535088 Z" id="路径" fill="#0A5FDA"></path>
                                        </g>
                                    </g>
                                </g>
                            </g>
                        </g>
                    </g>
                    <g id="分组-6" transform="translate(50.655172, 22.988506)">
                        <rect id="矩形" fill="url(#linearGradient-4)" fill-rule="nonzero" x="2.84217094e-14" y="-6.39488462e-14" width="109.19729" height="25.5478173" rx="12.7739086"></rect>
                        <circle id="椭圆形" fill="url(#linearGradient-5)" fill-rule="nonzero" cx="97.5709191" cy="12.7739087" r="12.7739087"></circle>
                        <path d="M105.236258,10.5452225 L103.066752,8.81374345 C103.071861,8.77100659 103.074415,8.72755129 103.074415,8.68360335 L103.074415,6.26745186 C103.074415,5.6552597 102.563899,5.15892097 101.93483,5.15892097 L101.072056,5.15892097 C100.442544,5.15892097 99.9320485,5.65534181 99.9320485,6.26745186 L99.9320485,6.3113998 L98.2082104,4.9353838 C97.7701845,4.58554505 97.1397859,4.58201443 96.6979813,4.92752202 L89.7747431,10.3333857 C89.2586957,10.7362863 89.1764102,11.4696483 89.5909411,11.9710366 C90.0050498,12.4728971 90.7590667,12.5529107 91.2750929,12.1501537 L97.4396068,7.33638649 L103.715791,12.3463697 C104.227194,12.7544225 104.982034,12.6823323 105.40218,12.1850494 C105.821799,11.6875817 105.747683,10.9538296 105.236258,10.5452225 Z M91.6621055,12.7902352 L91.6621055,18.9616249 C91.6621055,19.5813596 92.1779067,20.0839263 92.8139138,20.0839263 L97.111291,20.0839263 C97.0944631,20.0129772 97.0858891,19.9395134 97.0858891,19.8645118 L97.0858891,15.3226246 C97.0858891,14.7026613 97.6818205,14.2003232 98.4174089,14.2003232 L99.5437941,14.2003232 C100.279361,14.2003232 100.875314,14.7027445 100.875314,15.3226246 L100.875314,19.8645118 C100.875314,19.9395134 100.866655,20.0129772 100.849891,20.0839263 L102.187084,20.0839263 C102.823091,20.0839263 103.338807,19.5813596 103.338807,18.9616249 L103.338807,12.921992 L97.5005308,8.40722496 L91.6621908,12.7902352 L91.6621055,12.7902352 Z" id="4-copy" fill="#FFFFFF"></path>
                    </g>
                    <g id="分组-6" transform="translate(48.212644, 103.873563) scale(-1, 1) translate(-48.212644, -103.873563) translate(0.712644, 92.873563)">
                        <rect id="矩形" fill="url(#linearGradient-6)" fill-rule="nonzero" x="0" y="-1.13686838e-13" width="93.7276738" height="21.9285431" rx="10.9642716"></rect>
                        <circle id="椭圆形" fill="#24C4E7" fill-rule="nonzero" cx="83.7483722" cy="10.9642716" r="10.9642716"></circle>
                        <g id="jiaofei" transform="translate(78.137931, 3.946360)">
                            <path d="M2.65989902,1.58080653 C2.59030874,1.52086762 2.53164599,1.45015743 2.48382762,1.36875791 C2.43607578,1.28735839 2.4013139,1.20167986 2.37954199,1.11170594 C2.35778671,1.02171561 2.35778671,0.93180726 2.37954199,0.841833331 C2.4013139,0.751843007 2.44692015,0.668344971 2.51644391,0.59122446 C2.59466645,0.514054766 2.66425673,0.479806307 2.72506507,0.488380718 C2.78587341,0.496955128 2.85325157,0.518350168 2.92718293,0.552615021 C3.0010644,0.586945452 3.09019784,0.625489313 3.19446684,0.668344971 C3.29875248,0.711118656 3.4291511,0.732579274 3.58559618,0.732579274 C3.72469358,0.732579274 3.83553241,0.694019019 3.91811266,0.616914903 C4.00069291,0.539810786 4.07891545,0.456230777 4.15279692,0.366256848 C4.22666175,0.276332102 4.30709641,0.192768488 4.39403437,0.115664372 C4.48095569,0.0385602554 4.59829782,0 4.74604411,0 C4.89384031,0 5.00903684,0.0385602554 5.09161709,0.115664372 C5.17413081,0.192834066 5.25020776,0.276332102 5.31973152,0.366256848 C5.38930517,0.456230777 5.46973983,0.537630296 5.56096897,0.610439009 C5.652248,0.683329696 5.7760768,0.719758645 5.93260504,0.719693066 C6.0629205,0.719693066 6.16941825,0.683329696 6.25206503,0.610439009 C6.33462865,0.537630296 6.41499678,0.456230777 6.49323595,0.366256848 C6.57145849,0.276332102 6.6561677,0.192768488 6.74746337,0.115664372 C6.8387424,0.0385602554 6.95828001,0 7.10602631,0 C7.25377261,0 7.37111473,0.0385602554 7.45803606,0.115664372 C7.54504055,0.192834066 7.62326309,0.276332102 7.69278684,0.366256848 C7.76229396,0.456230777 7.83832102,0.539745208 7.92095116,0.616914903 C8.00353141,0.694019019 8.11872795,0.732579274 8.26647425,0.732579274 C8.42291933,0.732579274 8.55110583,0.711184235 8.65110028,0.668344971 C8.75109474,0.625489313 8.83794953,0.586879874 8.91188089,0.552615021 C8.98576236,0.518350168 9.05314052,0.496955128 9.11394886,0.488380718 C9.17482373,0.479806307 9.24434748,0.514054766 9.32257002,0.59122446 C9.39216031,0.668344971 9.43562097,0.751843007 9.45296864,0.841833331 C9.47038285,0.93180726 9.47038285,1.02171561 9.45296864,1.11170594 C9.43562097,1.20167986 9.40079256,1.28735839 9.34868301,1.36875791 C9.29652356,1.45015743 9.23998977,1.52086762 9.17918144,1.58080653 C9.10959115,1.640811 9.00311003,1.74360556 8.85972144,1.88928857 C8.71626633,2.03492239 8.57066562,2.18485161 8.42291933,2.33912543 C8.24906004,2.51900771 8.06655187,2.71177619 7.87527838,2.91741449 L3.96371892,2.91741449 C3.76381317,2.71177619 3.58123847,2.51900771 3.4160946,2.33912543 C3.26834831,2.18485161 3.1227476,2.03492239 2.97935902,1.88928857 C2.8359039,1.74360556 2.72942278,1.640811 2.65989902,1.58080653 Z M8.27953074,3.49578554 C8.9401561,3.86420648 9.53119118,4.30545253 10.052769,4.81958927 C10.2700391,5.04232721 10.487359,5.28868986 10.7046956,5.55856246 C10.9220156,5.82843507 11.1132225,6.1283427 11.278383,6.45821978 C11.4435269,6.78809687 11.5782832,7.143648 11.6825688,7.52495515 C11.7869044,7.90619672 11.8390805,8.31535841 11.8390805,8.75232546 C11.8390805,9.48059293 11.7260295,10.1317727 11.5000607,10.7058483 C11.2740253,11.2799076 10.9198034,11.7682883 10.4373951,12.1709905 C9.9549867,12.5737419 9.34219634,12.8821747 8.5989242,13.0963218 C7.85571859,13.310551 6.9669289,13.4176245 5.93260504,13.4176245 C4.88949923,13.4176245 3.99413972,13.310551 3.24664292,13.0963218 C2.49909623,12.8821747 1.88407712,12.5736763 1.40166875,12.1709905 C0.919210487,11.7682883 0.564988619,11.2799076 0.339019784,10.7058483 C0.113050948,10.1317727 0,9.48059293 0,8.75232546 C0,8.31535841 0.0499639616,7.90619672 0.149958415,7.52495515 C0.249936235,7.143648 0.384626036,6.78809687 0.554127612,6.45821978 C0.72364582,6.1283427 0.912707188,5.82843507 1.12132835,5.55856246 C1.32994951,5.28868986 1.54726946,5.04232721 1.7732383,4.81958927 C2.29483278,4.30545253 2.89022557,3.86420648 3.55954972,3.49578554 L8.27953074,3.49578554 Z" id="Fill-1" fill="#FFFFFF"></path>
                            <text id="¥" font-family="ArialRoundedMTBold, Arial Rounded MT Bold" font-size="10" font-weight="normal" fill="#24C4E7">
                                <tspan x="3.15708812" y="12.9463602">¥</tspan>
                            </text>
                        </g>
                    </g>
                    <g id="分组-6" transform="translate(81.919540, 84.597701)">
                        <rect id="矩形" fill="url(#linearGradient-7)" fill-rule="nonzero" x="0" y="0" width="70.2913508" height="19.9488057" rx="9.97440287"></rect>
                        <circle id="椭圆形" fill="#0A6CFD" fill-rule="nonzero" cx="61.0842097" cy="9.97440287" r="9.97440287"></circle>
                        <g id="feiji" transform="translate(55.172414, 4.597701)" fill="#FFFFFF">
                            <path d="M11.6508854,0.349138188 C11.6435894,0.341608547 11.6338418,0.336763894 11.6251158,0.328212789 C11.6178197,0.320916625 11.6124644,0.310716587 11.6056207,0.303420423 C11.3818947,0.0760427616 11.0808159,-0.0202957906 10.7879525,0.00353348169 C10.5671303,0.0118073319 10.3521887,0.0881835789 10.1852843,0.257191927 L9.24558238,1.19674818 L7.61952655,2.81575242 L1.31768103,2.03774784 L0.464043303,2.88045481 L5.12570784,5.25751592 L3.07312499,7.30312689 L0.427052335,7.12852968 L0,7.55051063 L0.20428937,7.67403469 L0.117699861,7.76306249 L2.37270429,8.99468419 L2.73652907,9.2172172 L2.95980276,9.58151468 L4.19187195,11.8377951 L4.28038761,11.7499639 L4.40345737,11.954023 L4.82513981,11.5269785 L4.65003464,8.88137476 L6.6968682,6.82891999 L9.0734394,11.4904977 L9.91635193,10.6370653 L9.13812617,4.33535373 L10.7573383,2.7092722 L11.6975072,1.76949707 C11.8662794,1.60219602 11.9431797,1.38815575 11.9504758,1.16585622 C11.9743047,0.873542694 11.8784784,0.572459182 11.6508854,0.349138188 Z" id="Fill-1"></path>
                        </g>
                    </g>
                    <g id="左边人物" transform="translate(29.525532, 65.499805) rotate(1.000000) translate(-29.525532, -65.499805) translate(17.111739, 37.913598)">
                        <polygon id="Path-23" fill="#F6C5C1" points="7.61139337 53.5871988 8.73059335 53.5871988 8.73059335 51.3487988 7.61139337 51.3487988"></polygon>
                        <polygon id="Path-23" fill="#D9B07C" points="16.4233024 53.9529708 17.5425024 53.9529708 17.5425024 51.7145709 16.4233024 51.7145709"></polygon>
                        <path d="M12.5404265,28.312644 C12.9194762,34.3388082 13.1042042,38.6001143 13.0946104,41.0965624 C13.0844923,43.7294422 11.8649296,47.3955654 9.4359225,52.0949321 C8.60870739,52.0949321 7.88967658,52.0949321 7.27883007,52.0949321 C6.94752382,52.0949321 7.14829589,45.1604731 5.25384946,41.3694992 C4.85403156,40.5694242 2.27849451,38.6745224 1.6403517,36.8906292 C0.937734191,34.9265005 0.407547923,32.1181277 0.0497928943,28.465511 L12.5404265,28.312644 Z" id="Path-18" fill="#FFC107"></path>
                        <path d="M16.9498705,27.7125845 C19.5228101,31.8844744 20.8368582,35.5503742 20.8920146,38.7102839 C20.9471711,41.8701937 20.0571336,46.1964 18.2219024,51.6889031 L16.4577468,51.6889031 C15.737515,45.952857 15.2253515,42.3756722 14.9212562,40.9573486 C14.6171609,39.5390251 13.7569636,37.7579091 12.3406645,35.6140007 L8.75139936,30.8345569 L16.9498705,27.7125845 Z" id="Path-19" stroke="#003BA6" stroke-width="1.2"></path>
                        <path d="M9.29788006,7.33309645 C5.72134781,8.6992408 3.39857678,10.7863644 2.32956697,13.5944673 C0.726052248,17.8066217 0.778174019,21.2195844 0.263109183,24.6308688 C-0.251955654,28.0421533 0.12386597,31.6231237 0.263109183,31.6947607 C3.30836475,33.2614643 8.15306798,33.3850346 11.9000325,32.739482 C14.3980089,32.3091135 16.7734646,30.8833172 19.0263996,28.4620929 C16.9070905,20.7318077 15.3133038,15.7066041 14.2450395,13.386482 C13.1767752,11.0663599 11.527722,9.04856474 9.29788006,7.33309645 Z" id="Path-15" stroke="#003BA6" stroke-width="1.2"></path>
                        <g id="Group-2" transform="translate(8.521336, 4.956173) rotate(-23.000000) translate(-8.521336, -4.956173) translate(5.909870, 0.920270)">
                            <path d="M0.739923688,4.03590296 C0.827908355,4.940943 0.758973,5.57255222 0.533117622,5.93073061 C0.307262244,6.288909 0.12955637,6.57156079 0,6.77868597 L1.20784215,8.07180591 L2.34069736,7.78270478 C2.34985366,7.13521206 2.43226035,6.68519715 2.58791743,6.43266006 C2.74357452,6.18012298 2.1275766,5.38120394 0.739923688,4.03590296 Z" id="Path-14" fill="#F4A49E"></path>
                            <path d="M4.88135261,2.29818832 C5.08808234,3.29582603 5.08808234,4.00537642 4.88135261,4.42683951 C4.57125802,5.05903414 3.5857497,6.91869078 3.30044979,6.91869078 C3.01514989,6.91869078 1.19113033,6.25925204 1.19113033,5.76098026 C1.19113033,5.26270848 0.692821522,3.92233113 0.692821522,3.7117637 C0.692821522,3.50119628 0.37306666,3.68287838 0.37306666,3.29506013 C0.37306666,2.90724188 0.83563248,1.55865847 1.19113033,1.9284234 C1.4281289,2.17493335 1.72689952,1.94286606 2.08744217,1.23222152 L2.99647337,0.960929275 L4.40960953,1.43999888 L4.88135261,2.29818832 Z" id="Path-13" fill="#F6C5C1"></path>
                            <path d="M0.94094394,2.2149981 C0.9072742,2.11747438 0.976323889,1.79672481 1.14809301,1.25274938 C1.40574669,0.43678624 1.90774648,0.0373902796 2.32958023,0.0373902796 C2.75141397,0.0373902796 3.90051411,-0.188229638 4.56172367,0.468982277 C5.22293324,1.12619419 5.22293324,1.77449028 5.22293324,1.99474419 C5.22293324,2.2149981 4.73632532,2.43525201 4.56172367,2.2149981 C4.44532257,2.06816216 3.95068133,1.74741259 3.07779994,1.25274938 L2.32958023,1.25274938 L1.66869133,1.99474419 L0.94094394,2.2149981 Z" id="Path-12" fill="#000000"></path>
                        </g>
                        <path d="M9.73509015,10.6798973 C11.9068266,10.6798973 13.1502423,13.161433 13.4653372,18.1245042 L20.6540185,23.9976698 L20.6540185,25.229497 L15.2041632,23.9976698 C12.3282869,23.0420311 10.2919508,21.9919717 9.09515509,20.8474918 C7.89835935,19.7030118 7.0258028,17.7403422 6.47748543,14.9594828 C6.47748543,12.1064258 7.56335367,10.6798973 9.73509015,10.6798973 Z" id="Path-16" fill="#000000" transform="translate(13.565752, 17.954697) rotate(-11.000000) translate(-13.565752, -17.954697) "></path>
                        <polygon id="Path-24" fill="#001F57" points="7.61139337 53.4006655 8.77423424 53.4006655 12.0881933 54.5513391 12.0881933 55.0794654 7.61139337 55.0794654"></polygon>
                        <polygon id="Path-24" fill="#001F57" points="16.4233024 53.2068375 17.5861433 53.2068375 20.9001023 54.3575111 20.9001023 54.8856375 16.4233024 54.8856375"></polygon>
                        <path d="M21.3919684,22.0317123 C21.6170964,22.0317123 22.2018895,22.0317123 23.1463477,22.0317123 C24.563035,22.0317123 24.563035,22.1078393 24.563035,22.9091758 C24.563035,23.4434001 23.5060128,23.7105123 21.3919684,23.7105123 L21.3919684,22.0317123 Z" id="Path-20" fill="#F6C5C1" transform="translate(22.977502, 22.871112) rotate(-11.000000) translate(-22.977502, -22.871112) "></path>
                    </g>
                </g>
            </g>
        </g>
    </g>
</svg>