<?xml version="1.0" encoding="UTF-8"?>
<svg width="151px" height="112px" viewBox="0 0 151 112" version="1.1" xmlns="http://www.w3.org/2000/svg" xmlns:xlink="http://www.w3.org/1999/xlink">
    <!-- Generator: Sketch 52.4 (67378) - http://www.bohemiancoding.com/sketch -->
    <title>分组 34</title>
    <desc>Created with Sketch.</desc>
    <defs>
        <rect id="path-1" x="0" y="0" width="83" height="112"></rect>
        <mask id="mask-2" maskContentUnits="userSpaceOnUse" maskUnits="objectBoundingBox" x="0" y="0" width="83" height="112" fill="white">
            <use xlink:href="#path-1"></use>
        </mask>
        <linearGradient x1="25.7616617%" y1="109.675696%" x2="100%" y2="-10.8881332%" id="linearGradient-3">
            <stop stop-color="#FCB81B" offset="0%"></stop>
            <stop stop-color="#FEDB6F" offset="100%"></stop>
        </linearGradient>
        <linearGradient x1="125.754278%" y1="13.1783288%" x2="0%" y2="73.0465267%" id="linearGradient-4">
            <stop stop-color="#3E99F2" offset="0%"></stop>
            <stop stop-color="#1066DD" offset="100%"></stop>
        </linearGradient>
    </defs>
    <g id="页面-1" stroke="none" stroke-width="1" fill="none" fill-rule="evenodd">
        <g id="海纳官网首页-copy-2" transform="translate(-1304.000000, -2398.000000)">
            <g id="我们的优势" transform="translate(385.000000, 1843.000000)">
                <g id="分组-34" transform="translate(915.000000, 555.000000)">
                    <g id="分组-33" transform="translate(53.000000, 0.000000)">
                        <rect id="矩形" fill="#F0F0F0" fill-rule="nonzero" x="5" y="0" width="83" height="112"></rect>
                        <use id="矩形" stroke="#D1D1D1" mask="url(#mask-2)" stroke-width="4" stroke-dasharray="3" fill-rule="nonzero" xlink:href="#path-1"></use>
                        <polygon id="矩形" fill="url(#linearGradient-3)" fill-rule="nonzero" points="47 27 77 27 77 57 47 57"></polygon>
                        <g id="分组-26" transform="translate(14.000000, 69.000000)">
                            <rect id="矩形" stroke="#79E2F1" stroke-width="3" fill="#04C7E5" fill-rule="nonzero" x="1.5" y="1.5" width="31" height="31"></rect>
                            <g id="gongzhonghao" transform="translate(6.000000, 10.000000)">
                                <path d="M16.9338677,14.5376609 C16.9035909,14.5270948 16.8481969,14.5164983 16.7893117,14.5042574 C16.5284993,14.4355017 16.2660186,14.3651931 16.0285008,14.2824 L16.0267089,14.2824 C14.5214302,13.7614339 13.5874858,12.9060983 13.5874858,12.0472 C13.5874858,11.6987017 13.7303734,11.3695696 14.0464254,11.0176304 C14.169664,10.9032 14.2856115,10.7835322 14.4035363,10.6550644 C15.432111,9.49870173 16.0232178,7.8496609 16.0232178,6.13006782 C16.0232178,2.74919308 13.7928732,0 11.0535088,0 C8.31426806,0 6.08033971,2.74739654 6.08033971,6.12827128 C6.08033971,8.05029481 6.78390295,9.812 8.00714462,10.9701592 C8.00893651,10.9718339 8.00893651,10.9736 8.01063571,10.9753965 C8.26248867,11.2164983 8.56432913,11.6072304 8.56432913,12.0841965 C8.56432913,12.9113356 7.62494725,13.7350339 6.11243923,14.2366035 L6.09106015,14.2419626 C5.87322217,14.2964374 5.68207714,14.3492678 5.39460268,14.4408304 C2.01778957,15.5108678 0,17.4487253 0,19.6187322 C0,19.9619017 0.282160585,20.24 0.630312083,20.24 L21.3695322,20.24 C21.7178381,20.24 21.9999987,19.9619017 21.9999987,19.6187322 C22.0017906,17.5419626 20.1142219,15.6446948 16.9338677,14.5376609 Z" id="Fill-1" fill="#FFFFFF"></path>
                                <polygon id="Fill-2" fill="#04C7E5" points="11.3711441 19.36 9.68 17.107389 11.3711441 12.32 13.2 17.107389"></polygon>
                            </g>
                        </g>
                        <rect id="矩形" fill="#D8D8D8" fill-rule="nonzero" x="10" y="9" width="68" height="10"></rect>
                    </g>
                    <g id="分组-23" transform="translate(0.000000, 24.000000)">
                        <g id="分组-8" transform="translate(27.450993, 56.523770) rotate(-10.000000) translate(-27.450993, -56.523770) translate(5.950993, 24.741162)">
                            <g id="举牌人物" transform="translate(21.747921, 31.782609) scale(-1, 1) translate(-21.747921, -31.782609) translate(0.715312, 0.000000)">
                                <g transform="translate(0.000000, 0.000000)">
                                    <path d="M7.55227552,6.85253203 C7.55227552,7.21885264 7.66502032,13.3687738 8.76358009,14.9265541 C9.49595327,15.9650743 10.6191811,17.150079 12.1332637,18.4815682 C12.2956207,21.713996 11.8542023,23.2316133 10.8090084,23.0344202 C9.2412176,22.7386306 8.76358009,23.1586862 7.32484926,21.4988733 C5.88611842,19.8390603 4.89203532,14.9848584 5.44426916,11.1947662 C5.996503,7.40467392 5.5263158,7.83762966 5.92821913,6.85253203 C6.33012245,5.86743439 7.55227552,6.48621141 7.55227552,6.85253203 Z" id="Path-44" fill="#000000" transform="translate(8.727701, 14.686448) rotate(-45.000000) translate(-8.727701, -14.686448) "></path>
                                    <path d="M8.1240229,35.930543 C7.13978858,40.2536322 6.64767142,44.2779008 6.64767142,48.003349 C6.64767142,51.7287971 6.64767142,55.3504796 6.64767142,58.8683966 L8.1240229,58.8683966 C9.07432607,57.5997678 9.87216986,56.1746287 10.5175543,54.5929795 C11.1629387,53.0113303 11.7657361,50.6451192 12.3259463,47.4943461 L15.2118257,42.1018117 L17.0738844,37.4420138 L8.1240229,35.930543 Z" id="Path-46" stroke="#0055B9" stroke-width="1.2" transform="translate(11.860778, 47.399470) rotate(-8.000000) translate(-11.860778, -47.399470) "></path>
                                    <polygon id="Path-23" fill="#F6C5C1" transform="translate(9.304905, 60.392730) scale(-1, 1) rotate(7.000000) translate(-9.304905, -60.392730) " points="8.76440254 61.4737351 9.84540734 61.4737351 9.84540734 59.3117255 8.76440254 59.3117255"></polygon>
                                    <polygon id="Path-24" fill="#0A2048" transform="translate(8.232341, 61.684577) scale(-1, 1) rotate(7.000000) translate(-8.232341, -61.684577) " points="6.07033173 60.8738237 7.19348808 60.8738237 10.3943509 61.985228 10.3943509 62.4953309 6.07033173 62.4953309"></polygon>
                                    <polygon id="Path-23" fill="#F6C5C1" transform="translate(26.603032, 56.524746) scale(-1, 1) rotate(32.000000) translate(-26.603032, -56.524746) " points="26.0625295 57.605751 27.1435343 57.605751 27.1435343 55.4437414 26.0625295 55.4437414"></polygon>
                                    <polygon id="Path-24" fill="#0A2048" transform="translate(26.346630, 58.752332) scale(-1, 1) rotate(41.000000) translate(-26.346630, -58.752332) " points="24.1846199 57.9415787 25.3077763 57.9415787 28.5086391 59.052983 28.5086391 59.5630859 24.1846199 59.5630859"></polygon>
                                    <path d="M14.9875771,35.8921142 L24.3782533,35.8921142 C22.4001889,39.8992169 21.4111566,42.3159745 21.4111566,43.142387 C21.4111566,43.9687996 22.6719694,48.3603569 25.193595,56.317059 L24.1580583,57.3914269 C20.1264229,53.5811141 17.5949516,50.6750627 16.5636444,48.6732729 C15.5323372,46.6714831 14.933583,44.4146481 14.7673821,41.9027682 L14.9875771,35.8921142 Z" id="Path-47" fill="#0A2048" transform="translate(19.980489, 46.641771) rotate(-10.000000) translate(-19.980489, -46.641771) "></path>
                                    <path d="M15.6177468,13.719303 C18.9285657,13.719303 21.5568998,18.1605144 21.9785532,19.4351366 C22.4002067,20.7097587 22.7609097,20.0938345 23.895723,26.1476227 C24.9041317,31.5270918 23.3093125,37.1312174 22.7609097,38.1788802 C17.3177027,38.4747194 7.55524438,39.3951483 6.31953821,36.7501818 C5.08383204,34.1052152 7.93150997,22.3178742 8.69908251,20.0938345 C9.79319806,16.9236371 12.8803394,13.719303 15.6177468,13.719303 Z" id="Path-45" stroke="#0055B9" stroke-width="1.2"></path>
                                    <path d="M13.8572377,9.04081588 C13.0737117,9.42405155 12.6819486,9.72110627 12.6819486,9.93198003 C12.6819486,10.1428538 12.6819486,10.4126079 12.6819486,10.7412423 L12.3386857,11.3266224 C12.3386857,12.1093543 12.5917777,12.5007203 13.0979617,12.5007203 C13.6041457,12.5007203 13.7250688,12.9009011 13.460731,13.7012629 L13.460731,15.9341798 C15.0449586,15.5796997 15.8370724,15.1189268 15.8370724,14.5518613 C15.8370724,13.9847957 15.8370724,13.4790923 15.8370724,13.0347512 C15.2261183,13.0720649 15.0147789,12.8896471 15.2030542,12.4874979 C15.3913294,12.0853486 15.7003233,11.6983901 16.1300359,11.3266224 C16.0452493,10.936369 15.9475948,10.7412423 15.8370724,10.7412423 C15.7265499,10.7412423 15.5152105,10.936369 15.2030542,11.3266224 L15.2030542,9.93198003 C14.7197382,10.0395698 14.3968404,10.0395698 14.2343608,9.93198003 C14.0718811,9.82439029 13.9461734,9.52733557 13.8572377,9.04081588 Z" id="Path-42" fill="#F6C5C1" transform="translate(14.234361, 12.487498) rotate(-28.000000) translate(-14.234361, -12.487498) "></path>
                                    <path d="M38.492852,4.33557449 C40.089448,4.33557449 40.5985625,4.54622006 40.089448,5.88729343 C39.5803335,7.2283668 38.492852,6.93831557 38.492852,8.39132886 C38.492852,9.84434215 38.1092578,11.569761 36.5256467,11.569761 C34.9420356,11.569761 31.114209,12.7090116 29.227077,11.569761 C27.3399449,10.4305103 27.1170383,9.29125967 23.903287,10.4305103 C20.6895358,11.569761 21.9306764,18.3102698 16.711633,16.4547421 C11.4925895,14.5992144 13.289856,9.96565635 13.9255728,8.39132886 C14.5612896,6.81700137 15.2748519,5.88729343 17.2334006,5.88729343 C19.1919494,5.88729343 19.9715816,7.43901237 22.47333,5.88729343 C24.9750785,4.33557449 27.3210087,2.78385555 29.227077,4.33557449 C31.1331453,5.88729343 33.5153249,6.64109577 34.3301244,5.88729343 C35.144924,5.13349109 36.8962561,4.33557449 38.492852,4.33557449 Z" id="Path-64" fill="#000000" transform="translate(26.693016, 10.234374) scale(-1, 1) rotate(17.000000) translate(-26.693016, -10.234374) "></path>
                                </g>
                            </g>
                        </g>
                        <g id="分组-4" transform="translate(54.844544, 30.916045) rotate(-23.000000) translate(-54.844544, -30.916045) translate(24.344544, 10.916045)">
                            <polygon id="Rectangle-22" fill="url(#linearGradient-4)" points="16.326732 0.172193385 60.596223 0.0396105529 60.596223 33.952654 16.326732 34.0852369"></polygon>
                            <circle id="椭圆形" fill="#8CC1FF" fill-rule="nonzero" cx="27.1390426" cy="10.2317408" r="6"></circle>
                            <path d="M21.9627397,19.672568 L52.6670317,19.5490781 C53.2888426,19.5465772 53.7949473,20.0486272 53.7974482,20.6704382 C53.7974543,20.6719476 53.7974573,20.673457 53.7974573,20.6749664 L53.7974573,20.6749664 C53.7974573,21.3000224 53.2920826,21.8074337 52.6670317,21.8099476 L21.9627397,21.9334375 C21.3409287,21.9359384 20.834824,21.4338884 20.8323232,20.8120774 C20.8323171,20.810568 20.8323141,20.8090586 20.8323141,20.8075492 L20.8323141,20.8075492 C20.8323141,20.1824932 21.3376888,19.6750819 21.9627397,19.672568 Z" id="矩形" fill="#4C98F0" fill-rule="nonzero"></path>
                            <path d="M21.9627397,24.1943071 L52.6670317,24.0708172 C53.2888426,24.0683163 53.7949473,24.5703663 53.7974482,25.1921773 C53.7974543,25.1936867 53.7974573,25.1951961 53.7974573,25.1967055 L53.7974573,25.1967055 C53.7974573,25.8217615 53.2920826,26.3291729 52.6670317,26.3316868 L21.9627397,26.4551767 C21.3409287,26.4576775 20.834824,25.9556275 20.8323232,25.3338166 C20.8323171,25.3323072 20.8323141,25.3307978 20.8323141,25.3292883 L20.8323141,25.3292883 C20.8323141,24.7042324 21.3376888,24.196821 21.9627397,24.1943071 Z" id="矩形" fill="#4C98F0" fill-rule="nonzero"></path>
                            <path d="M10.1300541,30.660642 C12.6540492,31.2393397 14.280855,31.0915804 15.0104716,30.217364 C16.1048964,28.9060395 18.1413618,25.0143835 18.9194269,22.4369809 C19.6974919,19.8595784 19.0410763,17.5891314 19.3739529,16.7334873 C19.7068295,15.8778431 20.6923114,15.5827792 21.1382924,16.7334873 C21.5842734,17.8841954 21.512996,23.6740608 21.1382924,25.2760942 C20.7635888,26.8781275 19.3623587,32.9784995 16.599909,35.3398076 C14.7582759,36.9140129 11.8236638,37.5364221 7.79607269,37.2070351 C6.46040107,36.4080533 6.04688572,35.1108078 6.55552662,33.3152986 C7.06416752,31.5197894 8.25567667,30.6349038 10.1300541,30.660642 Z" id="Path-44" fill="#B5D3FF" transform="translate(13.895869, 26.634804) scale(-1, -1) rotate(-127.000000) translate(-13.895869, -26.634804) "></path>
                            <path d="M25.2809543,23.8805396 C25.5135699,23.8805396 26.1178128,23.8805396 27.093683,23.8805396 C28.5574883,23.8805396 28.5574883,23.9591985 28.5574883,24.7871869 C28.5574883,25.3391791 27.4653103,25.6151752 25.2809543,25.6151752 L25.2809543,23.8805396 Z" id="Path-20" fill="#F6C5C1" transform="translate(26.919221, 24.747857) scale(-1, 1) rotate(-134.000000) translate(-26.919221, -24.747857) "></path>
                        </g>
                    </g>
                    <g id="dingzhi" transform="translate(112.000000, 63.000000)">
                        <path d="M41.9478794,6.55713425 L36.4080987,1.04295054 C34.9877686,-0.370979114 32.8214725,-0.335669317 31.4009641,1.07831948 L28.6666667,3.79989453 L39.2491155,14.3333333 L41.9478794,11.6468315 C43.3683878,10.1977695 43.3329137,7.97082732 41.9478794,6.55713425 Z" id="路径" fill="#0165FF"></path>
                        <path d="M3.01030602,29.5098039 C2.47738592,30.3380539 1.76684561,33.9521668 0.843137255,40.0884483 L0.843137255,40.1637266 C0.843137255,40.9166982 1.09185312,41.6696699 1.55367757,42.2344145 C1.98001365,42.799159 2.79713798,43.0627274 3.47218992,42.9873861 L3.54322612,42.9873861 C9.1205485,42.0461873 12.4599037,41.2932156 13.4901961,40.6531928 L3.01030602,29.5098039 Z" id="路径" fill="#0165FF"></path>
                        <polygon id="路径" fill="#0165FF" points="37.4338067 16.5934761 26.6356467 5.90196078 3.37254902 28.9356955 14.1707697 39.627451 37.9411765 16.0914089"></polygon>
                        <path d="M11.7213032,1.07447778 C10.2903231,-0.358159261 8.10829677,-0.358159261 6.67731659,1.07447778 L1.0251065,6.76906921 C-0.405873678,8.20146654 -0.298547171,10.3146451 1.09663755,11.7472822 L2.95692376,13.6094826 L8.68048533,7.87935393 C8.85090282,7.70730085 9.08261554,7.6106371 9.32438451,7.6106371 C9.56615347,7.6106371 9.79816549,7.70730085 9.96834354,7.87935393 C10.1399582,8.04978896 10.23657,8.28176997 10.23657,8.52381887 C10.23657,8.76610748 10.1399582,8.99808849 9.96834354,9.16852352 L4.2446024,14.8988919 L6.42686813,17.0836844 L12.1503698,11.353316 C12.3208472,11.1812629 12.5525599,11.0845992 12.7943289,11.0845992 C13.0363373,11.0845992 13.26805,11.1812629 13.4382879,11.353316 C13.610142,11.523751 13.706694,11.755732 13.706694,11.9980206 C13.706694,12.2400695 13.610142,12.4720505 13.4382879,12.6424856 L7.71454677,18.372854 L9.57483297,20.2352941 L20.2352941,9.56248972 L11.7213032,1.07447778 Z" id="路径" fill="#BBBBBB"></path>
                        <path d="M41.970382,31.2150707 L33.4825436,22.7647059 L22.7647059,33.4352245 L23.4840469,34.1511499 L29.2385942,28.4222485 C29.4097484,28.2504719 29.6427082,28.1538288 29.8857784,28.1538288 C30.1290894,28.1538288 30.3620492,28.2504719 30.5332034,28.4222485 C30.7059824,28.592647 30.803054,28.824818 30.803054,29.066815 C30.803054,29.3088121 30.7059824,29.5409831 30.5332034,29.7113816 L24.7788968,35.4402831 L27.5121879,38.1615068 L33.2667352,32.4326053 C33.4378894,32.2607688 33.6708492,32.1638861 33.9139195,32.1638861 C34.1572304,32.1638861 34.3901902,32.2607688 34.5613444,32.4326053 C34.7341234,32.6029439 34.8311951,32.8351149 34.8311951,33.077112 C34.8311951,33.3191689 34.7341234,33.5511003 34.5613444,33.7216785 L28.8069776,39.45058 L31.2887732,41.9214185 C32.7272145,43.3535091 34.9209848,43.3535091 36.3237388,41.9571878 L42.0063702,36.2638759 C43.3011599,34.9031443 43.3731361,32.5400331 41.970382,31.2150707 Z" id="路径" fill="#BBBBBB"></path>
                    </g>
                </g>
            </g>
        </g>
    </g>
</svg>