<?xml version="1.0" encoding="UTF-8"?>
<svg width="692px" height="436px" viewBox="0 0 692 436" version="1.1" xmlns="http://www.w3.org/2000/svg" xmlns:xlink="http://www.w3.org/1999/xlink">
    <!-- Generator: Sketch 52.4 (67378) - http://www.bohemiancoding.com/sketch -->
    <title>分组 49</title>
    <desc>Created with Sketch.</desc>
    <defs>
        <linearGradient x1="50%" y1="0%" x2="50%" y2="100%" id="linearGradient-1">
            <stop stop-color="#B4D2FF" offset="0%"></stop>
            <stop stop-color="#1164E3" offset="100%"></stop>
        </linearGradient>
        <linearGradient x1="50%" y1="0%" x2="50%" y2="100%" id="linearGradient-2">
            <stop stop-color="#5A9BFF" offset="0%"></stop>
            <stop stop-color="#1164E3" offset="100%"></stop>
        </linearGradient>
        <linearGradient x1="50%" y1="0%" x2="50%" y2="100%" id="linearGradient-3">
            <stop stop-color="#3D84F1" offset="0%"></stop>
            <stop stop-color="#1164E3" offset="100%"></stop>
        </linearGradient>
        <linearGradient x1="50%" y1="0%" x2="50%" y2="113.908335%" id="linearGradient-4">
            <stop stop-color="#92BDFF" offset="0%"></stop>
            <stop stop-color="#88B7FF" stop-opacity="0.648267663" offset="100%"></stop>
        </linearGradient>
        <linearGradient x1="50%" y1="0%" x2="50%" y2="116.450385%" id="linearGradient-5">
            <stop stop-color="#3E85F1" offset="0%"></stop>
            <stop stop-color="#FFFFFF" offset="100%"></stop>
        </linearGradient>
        <linearGradient x1="50%" y1="0%" x2="50%" y2="100%" id="linearGradient-6">
            <stop stop-color="#1164E3" offset="0%"></stop>
            <stop stop-color="#ACD7FA" offset="100%"></stop>
        </linearGradient>
        <linearGradient x1="50%" y1="0%" x2="50%" y2="100%" id="linearGradient-7">
            <stop stop-color="#3E85F1" offset="0%"></stop>
            <stop stop-color="#FFFFFF" offset="100%"></stop>
        </linearGradient>
        <linearGradient x1="50%" y1="0%" x2="50%" y2="100%" id="linearGradient-8">
            <stop stop-color="#1164E3" offset="0%"></stop>
            <stop stop-color="#FFFFFF" offset="100%"></stop>
        </linearGradient>
        <linearGradient x1="50%" y1="0%" x2="50%" y2="100%" id="linearGradient-9">
            <stop stop-color="#448AF3" offset="0%"></stop>
            <stop stop-color="#1164E3" offset="100%"></stop>
        </linearGradient>
        <linearGradient x1="50%" y1="0%" x2="50%" y2="88.2306592%" id="linearGradient-10">
            <stop stop-color="#A5CAFF" offset="0%"></stop>
            <stop stop-color="#74ABFF" offset="100%"></stop>
        </linearGradient>
        <linearGradient x1="57.3004645%" y1="33.652674%" x2="57.3004645%" y2="100%" id="linearGradient-11">
            <stop stop-color="#C0D9F9" offset="0%"></stop>
            <stop stop-color="#DFEDFF" offset="100%"></stop>
        </linearGradient>
        <linearGradient x1="-4.38269109%" y1="66.1727519%" x2="50%" y2="94.58916%" id="linearGradient-12">
            <stop stop-color="#A9D9FF" offset="0%"></stop>
            <stop stop-color="#70B2FF" offset="100%"></stop>
        </linearGradient>
        <linearGradient x1="100%" y1="64.3961881%" x2="-3.6771318%" y2="71.9396523%" id="linearGradient-13">
            <stop stop-color="#FBE18F" offset="0%"></stop>
            <stop stop-color="#F5BF56" offset="100%"></stop>
        </linearGradient>
        <linearGradient x1="49.0998884%" y1="-41.6455078%" x2="49.0998884%" y2="50%" id="linearGradient-14">
            <stop stop-color="#ABCFFF" offset="0%"></stop>
            <stop stop-color="#F3FBFF" offset="100%"></stop>
        </linearGradient>
        <path d="M40.3837278,5.74101668 L208.000594,5.74101668 C221.807713,5.74101668 233.000594,16.9338979 233.000594,30.7410167 L233.000594,293.648118 C233.000594,307.455236 221.807713,318.648118 208.000594,318.648118 L40.5153668,318.648116 C26.7082489,318.648116 15.5153683,307.455236 15.5153683,293.648118 C15.5153683,293.607291 15.5154683,293.566464 15.5156683,293.525638 C15.8614814,222.940573 15.8175013,184.568184 15.3837278,178.408474 C14.901012,171.553766 11.2099216,165.885741 4.31045669,161.404398 C11.6926375,157.71694 15.3837278,152.214048 15.3837278,144.895721 C15.3837278,106.844153 15.3837278,68.7925847 15.3837278,30.7410167 L15.3837278,30.7410167 C15.3837278,16.9338979 26.5766091,5.74101668 40.3837278,5.74101668 Z" id="path-15"></path>
        <filter x="-13.6%" y="-9.3%" width="127.1%" height="119.8%" filterUnits="objectBoundingBox" id="filter-16">
            <feOffset dx="0" dy="2" in="SourceAlpha" result="shadowOffsetOuter1"></feOffset>
            <feGaussianBlur stdDeviation="10" in="shadowOffsetOuter1" result="shadowBlurOuter1"></feGaussianBlur>
            <feColorMatrix values="0 0 0 0 0.4   0 0 0 0 0.4   0 0 0 0 0.4  0 0 0 0.0240036232 0" type="matrix" in="shadowBlurOuter1"></feColorMatrix>
        </filter>
        <linearGradient x1="50%" y1="0%" x2="50%" y2="100%" id="linearGradient-17">
            <stop stop-color="#55C5FF" offset="0%"></stop>
            <stop stop-color="#00E1FF" offset="100%"></stop>
        </linearGradient>
        <path d="M36.8525417,3.82465601e-12 L214.74161,1.53477231e-12 C228.548729,1.37281458e-12 239.74161,11.1928813 239.74161,25 L239.741611,298.179304 C239.741611,311.986423 228.548729,323.179304 214.741611,323.179304 L36.9791628,323.179306 C23.1720431,323.179306 11.9791611,311.986424 11.9791611,298.179304 C11.9791611,298.139877 11.9792544,298.100451 11.9794409,298.061025 C12.3307113,223.815472 12.2884116,183.597954 11.8525417,177.408474 C11.3698259,170.553766 7.67873548,164.885741 0.779270558,160.404398 C8.16145132,156.71694 11.8525417,151.214048 11.8525417,143.895721 C11.8525417,104.263814 11.8525417,64.6319069 11.8525417,25 L11.8525417,25 C11.8525417,11.1928813 23.045423,5.16967897e-12 36.8525417,5.01998443e-12 Z" id="path-18"></path>
        <filter x="-13.0%" y="-9.0%" width="125.9%" height="119.2%" filterUnits="objectBoundingBox" id="filter-19">
            <feOffset dx="0" dy="2" in="SourceAlpha" result="shadowOffsetOuter1"></feOffset>
            <feMorphology radius="1.4" operator="erode" in="SourceAlpha" result="shadowInner"></feMorphology>
            <feOffset dx="0" dy="2" in="shadowInner" result="shadowInner"></feOffset>
            <feComposite in="shadowOffsetOuter1" in2="shadowInner" operator="out" result="shadowOffsetOuter1"></feComposite>
            <feGaussianBlur stdDeviation="10" in="shadowOffsetOuter1" result="shadowBlurOuter1"></feGaussianBlur>
            <feColorMatrix values="0 0 0 0 0.4   0 0 0 0 0.4   0 0 0 0 0.4  0 0 0 0.0240036232 0" type="matrix" in="shadowBlurOuter1"></feColorMatrix>
        </filter>
        <circle id="path-20" cx="19.7542362" cy="19.7542362" r="19.7542362"></circle>
        <circle id="path-22" cx="19.8342128" cy="19.8342128" r="19.8342128"></circle>
        <circle id="path-24" cx="19.8342128" cy="19.8342128" r="19.8342128"></circle>
        <circle id="path-26" cx="19.8342128" cy="19.8342128" r="19.8342128"></circle>
        <linearGradient x1="123.548441%" y1="34.2512113%" x2="-11.0596202%" y2="90.4231978%" id="linearGradient-28">
            <stop stop-color="#00B3FF" offset="0%"></stop>
            <stop stop-color="#00FFFC" offset="100%"></stop>
        </linearGradient>
        <linearGradient x1="50%" y1="0%" x2="50%" y2="100%" id="linearGradient-29">
            <stop stop-color="#A8D3FF" offset="0%"></stop>
            <stop stop-color="#B6E1FF" offset="100%"></stop>
        </linearGradient>
        <linearGradient x1="74.0484893%" y1="-14.4286159%" x2="29.8481514%" y2="100%" id="linearGradient-30">
            <stop stop-color="#87F5FF" offset="0%"></stop>
            <stop stop-color="#22C4E7" offset="100%"></stop>
        </linearGradient>
        <linearGradient x1="33.923077%" y1="-20.2258026%" x2="50%" y2="100%" id="linearGradient-31">
            <stop stop-color="#4D98F7" offset="0%"></stop>
            <stop stop-color="#0367FD" offset="100%"></stop>
        </linearGradient>
    </defs>
    <g id="页面-1" stroke="none" stroke-width="1" fill="none" fill-rule="evenodd">
        <g id="缴费率不高" transform="translate(-620.000000, -330.000000)">
            <g id="分组-49" transform="translate(620.000000, 330.000000)">
                <g id="分组-48" transform="translate(0.414330, 0.000000)" fill-rule="nonzero">
                    <path d="M9.36195992e-18,222.321156 C60.043358,246.298688 97.8119892,249.540922 113.305894,232.047859 C114.915254,230.230844 152.502116,215.337571 154.205045,213.534005 C223.865037,139.757347 255.171029,0.70528171 349.02776,0.70528171 C478.313192,0.70528171 621.537584,21.0731556 612.947839,91.3967446 C604.358095,161.720334 628.95899,190.420677 661.537584,196.537011 C694.116177,202.653345 712.834925,252.621048 643.925788,314.260202 C575.01665,375.899357 528.795265,428.794588 496.479793,432.961773 C445.393566,439.549507 407.573947,394.684841 365.004154,394.684841 C322.434362,394.684841 316.094214,410.768119 270.149629,428.054443 C239.519906,439.578658 197.538378,431.1677 144.205045,402.821568 C54.1836352,351.914284 6.11528693,291.747479 9.36195992e-18,222.321156 Z" id="路径-2" fill="#DFF4FF" transform="translate(345.395358, 217.163756) scale(-1, 1) translate(-345.395358, -217.163756) "></path>
                    <path d="M0.0480865808,218.318445 C2.6216753,115.040483 219.790414,0.70528171 349.075847,0.70528171 C478.361279,0.70528171 621.58567,20.7052817 612.995926,89.7587226 C604.406181,158.812164 629.007077,186.994136 661.58567,193 C694.164263,199.005864 712.883012,248.071077 643.973874,308.596937 C575.064737,369.122797 494.178389,406.304033 461.862916,410.395952 C410.776689,416.864702 384.98699,382.769996 342.417198,382.769996 C299.847406,382.769996 287.054229,391.185409 246.366047,420.02933 C205.677866,448.873252 129.179445,437.559706 114.088313,387.568988 C98.9971815,337.57827 -2.52550214,321.596407 0.0480865808,218.318445 Z" id="路径-2" fill="#F3FBFF"></path>
                </g>
                <g id="分组-2" opacity="0.254710751" transform="translate(92.963745, 94.440201)">
                    <g id="分组-15">
                        <g id="Group-22" transform="translate(0.000000, 17.085932)">
                            <g id="分组-47" opacity="0.408528646" transform="translate(372.077462, 0.000000)">
                                <g id="Group-20">
                                    <g id="Group-19" transform="translate(0.000000, 17.564281)" fill="url(#linearGradient-1)">
                                        <polygon id="Path-31" points="0.0785075111 184.020704 0.0785075111 38.4915435 11.8780194 38.4915435 11.8780194 20.5631582 21.694799 20.5631582 21.694799 0.240053849 27.6313032 0.240053849 27.6313032 20.5631582 34.9809425 20.5631582 34.9809425 12.1249017 42.5276858 12.1249017 42.5276858 20.5631582 49.8422473 20.5631582 49.8422473 184.020704"></polygon>
                                    </g>
                                    <polygon id="Path-32" fill="url(#linearGradient-2)" points="49.5081728 0.604629067 72.4273549 0.604629067 72.4273549 26.005236 81.7096154 26.005236 78.699604 201.301285 49.5081728 201.301285"></polygon>
                                </g>
                                <polygon id="Path-35" fill="url(#linearGradient-3)" points="72.6593248 70.9946473 105.714563 70.9946473 105.714563 89.0372854 114.531423 89.0372854 114.531423 201.905057 72.6593248 201.905057"></polygon>
                                <polygon id="Path-35" fill="url(#linearGradient-4)" transform="translate(73.069836, 136.449852) scale(-1, 1) translate(-73.069836, -136.449852) " points="58.7019588 70.9946473 78.670247 70.9946473 78.670247 89.0372854 87.4377123 89.0372854 87.4377123 201.905057 58.7019588 201.905057"></polygon>
                                <g id="Group-16" opacity="0.875305302" transform="translate(107.981418, 67.186332)">
                                    <polygon id="Path-38" fill="url(#linearGradient-5)" points="0.198650252 151.917215 0.198650252 10.7477718 8.47300785 0.179738399 15.7754568 10.7477718 15.7754568 151.917215"></polygon>
                                    <polygon id="Path-39" fill="#82B3FF" points="8.45720613 0.22476433 28.0086594 0.105943366 35.2992058 10.6330607 15.668436 10.6330607"></polygon>
                                    <polygon id="Rectangle-8" fill="url(#linearGradient-6)" points="15.5505387 10.5766184 35.3039258 10.5766184 35.3039258 151.908904 15.5505387 151.908904"></polygon>
                                </g>
                            </g>
                            <g id="Group-16" opacity="0.675668025" transform="translate(0.477767, 37.623073)">
                                <polygon id="Path-38" fill="url(#linearGradient-7)" points="0.228972983 175.106437 0.228972983 12.3883526 9.76636003 0.207174353 18.1834826 12.3883526 18.1834826 175.106437"></polygon>
                                <polygon id="Path-39" fill="#82B3FF" points="9.74814627 0.259073213 32.2840079 0.122114964 40.6874109 12.2561316 18.0601257 12.2561316"></polygon>
                                <polygon id="Rectangle-8" fill="url(#linearGradient-8)" points="17.9242322 12.1910738 40.6928514 12.1910738 40.6928514 175.096857 17.9242322 175.096857"></polygon>
                            </g>
                        </g>
                        <g id="分组-37" transform="translate(133.906565, 0.526448)" fill-rule="nonzero">
                            <polygon id="路径-15" fill="url(#linearGradient-9)" opacity="0.281691778" points="0.261046362 231.461471 0.261046362 53.4386884 20.9343031 53.4386884 20.9343031 32.6231169 52.0987225 32.6231169 52.0987225 231.461471"></polygon>
                            <polygon id="路径-16" fill="url(#linearGradient-10)" opacity="0.913364955" points="49.1352425 32.7590054 90.1037284 32.7590054 90.1037284 235.869531 49.1352425 235.869531"></polygon>
                            <polygon id="路径-17" fill="url(#linearGradient-11)" points="70.8736228 236.59258 70.8736228 1.09122947e-11 108.008537 1.09122947e-11 108.008537 28.5459204 132.744398 28.5459204 132.744398 236.59258"></polygon>
                            <polygon id="矩形" fill="#82B4FF" opacity="0.456612723" points="81.7428129 37.63905 85.9232707 37.63905 85.9232707 198.494959 81.7428129 198.494959"></polygon>
                            <polygon id="矩形" fill="#82B4FF" opacity="0.456612723" points="94.005489 37.63905 98.1859468 37.63905 98.1859468 198.494959 94.005489 198.494959"></polygon>
                            <polygon id="矩形" fill="#82B4FF" opacity="0.456612723" points="106.268165 37.63905 110.448623 37.63905 110.448623 198.494959 106.268165 198.494959"></polygon>
                            <polygon id="矩形" fill="#82B4FF" opacity="0.456612723" points="118.530841 37.63905 122.711299 37.63905 122.711299 198.494959 118.530841 198.494959"></polygon>
                        </g>
                    </g>
                </g>
                <g id="分组-8" transform="translate(438.751889, 194.463476) scale(-1, 1) translate(-438.751889, -194.463476) translate(244.251889, 88.463476)" fill-rule="nonzero">
                    <path d="M39.4254232,83.5493384 C14.2710467,92.1393173 3.38050029,108.482337 6.75378397,132.578397 C11.8137095,168.722487 62.5567645,180.686988 107.488905,166.692032 C152.421046,152.697077 168.956692,120.529091 226.769555,99.7655206 C284.582418,79.0019503 318.531035,99.7655206 343.036365,123.29853" id="路径-53" stroke="url(#linearGradient-12)" stroke-linecap="round" stroke-dasharray="3" transform="translate(174.595916, 127.967660) rotate(-14.000000) translate(-174.595916, -127.967660) "></path>
                    <g id="分组-51" transform="translate(323.157614, 69.969642)">
                        <polygon id="路径-54" fill="url(#linearGradient-13)" points="0.191828032 20.6661022 33.0104606 28.9628249 18.6381142 0.216207514 12.1204521 6.56962891 23.4894974 21.6690064 5.83375348 12.43931"></polygon>
                        <polygon id="路径-55" fill="#DB8D0C" points="12.1572619 6.56962891 12.051163 11.6989437 24.1414615 22.108341"></polygon>
                        <polygon id="路径-56" fill="#FFA300" points="5.87657797 12.4800494 12.051163 11.6989437 24.1414615 22.108341"></polygon>
                    </g>
                    <g id="分组-51" transform="translate(367.906201, 18.878286) rotate(-16.000000) translate(-367.906201, -18.878286) translate(351.153647, 4.096621)">
                        <polygon id="路径-54" fill="url(#linearGradient-13)" points="0.191828032 20.6661022 33.0104606 28.9628249 18.6381142 0.216207514 12.1204521 6.56962891 23.4894974 21.6690064 5.83375348 12.43931"></polygon>
                        <polygon id="路径-55" fill="#DB8D0C" points="12.1572619 6.56962891 12.051163 11.6989437 24.1414615 22.108341"></polygon>
                        <polygon id="路径-56" fill="#FFA300" points="5.87657797 12.4800494 12.051163 11.6989437 24.1414615 22.108341"></polygon>
                    </g>
                    <path d="M216.361104,64.4809951 C235.617554,32.6259428 259.139105,13.1302947 286.925756,5.99405074 C314.712407,-1.14219318 340.222,2.15145786 363.454535,15.8750038" id="路径-3" stroke="#70B2FF" stroke-linecap="round" stroke-dasharray="3"></path>
                </g>
                <ellipse id="椭圆形" fill="url(#linearGradient-14)" fill-rule="nonzero" cx="340.275014" cy="326.108803" rx="269.032699" ry="33.443662"></ellipse>
                <g id="分组-3" transform="translate(346.118388, 35.856423)">
                    <g id="分组-7">
                        <g id="矩形" fill-rule="nonzero">
                            <use fill="black" fill-opacity="1" filter="url(#filter-16)" xlink:href="#path-15"></use>
                            <use fill="#FFFFFF" xlink:href="#path-15"></use>
                        </g>
                        <g id="weixin-color-(1)" transform="translate(116.245481, 21.298482)" fill="#41B035">
                            <path d="M26.6361314,14.3955064 C26.6361314,10.7992354 23.136139,7.84509468 19.1362128,7.84509468 C15.0111241,7.84509468 11.6361314,10.7992354 11.6361314,14.3955064 C11.6361314,17.9918109 14.8861244,20.9459182 19.1362128,20.9459182 C20.0111458,20.9459182 20.8861113,20.6890393 21.7610769,20.4321939 L24.1361043,21.8450947 L23.5111382,19.5331512 C25.2611995,18.1202504 26.6361314,16.322165 26.6361314,14.3955064 Z M16.7611854,13.2396183 C16.2611865,13.2396183 15.8862198,12.8543 15.8862198,12.3405756 C15.8862198,11.9551235 16.3861862,11.4413992 16.7611854,11.4413992 C17.3861515,11.4413992 17.8861178,11.8266841 17.8861178,12.3405756 C17.8861178,12.7258605 17.3861515,13.2396183 16.7611854,13.2396183 Z M21.51111,13.2396183 C21.1361108,13.2396183 20.6361444,12.8543 20.6361444,12.3405756 C20.6361444,11.9551235 21.1361108,11.4413992 21.51111,11.4413992 C22.1362063,11.4413992 22.6361726,11.8266841 22.6361726,12.3405756 C22.6361726,12.7258605 22.261206,13.2396183 21.51111,13.2396183 Z" id="Fill-1"></path>
                            <path d="M9.44733695,0.845094681 C4.53818943,0.845094681 0.636131409,4.09509468 0.636131409,8.34502958 C0.636131409,10.7200621 2.02067871,12.7201272 4.16060051,14.2200621 L3.27951602,16.8450947 L6.42636343,15.3451272 C7.55916294,15.5951272 8.44024744,15.8451272 9.57321085,15.8451272 L10.4542953,15.8451272 C10.3284215,15.2201598 10.2025476,14.5950296 10.2025476,13.9700621 C10.2025476,10.0950947 13.4752689,6.97009468 17.7549158,6.97009468 L18.6361314,6.97009468 C17.6290419,3.47012723 13.8528578,0.845094681 9.44733695,0.845094681 Z M6.67807845,6.72009468 C6.04874174,6.72009468 5.29340003,6.34512723 5.29340003,5.59515978 C5.29340003,4.97006213 5.92286785,4.47006213 6.67807845,4.47006213 C7.30744793,4.47006213 7.81091074,4.84506213 7.81091074,5.59515978 C7.68503684,6.34512723 7.30744793,6.72009468 6.67807845,6.72009468 Z M12.8458994,6.72009468 C12.2165627,6.72009468 11.461221,6.34512723 11.461221,5.59515978 C11.461221,4.97006213 12.0906888,4.47006213 12.8458994,4.47006213 C13.4752689,4.47006213 13.9787317,4.84506213 13.9787317,5.59515978 C13.9787317,6.34512723 13.4752689,6.72009468 12.8458994,6.72009468 Z" id="Fill-2"></path>
                        </g>
                        <g id="weixin-color-(1)" transform="translate(116.245481, 93.298482)" fill="#41B035">
                            <path d="M26.6361314,14.3955064 C26.6361314,10.7992354 23.136139,7.84509468 19.1362128,7.84509468 C15.0111241,7.84509468 11.6361314,10.7992354 11.6361314,14.3955064 C11.6361314,17.9918109 14.8861244,20.9459182 19.1362128,20.9459182 C20.0111458,20.9459182 20.8861113,20.6890393 21.7610769,20.4321939 L24.1361043,21.8450947 L23.5111382,19.5331512 C25.2611995,18.1202504 26.6361314,16.322165 26.6361314,14.3955064 Z M16.7611854,13.2396183 C16.2611865,13.2396183 15.8862198,12.8543 15.8862198,12.3405756 C15.8862198,11.9551235 16.3861862,11.4413992 16.7611854,11.4413992 C17.3861515,11.4413992 17.8861178,11.8266841 17.8861178,12.3405756 C17.8861178,12.7258605 17.3861515,13.2396183 16.7611854,13.2396183 Z M21.51111,13.2396183 C21.1361108,13.2396183 20.6361444,12.8543 20.6361444,12.3405756 C20.6361444,11.9551235 21.1361108,11.4413992 21.51111,11.4413992 C22.1362063,11.4413992 22.6361726,11.8266841 22.6361726,12.3405756 C22.6361726,12.7258605 22.261206,13.2396183 21.51111,13.2396183 Z" id="Fill-1"></path>
                            <path d="M9.44733695,0.845094681 C4.53818943,0.845094681 0.636131409,4.09509468 0.636131409,8.34502958 C0.636131409,10.7200621 2.02067871,12.7201272 4.16060051,14.2200621 L3.27951602,16.8450947 L6.42636343,15.3451272 C7.55916294,15.5951272 8.44024744,15.8451272 9.57321085,15.8451272 L10.4542953,15.8451272 C10.3284215,15.2201598 10.2025476,14.5950296 10.2025476,13.9700621 C10.2025476,10.0950947 13.4752689,6.97009468 17.7549158,6.97009468 L18.6361314,6.97009468 C17.6290419,3.47012723 13.8528578,0.845094681 9.44733695,0.845094681 Z M6.67807845,6.72009468 C6.04874174,6.72009468 5.29340003,6.34512723 5.29340003,5.59515978 C5.29340003,4.97006213 5.92286785,4.47006213 6.67807845,4.47006213 C7.30744793,4.47006213 7.81091074,4.84506213 7.81091074,5.59515978 C7.68503684,6.34512723 7.30744793,6.72009468 6.67807845,6.72009468 Z M12.8458994,6.72009468 C12.2165627,6.72009468 11.461221,6.34512723 11.461221,5.59515978 C11.461221,4.97006213 12.0906888,4.47006213 12.8458994,4.47006213 C13.4752689,4.47006213 13.9787317,4.84506213 13.9787317,5.59515978 C13.9787317,6.34512723 13.4752689,6.72009468 12.8458994,6.72009468 Z" id="Fill-2"></path>
                        </g>
                        <g id="weixin-color-(1)" transform="translate(116.245481, 168.298482)" fill="#41B035">
                            <path d="M26.6361314,14.3955064 C26.6361314,10.7992354 23.136139,7.84509468 19.1362128,7.84509468 C15.0111241,7.84509468 11.6361314,10.7992354 11.6361314,14.3955064 C11.6361314,17.9918109 14.8861244,20.9459182 19.1362128,20.9459182 C20.0111458,20.9459182 20.8861113,20.6890393 21.7610769,20.4321939 L24.1361043,21.8450947 L23.5111382,19.5331512 C25.2611995,18.1202504 26.6361314,16.322165 26.6361314,14.3955064 Z M16.7611854,13.2396183 C16.2611865,13.2396183 15.8862198,12.8543 15.8862198,12.3405756 C15.8862198,11.9551235 16.3861862,11.4413992 16.7611854,11.4413992 C17.3861515,11.4413992 17.8861178,11.8266841 17.8861178,12.3405756 C17.8861178,12.7258605 17.3861515,13.2396183 16.7611854,13.2396183 Z M21.51111,13.2396183 C21.1361108,13.2396183 20.6361444,12.8543 20.6361444,12.3405756 C20.6361444,11.9551235 21.1361108,11.4413992 21.51111,11.4413992 C22.1362063,11.4413992 22.6361726,11.8266841 22.6361726,12.3405756 C22.6361726,12.7258605 22.261206,13.2396183 21.51111,13.2396183 Z" id="Fill-1"></path>
                            <path d="M9.44733695,0.845094681 C4.53818943,0.845094681 0.636131409,4.09509468 0.636131409,8.34502958 C0.636131409,10.7200621 2.02067871,12.7201272 4.16060051,14.2200621 L3.27951602,16.8450947 L6.42636343,15.3451272 C7.55916294,15.5951272 8.44024744,15.8451272 9.57321085,15.8451272 L10.4542953,15.8451272 C10.3284215,15.2201598 10.2025476,14.5950296 10.2025476,13.9700621 C10.2025476,10.0950947 13.4752689,6.97009468 17.7549158,6.97009468 L18.6361314,6.97009468 C17.6290419,3.47012723 13.8528578,0.845094681 9.44733695,0.845094681 Z M6.67807845,6.72009468 C6.04874174,6.72009468 5.29340003,6.34512723 5.29340003,5.59515978 C5.29340003,4.97006213 5.92286785,4.47006213 6.67807845,4.47006213 C7.30744793,4.47006213 7.81091074,4.84506213 7.81091074,5.59515978 C7.68503684,6.34512723 7.30744793,6.72009468 6.67807845,6.72009468 Z M12.8458994,6.72009468 C12.2165627,6.72009468 11.461221,6.34512723 11.461221,5.59515978 C11.461221,4.97006213 12.0906888,4.47006213 12.8458994,4.47006213 C13.4752689,4.47006213 13.9787317,4.84506213 13.9787317,5.59515978 C13.9787317,6.34512723 13.4752689,6.72009468 12.8458994,6.72009468 Z" id="Fill-2"></path>
                        </g>
                        <g id="weixin-color-(1)" transform="translate(116.245481, 242.298482)" fill="#41B035">
                            <path d="M26.6361314,14.3955064 C26.6361314,10.7992354 23.136139,7.84509468 19.1362128,7.84509468 C15.0111241,7.84509468 11.6361314,10.7992354 11.6361314,14.3955064 C11.6361314,17.9918109 14.8861244,20.9459182 19.1362128,20.9459182 C20.0111458,20.9459182 20.8861113,20.6890393 21.7610769,20.4321939 L24.1361043,21.8450947 L23.5111382,19.5331512 C25.2611995,18.1202504 26.6361314,16.322165 26.6361314,14.3955064 Z M16.7611854,13.2396183 C16.2611865,13.2396183 15.8862198,12.8543 15.8862198,12.3405756 C15.8862198,11.9551235 16.3861862,11.4413992 16.7611854,11.4413992 C17.3861515,11.4413992 17.8861178,11.8266841 17.8861178,12.3405756 C17.8861178,12.7258605 17.3861515,13.2396183 16.7611854,13.2396183 Z M21.51111,13.2396183 C21.1361108,13.2396183 20.6361444,12.8543 20.6361444,12.3405756 C20.6361444,11.9551235 21.1361108,11.4413992 21.51111,11.4413992 C22.1362063,11.4413992 22.6361726,11.8266841 22.6361726,12.3405756 C22.6361726,12.7258605 22.261206,13.2396183 21.51111,13.2396183 Z" id="Fill-1"></path>
                            <path d="M9.44733695,0.845094681 C4.53818943,0.845094681 0.636131409,4.09509468 0.636131409,8.34502958 C0.636131409,10.7200621 2.02067871,12.7201272 4.16060051,14.2200621 L3.27951602,16.8450947 L6.42636343,15.3451272 C7.55916294,15.5951272 8.44024744,15.8451272 9.57321085,15.8451272 L10.4542953,15.8451272 C10.3284215,15.2201598 10.2025476,14.5950296 10.2025476,13.9700621 C10.2025476,10.0950947 13.4752689,6.97009468 17.7549158,6.97009468 L18.6361314,6.97009468 C17.6290419,3.47012723 13.8528578,0.845094681 9.44733695,0.845094681 Z M6.67807845,6.72009468 C6.04874174,6.72009468 5.29340003,6.34512723 5.29340003,5.59515978 C5.29340003,4.97006213 5.92286785,4.47006213 6.67807845,4.47006213 C7.30744793,4.47006213 7.81091074,4.84506213 7.81091074,5.59515978 C7.68503684,6.34512723 7.30744793,6.72009468 6.67807845,6.72009468 Z M12.8458994,6.72009468 C12.2165627,6.72009468 11.461221,6.34512723 11.461221,5.59515978 C11.461221,4.97006213 12.0906888,4.47006213 12.8458994,4.47006213 C13.4752689,4.47006213 13.9787317,4.84506213 13.9787317,5.59515978 C13.9787317,6.34512723 13.4752689,6.72009468 12.8458994,6.72009468 Z" id="Fill-2"></path>
                        </g>
                        <g id="矩形" fill-rule="nonzero">
                            <use fill="black" fill-opacity="1" filter="url(#filter-19)" xlink:href="#path-18"></use>
                            <path stroke="url(#linearGradient-17)" stroke-width="1.4" d="M2.14466104,160.479343 C8.58980482,164.970974 12.0754404,170.608877 12.5508124,177.359301 C12.9886715,183.577029 13.0309434,223.768064 12.6794331,298.064337 C12.6792065,298.12182 12.6792065,298.12182 12.6791611,298.179304 C12.6791611,311.599824 23.5586425,322.479306 36.9791628,322.479306 L214.741611,322.479304 C228.16213,322.479304 239.041611,311.599824 239.041611,298.179304 L239.04161,25 C239.04161,11.5794806 228.16213,0.7 214.74161,0.7 L36.8525417,0.7 C23.4320223,0.7 12.5525417,11.5794806 12.5525417,25 C12.5525417,84.4478604 12.5525417,84.4478604 12.5525417,143.895721 C12.5525417,151.131467 9.05794866,156.682941 2.14466104,160.479343 Z" stroke-linejoin="square"></path>
                        </g>
                        <g id="分组-5" transform="translate(36.822946, 23.481402)">
                            <g id="分组-2" transform="translate(0.000000, 0.223681)">
                                <g id="住户">
                                    <mask id="mask-21" fill="white">
                                        <use xlink:href="#path-20"></use>
                                    </mask>
                                    <use id="椭圆形" fill="#006EFF" xlink:href="#path-20"></use>
                                    <ellipse id="椭圆形" fill-opacity="0.86" fill="#FFFFFF" mask="url(#mask-21)" cx="19.4194689" cy="15.508328" rx="7.56692715" ry="7.60663354"></ellipse>
                                    <ellipse id="椭圆形" fill-opacity="0.86" fill="#FFFFFF" mask="url(#mask-21)" cx="19.5114239" cy="39.3404015" rx="14.2436276" ry="14.318369"></ellipse>
                                </g>
                                <text id="住户A" font-family="PingFangSC-Regular, PingFang SC" font-size="12" font-weight="normal" fill="#4A4A4A">
                                    <tspan x="2" y="55">住户</tspan>
                                    <tspan x="26" y="55" font-family="Helvetica">A</tspan>
                                </text>
                            </g>
                            <g id="分组-4" transform="translate(147.727326, 0.236733)">
                                <rect id="矩形" fill="#1E8FFF" fill-rule="nonzero" x="0" y="0" width="33.3214776" height="39.6684257" rx="4"></rect>
                                <path d="M13.291231,16.2892229 L15.427823,16.2892229 L15.427823,14.9218041 L13.291231,14.9218041 C12.3922752,14.9218041 11.9428041,14.6242668 11.9428041,14.0291834 C11.9428041,13.4467613 12.3922752,13.1555547 13.291231,13.1555547 L14.4972185,13.1555547 L11.6579251,8.70194731 C11.4300208,8.34742953 11.2812522,8.09420634 11.2116148,7.94227015 C11.1419774,7.79033395 11.1071592,7.62257359 11.1071592,7.43898403 C11.1071592,7.10978894 11.2068658,6.84548724 11.4062821,6.64607099 C11.6056983,6.44665474 11.8636694,6.34694811 12.1802032,6.34694811 C12.5030676,6.34694811 12.764204,6.44507209 12.9636203,6.64132301 C13.1630365,6.83757392 13.3956853,7.15410291 13.6615736,7.59091946 L16.7287702,12.3958775 L19.4731039,7.86630243 C19.5743947,7.68904354 19.6820146,7.50387408 19.7959667,7.31078851 C19.9099189,7.11770293 20.020704,6.95310786 20.1283255,6.81699835 C20.2359469,6.68088885 20.3704718,6.56852106 20.531904,6.47989161 C20.6933362,6.39126217 20.8848362,6.34694811 21.1064098,6.34694811 C21.4229435,6.34694811 21.6809147,6.44348945 21.8803309,6.63657503 C22.0797472,6.8296606 22.1794538,7.0654747 22.1794538,7.34402438 C22.1794538,7.56559799 22.1398877,7.76817655 22.0607542,7.95176611 C21.9816208,8.13535568 21.8565919,8.36642183 21.6856636,8.64497152 L18.9508259,13.1555547 L20.1568134,13.1555547 C21.0494385,13.1555547 21.4957444,13.4467613 21.4957444,14.0291834 C21.4957444,14.6242668 21.0494385,14.9218041 20.1568134,14.9218041 L18.0107254,14.9218041 L18.0107254,16.2892229 L20.1568134,16.2892229 C21.0494385,16.2892229 21.4957444,16.5867602 21.4957444,17.1818436 C21.4957444,17.7642657 21.0494385,18.0554723 20.1568134,18.0554723 L18.0107254,18.0554723 L18.0107254,18.8151495 C18.0107254,20.1002765 17.5834113,20.7428303 16.7287702,20.7428303 C15.8614677,20.7428303 15.427823,20.1002765 15.427823,18.8151495 L15.427823,18.0554723 L13.291231,18.0554723 C12.3922752,18.0554723 11.9428041,17.7642657 11.9428041,17.1818436 C11.9428041,16.5867602 12.3922752,16.2892229 13.291231,16.2892229 Z" id="¥" fill="#DBEAFF"></path>
                                <rect id="矩形" fill="#DBEAFF" fill-rule="nonzero" x="5.5535796" y="24.5944239" width="22.2143184" height="2.38010554" rx="1.19005277"></rect>
                                <rect id="矩形" fill="#DBEAFF" fill-rule="nonzero" x="5.5535796" y="30.1480035" width="22.2143184" height="2.38010554" rx="1.19005277"></rect>
                            </g>
                            <text id="账单A" font-family="PingFangSC-Regular, PingFang SC" font-size="12" font-weight="normal" fill="#4A4A4A">
                                <tspan x="146.894221" y="55.2555797">账单</tspan>
                                <tspan x="170.894221" y="55.2555797" font-family="Helvetica">A</tspan>
                            </text>
                            <text id="账单B" font-family="PingFangSC-Regular, PingFang SC" font-size="12" font-weight="normal" fill="#4A4A4A">
                                <tspan x="146.894221" y="127.989624">账单</tspan>
                                <tspan x="170.894221" y="127.989624" font-family="Helvetica">B</tspan>
                            </text>
                            <text id="账单C" font-family="PingFangSC-Regular, PingFang SC" font-size="12" font-weight="normal" fill="#4A4A4A">
                                <tspan x="146.894221" y="206.881035">账单</tspan>
                                <tspan x="170.894221" y="206.881035" font-family="Helvetica">C</tspan>
                            </text>
                            <text id="账单D" font-family="PingFangSC-Regular, PingFang SC" font-size="12" font-weight="normal" fill="#4A4A4A">
                                <tspan x="146.894221" y="278.473179">账单</tspan>
                                <tspan x="170.894221" y="278.473179" font-family="Helvetica">D</tspan>
                            </text>
                            <g id="分组-4" transform="translate(147.727326, 72.433267)">
                                <rect id="矩形" fill="#1E8FFF" fill-rule="nonzero" x="0" y="0" width="33.3214776" height="39.6684257" rx="4"></rect>
                                <path d="M13.291231,16.2892229 L15.427823,16.2892229 L15.427823,14.9218041 L13.291231,14.9218041 C12.3922752,14.9218041 11.9428041,14.6242668 11.9428041,14.0291834 C11.9428041,13.4467613 12.3922752,13.1555547 13.291231,13.1555547 L14.4972185,13.1555547 L11.6579251,8.70194731 C11.4300208,8.34742953 11.2812522,8.09420634 11.2116148,7.94227015 C11.1419774,7.79033395 11.1071592,7.62257359 11.1071592,7.43898403 C11.1071592,7.10978894 11.2068658,6.84548724 11.4062821,6.64607099 C11.6056983,6.44665474 11.8636694,6.34694811 12.1802032,6.34694811 C12.5030676,6.34694811 12.764204,6.44507209 12.9636203,6.64132301 C13.1630365,6.83757392 13.3956853,7.15410291 13.6615736,7.59091946 L16.7287702,12.3958775 L19.4731039,7.86630243 C19.5743947,7.68904354 19.6820146,7.50387408 19.7959667,7.31078851 C19.9099189,7.11770293 20.020704,6.95310786 20.1283255,6.81699835 C20.2359469,6.68088885 20.3704718,6.56852106 20.531904,6.47989161 C20.6933362,6.39126217 20.8848362,6.34694811 21.1064098,6.34694811 C21.4229435,6.34694811 21.6809147,6.44348945 21.8803309,6.63657503 C22.0797472,6.8296606 22.1794538,7.0654747 22.1794538,7.34402438 C22.1794538,7.56559799 22.1398877,7.76817655 22.0607542,7.95176611 C21.9816208,8.13535568 21.8565919,8.36642183 21.6856636,8.64497152 L18.9508259,13.1555547 L20.1568134,13.1555547 C21.0494385,13.1555547 21.4957444,13.4467613 21.4957444,14.0291834 C21.4957444,14.6242668 21.0494385,14.9218041 20.1568134,14.9218041 L18.0107254,14.9218041 L18.0107254,16.2892229 L20.1568134,16.2892229 C21.0494385,16.2892229 21.4957444,16.5867602 21.4957444,17.1818436 C21.4957444,17.7642657 21.0494385,18.0554723 20.1568134,18.0554723 L18.0107254,18.0554723 L18.0107254,18.8151495 C18.0107254,20.1002765 17.5834113,20.7428303 16.7287702,20.7428303 C15.8614677,20.7428303 15.427823,20.1002765 15.427823,18.8151495 L15.427823,18.0554723 L13.291231,18.0554723 C12.3922752,18.0554723 11.9428041,17.7642657 11.9428041,17.1818436 C11.9428041,16.5867602 12.3922752,16.2892229 13.291231,16.2892229 Z" id="¥" fill="#DBEAFF"></path>
                                <rect id="矩形" fill="#DBEAFF" fill-rule="nonzero" x="5.5535796" y="24.5944239" width="22.2143184" height="2.38010554" rx="1.19005277"></rect>
                                <rect id="矩形" fill="#DBEAFF" fill-rule="nonzero" x="5.5535796" y="30.1480035" width="22.2143184" height="2.38010554" rx="1.19005277"></rect>
                            </g>
                            <g id="分组-4" transform="translate(147.727326, 151.770119)">
                                <rect id="矩形" fill="#1E8FFF" fill-rule="nonzero" x="0" y="0" width="33.3214776" height="39.6684257" rx="4"></rect>
                                <path d="M13.291231,16.2892229 L15.427823,16.2892229 L15.427823,14.9218041 L13.291231,14.9218041 C12.3922752,14.9218041 11.9428041,14.6242668 11.9428041,14.0291834 C11.9428041,13.4467613 12.3922752,13.1555547 13.291231,13.1555547 L14.4972185,13.1555547 L11.6579251,8.70194731 C11.4300208,8.34742953 11.2812522,8.09420634 11.2116148,7.94227015 C11.1419774,7.79033395 11.1071592,7.62257359 11.1071592,7.43898403 C11.1071592,7.10978894 11.2068658,6.84548724 11.4062821,6.64607099 C11.6056983,6.44665474 11.8636694,6.34694811 12.1802032,6.34694811 C12.5030676,6.34694811 12.764204,6.44507209 12.9636203,6.64132301 C13.1630365,6.83757392 13.3956853,7.15410291 13.6615736,7.59091946 L16.7287702,12.3958775 L19.4731039,7.86630243 C19.5743947,7.68904354 19.6820146,7.50387408 19.7959667,7.31078851 C19.9099189,7.11770293 20.020704,6.95310786 20.1283255,6.81699835 C20.2359469,6.68088885 20.3704718,6.56852106 20.531904,6.47989161 C20.6933362,6.39126217 20.8848362,6.34694811 21.1064098,6.34694811 C21.4229435,6.34694811 21.6809147,6.44348945 21.8803309,6.63657503 C22.0797472,6.8296606 22.1794538,7.0654747 22.1794538,7.34402438 C22.1794538,7.56559799 22.1398877,7.76817655 22.0607542,7.95176611 C21.9816208,8.13535568 21.8565919,8.36642183 21.6856636,8.64497152 L18.9508259,13.1555547 L20.1568134,13.1555547 C21.0494385,13.1555547 21.4957444,13.4467613 21.4957444,14.0291834 C21.4957444,14.6242668 21.0494385,14.9218041 20.1568134,14.9218041 L18.0107254,14.9218041 L18.0107254,16.2892229 L20.1568134,16.2892229 C21.0494385,16.2892229 21.4957444,16.5867602 21.4957444,17.1818436 C21.4957444,17.7642657 21.0494385,18.0554723 20.1568134,18.0554723 L18.0107254,18.0554723 L18.0107254,18.8151495 C18.0107254,20.1002765 17.5834113,20.7428303 16.7287702,20.7428303 C15.8614677,20.7428303 15.427823,20.1002765 15.427823,18.8151495 L15.427823,18.0554723 L13.291231,18.0554723 C12.3922752,18.0554723 11.9428041,17.7642657 11.9428041,17.1818436 C11.9428041,16.5867602 12.3922752,16.2892229 13.291231,16.2892229 Z" id="¥" fill="#DBEAFF"></path>
                                <rect id="矩形" fill="#DBEAFF" fill-rule="nonzero" x="5.5535796" y="24.5944239" width="22.2143184" height="2.38010554" rx="1.19005277"></rect>
                                <rect id="矩形" fill="#DBEAFF" fill-rule="nonzero" x="5.5535796" y="30.1480035" width="22.2143184" height="2.38010554" rx="1.19005277"></rect>
                            </g>
                            <g id="分组-4" transform="translate(147.727326, 223.173285)">
                                <rect id="矩形" fill="#1E8FFF" fill-rule="nonzero" x="0" y="0" width="33.3214776" height="39.6684257" rx="4"></rect>
                                <path d="M13.291231,16.2892229 L15.427823,16.2892229 L15.427823,14.9218041 L13.291231,14.9218041 C12.3922752,14.9218041 11.9428041,14.6242668 11.9428041,14.0291834 C11.9428041,13.4467613 12.3922752,13.1555547 13.291231,13.1555547 L14.4972185,13.1555547 L11.6579251,8.70194731 C11.4300208,8.34742953 11.2812522,8.09420634 11.2116148,7.94227015 C11.1419774,7.79033395 11.1071592,7.62257359 11.1071592,7.43898403 C11.1071592,7.10978894 11.2068658,6.84548724 11.4062821,6.64607099 C11.6056983,6.44665474 11.8636694,6.34694811 12.1802032,6.34694811 C12.5030676,6.34694811 12.764204,6.44507209 12.9636203,6.64132301 C13.1630365,6.83757392 13.3956853,7.15410291 13.6615736,7.59091946 L16.7287702,12.3958775 L19.4731039,7.86630243 C19.5743947,7.68904354 19.6820146,7.50387408 19.7959667,7.31078851 C19.9099189,7.11770293 20.020704,6.95310786 20.1283255,6.81699835 C20.2359469,6.68088885 20.3704718,6.56852106 20.531904,6.47989161 C20.6933362,6.39126217 20.8848362,6.34694811 21.1064098,6.34694811 C21.4229435,6.34694811 21.6809147,6.44348945 21.8803309,6.63657503 C22.0797472,6.8296606 22.1794538,7.0654747 22.1794538,7.34402438 C22.1794538,7.56559799 22.1398877,7.76817655 22.0607542,7.95176611 C21.9816208,8.13535568 21.8565919,8.36642183 21.6856636,8.64497152 L18.9508259,13.1555547 L20.1568134,13.1555547 C21.0494385,13.1555547 21.4957444,13.4467613 21.4957444,14.0291834 C21.4957444,14.6242668 21.0494385,14.9218041 20.1568134,14.9218041 L18.0107254,14.9218041 L18.0107254,16.2892229 L20.1568134,16.2892229 C21.0494385,16.2892229 21.4957444,16.5867602 21.4957444,17.1818436 C21.4957444,17.7642657 21.0494385,18.0554723 20.1568134,18.0554723 L18.0107254,18.0554723 L18.0107254,18.8151495 C18.0107254,20.1002765 17.5834113,20.7428303 16.7287702,20.7428303 C15.8614677,20.7428303 15.427823,20.1002765 15.427823,18.8151495 L15.427823,18.0554723 L13.291231,18.0554723 C12.3922752,18.0554723 11.9428041,17.7642657 11.9428041,17.1818436 C11.9428041,16.5867602 12.3922752,16.2892229 13.291231,16.2892229 Z" id="¥" fill="#DBEAFF"></path>
                                <rect id="矩形" fill="#DBEAFF" fill-rule="nonzero" x="5.5535796" y="24.5944239" width="22.2143184" height="2.38010554" rx="1.19005277"></rect>
                                <rect id="矩形" fill="#DBEAFF" fill-rule="nonzero" x="5.5535796" y="30.1480035" width="22.2143184" height="2.38010554" rx="1.19005277"></rect>
                            </g>
                            <g id="分组-2" transform="translate(0.000000, 74.020004)">
                                <g id="住户">
                                    <mask id="mask-23" fill="white">
                                        <use xlink:href="#path-22"></use>
                                    </mask>
                                    <use id="椭圆形" fill="#00B4FF" xlink:href="#path-22"></use>
                                    <ellipse id="椭圆形" fill-opacity="0.8" fill="#FFFFFF" mask="url(#mask-23)" cx="19.4980902" cy="15.5711148" rx="7.59756248" ry="7.63742963"></ellipse>
                                    <ellipse id="椭圆形" fill-opacity="0.8" fill="#FFFFFF" mask="url(#mask-23)" cx="19.5904175" cy="39.4996744" rx="14.3012941" ry="14.3763381"></ellipse>
                                </g>
                                <text id="住户B" font-family="PingFangSC-Regular, PingFang SC" font-size="12" font-weight="normal" fill="#4A4A4A">
                                    <tspan x="2" y="56">住户</tspan>
                                    <tspan x="26" y="56" font-family="Helvetica">B</tspan>
                                </text>
                            </g>
                            <g id="分组-2" transform="translate(0.000000, 148.596645)">
                                <g id="住户">
                                    <mask id="mask-25" fill="white">
                                        <use xlink:href="#path-24"></use>
                                    </mask>
                                    <use id="椭圆形" fill="#1E8FFF" xlink:href="#path-24"></use>
                                    <ellipse id="椭圆形" fill-opacity="0.8" fill="#FFFFFF" mask="url(#mask-25)" cx="19.4980902" cy="15.5711148" rx="7.59756248" ry="7.63742963"></ellipse>
                                    <ellipse id="椭圆形" fill-opacity="0.8" fill="#FFFFFF" mask="url(#mask-25)" cx="19.5904175" cy="39.4996744" rx="14.3012941" ry="14.3763381"></ellipse>
                                </g>
                                <text id="住户C" font-family="PingFangSC-Regular, PingFang SC" font-size="12" font-weight="normal" fill="#4A4A4A">
                                    <tspan x="2" y="54">住户</tspan>
                                    <tspan x="26" y="54" font-family="Helvetica">C</tspan>
                                </text>
                            </g>
                            <g id="分组-2" transform="translate(0.000000, 222.379916)">
                                <g id="住户">
                                    <mask id="mask-27" fill="white">
                                        <use xlink:href="#path-26"></use>
                                    </mask>
                                    <use id="椭圆形" fill="#0077F2" xlink:href="#path-26"></use>
                                    <ellipse id="椭圆形" fill-opacity="0.86" fill="#FFFFFF" mask="url(#mask-27)" cx="19.4980902" cy="15.5711148" rx="7.59756248" ry="7.63742963"></ellipse>
                                    <ellipse id="椭圆形" fill-opacity="0.86" fill="#FFFFFF" mask="url(#mask-27)" cx="19.5904175" cy="39.4996744" rx="14.3012941" ry="14.3763381"></ellipse>
                                </g>
                                <text id="住户D" font-family="PingFangSC-Medium, PingFang SC" font-size="12" font-weight="400" fill="#4A4A4A">
                                    <tspan x="2" y="55">住户D</tspan>
                                </text>
                            </g>
                            <g id="分组" transform="translate(93.494070, 24.128933) scale(-1, 1) translate(-93.494070, -24.128933) translate(58.494070, 20.128933)" fill-rule="nonzero">
                                <path d="M0.108539015,3.96684257 L65.9917211,3.96684257" id="路径-44" stroke="#CBCBCB" stroke-dasharray="2.299999952316284"></path>
                                <polyline id="路径-45" stroke="#C4C4C4" points="65.5815148 0.105369256 69.1651951 3.55427545 65.5815148 7.00318164"></polyline>
                            </g>
                            <g id="分组" transform="translate(93.923701, 97.798866) scale(-1, 1) translate(-93.923701, -97.798866) translate(58.923701, 93.798866)" fill-rule="nonzero">
                                <path d="M0.108539015,3.96684257 L65.9917211,3.96684257" id="路径-44" stroke="#CBCBCB" stroke-dasharray="2.299999952316284"></path>
                                <polyline id="路径-45" stroke="#C4C4C4" points="65.5815148 0.105369256 69.1651951 3.55427545 65.5815148 7.00318164"></polyline>
                            </g>
                            <g id="分组" transform="translate(93.923701, 172.325427) scale(-1, 1) translate(-93.923701, -172.325427) translate(58.923701, 168.325427)" fill-rule="nonzero">
                                <path d="M0.108539015,3.96684257 L65.9917211,3.96684257" id="路径-44" stroke="#CBCBCB" stroke-dasharray="2.299999952316284"></path>
                                <polyline id="路径-45" stroke="#C4C4C4" points="65.5815148 0.105369256 69.1651951 3.55427545 65.5815148 7.00318164"></polyline>
                            </g>
                            <g id="分组" transform="translate(93.494070, 245.995360) scale(-1, 1) translate(-93.494070, -245.995360) translate(58.494070, 241.995360)" fill-rule="nonzero">
                                <path d="M0.108539015,3.96684257 L65.9917211,3.96684257" id="路径-44" stroke="#CBCBCB" stroke-dasharray="2.299999952316284"></path>
                                <polyline id="路径-45" stroke="#C4C4C4" points="65.5815148 0.105369256 69.1651951 3.55427545 65.5815148 7.00318164"></polyline>
                            </g>
                        </g>
                    </g>
                </g>
                <g id="分组-40" transform="translate(58.251889, 73.463476)">
                    <g id="分组-39" transform="translate(35.000000, 0.000000)" fill-rule="nonzero">
                        <path d="M19.1246763,0.7 C9.0178654,0.7 0.824676326,8.89318908 0.824676326,19 L0.824676326,268.357885 C0.824676326,278.464696 9.0178654,286.657885 19.1246763,286.657885 L121.378614,286.657885 C131.485425,286.657885 139.678614,278.464696 139.678614,268.357885 L139.678614,19 C139.678614,8.89318908 131.485425,0.7 121.378614,0.7 L19.1246763,0.7 Z" id="矩形" stroke="url(#linearGradient-28)" stroke-width="1.4"></path>
                        <path d="M15.8867371,6.16500827 C15.8867371,6.16500827 15.8867371,6.16500827 15.8867371,6.16500827 C19.1683927,6.16500827 28.8874591,6.16500827 45.0439363,6.16500827 C45.6739152,9.25908577 46.7361408,10.8061245 48.2306132,10.8061245 C52.1810234,10.8061245 59.9452019,10.8061245 71.5231487,10.8061245 C81.5705562,10.8061245 89.4294709,10.8061245 95.0998927,10.8061245 C96.7511658,10.8061245 97.9222459,9.25908577 98.6131331,6.16500827 C112.854015,6.16500827 121.19938,6.16500827 123.649228,6.16500827 C123.649228,6.16500827 123.649228,6.16500827 123.649228,6.16500827 L123.649228,6.16500827 C129.526973,6.16500827 134.291826,10.9298617 134.291826,16.8076063 L134.29185,270.090801 C134.29185,276.609809 129.00715,281.894508 122.488142,281.894508 C122.488142,281.894508 122.488142,281.894508 122.488142,281.894508 C105.253492,281.894508 70.263166,281.894508 17.5171654,281.894508 L17.5171654,281.894508 C10.8908328,281.894508 5.51912891,276.522805 5.51912891,269.896472 L5.51912891,16.5326164 C5.51912891,10.8067445 10.1608652,6.16500827 15.8867371,6.16500827 Z" id="矩形" fill="url(#linearGradient-29)"></path>
                    </g>
                    <g id="01基于微信推送" transform="translate(0.609165, 54.543198)">
                        <g id="分组-30" transform="translate(46.474447, 133.799058)">
                            <path d="M23.5310441,-1.76948379e-06 L93.5367406,-1.76948379e-06 C106.217868,-1.76948379e-06 116.497952,10.280083 116.497952,22.9612101 C116.497952,22.9612104 116.497952,22.9612104 116.497952,22.9612107 L116.497952,22.9612107 C116.497952,35.8820328 106.262738,46.4807279 93.3497794,46.9314402 C90.8538349,47.0185275 89.1026224,47.0620865 88.0961409,47.0620865 C85.1238297,47.0620865 82.6889602,49.1197311 80.7915324,53.2350202 C78.1405628,49.1197311 75.6758619,47.0620865 73.3974295,47.0620865 C56.7753011,47.0620865 40.1531726,47.0620865 23.5310441,47.0620865 L23.5310441,47.0620865 C10.5352073,47.0620865 7.39651305e-14,36.5268792 3.19744231e-14,23.5310424 L3.19744231e-14,23.5310424 C1.30689594e-14,10.5352055 10.5352073,-1.76948376e-06 23.5310441,-1.76948379e-06 Z" id="矩形" fill="#FFFFFF" fill-rule="nonzero"></path>
                            <g id="weixinzhifu" transform="translate(11.028368, 11.349173)" fill="#B1D6FF">
                                <path d="M10.0961299,16.5274433 C8.58316422,17.4413248 8.35874344,16.0145748 8.35874344,16.0145748 L6.46263008,11.2218882 C5.73289998,8.94442021 7.09398902,10.1950713 7.09398902,10.1950713 C7.09398902,10.1950713 8.26182254,11.1519979 9.14824296,11.7350036 C10.0340463,12.3184103 11.04377,11.9064123 11.04377,11.9064123 L23.4403258,5.70857533 C21.1529495,2.62577946 17.3750403,0.610346158 13.0976537,0.610346158 C6.11740532,0.610346158 0.45942824,5.97422028 0.45942824,12.5913992 C0.45942824,16.3979996 2.33276935,19.7851038 5.25125775,21.9806165 L4.72487331,25.2578093 C4.72487331,25.2578093 4.46814556,26.2143657 5.35743566,25.7707087 C5.96324525,25.468406 7.50777737,24.383702 8.42721446,23.7245113 C9.92024674,24.2870281 11.5028869,24.5743961 13.0983943,24.572699 C20.0780255,24.572699 25.737206,19.2088249 25.737206,12.591646 C25.737206,10.6750466 25.260254,8.86499518 24.4156753,7.25813485 C20.4658942,9.83191933 11.2797621,15.8137597 10.0961299,16.5274433 Z" id="Fill-1"></path>
                            </g>
                            <rect id="矩形" fill="#B1D6FF" fill-rule="nonzero" x="45.5181568" y="13.5112128" width="57.3159146" height="2.92966226" rx="1.46483113"></rect>
                            <rect id="矩形" fill="#B1D6FF" fill-rule="nonzero" x="45.5181568" y="23.0047303" width="57.3159146" height="2.92966226" rx="1.46483113"></rect>
                            <rect id="矩形" fill="#B1D6FF" fill-rule="nonzero" x="45.5181568" y="32.4982479" width="57.3159146" height="2.92966226" rx="1.46483113"></rect>
                        </g>
                        <g id="分组-30" transform="translate(0.795601, 78.026256)">
                            <path d="M28.9768666,-1.25218903e-05 L128.484906,-1.25218903e-05 C144.100844,-1.25218903e-05 156.760064,12.6592069 156.760064,28.2751455 L156.760064,28.2751455 C156.760064,43.0473679 145.310038,55.2913357 130.570951,56.2802051 C126.182921,56.5746411 123.254333,57.1324677 121.785188,57.9537206 C118.307019,59.8980199 115.635954,62.3971416 113.771991,65.4510856 C109.733406,60.4528423 106.370988,57.9537206 103.684737,57.9537206 C78.7821134,57.9537206 53.87949,57.9537206 28.9768666,57.9537206 L28.9768666,57.9537206 C12.9733851,57.9537206 -1.59285244e-15,44.9803355 -3.55271368e-15,28.976854 L-3.55271368e-15,28.976854 C-5.51257492e-15,12.9733725 12.9733851,-1.25218903e-05 28.9768666,-1.25218903e-05 Z" id="矩形" fill="url(#linearGradient-30)" fill-rule="nonzero"></path>
                            <rect id="矩形" fill="#ABF0FF" fill-rule="nonzero" x="67.7072139" y="44.121975" width="58.8934189" height="3.25702776" rx="1.62851388"></rect>
                            <rect id="矩形" fill="#ABF0FF" fill-rule="nonzero" x="67.7072139" y="35.121975" width="58.8934189" height="3.25702776" rx="1.62851388"></rect>
                            <g id="分组-4" transform="translate(66.707214, 11.121975)">
                                <rect id="矩形" fill="#FFFFFF" fill-rule="nonzero" x="0" y="1" width="60" height="16.8275862" rx="8.4137931"></rect>
                                <text id="支付成功" font-family="PingFangSC-Medium, PingFang SC" font-size="11" font-weight="400" fill="#12B6DA">
                                    <tspan x="9" y="12.8848703">支付成功</tspan>
                                </text>
                            </g>
                        </g>
                        <g id="分组-30" transform="translate(16.502815, 0.148231)">
                            <path d="M43.3017048,-5.45696821e-12 L139.400434,-5.44275736e-12 C156.808163,-5.4459551e-12 170.919916,14.1117525 170.919916,31.5194813 L170.919916,31.5194813 C170.919916,48.8377322 156.8807,62.8769483 139.562449,62.8769483 C139.530945,62.8769483 139.499442,62.8769009 139.467939,62.8768059 C97.0259787,62.7489176 75.0105159,63.1335956 73.4215503,64.0308705 C71.478133,65.1283012 68.5622605,67.9395226 64.6739327,72.4645347 C60.2293187,67.2237847 56.4431786,64.6034097 53.3155124,64.6034097 C49.9775765,64.6034097 46.6396407,64.6034097 43.3017048,64.6034097 L43.3017048,64.6034097 C25.4619659,64.6034097 11,50.1414438 11,32.3017048 L11,32.3017048 C11,14.4619659 25.4619659,-5.46079653e-12 43.3017048,-5.46407364e-12 Z" id="矩形" fill="url(#linearGradient-31)" fill-rule="nonzero"></path>
                            <rect id="矩形" fill="#92C5FF" fill-rule="nonzero" x="83" y="45" width="58.8934189" height="3.25702776" rx="1.62851388"></rect>
                            <rect id="矩形" fill="#92C5FF" fill-rule="nonzero" x="83" y="36" width="58.8934189" height="3.25702776" rx="1.62851388"></rect>
                            <g id="分组-4" transform="translate(82.000000, 12.000000)">
                                <rect id="矩形" fill="#FFFFFF" fill-rule="nonzero" x="0" y="1" width="60" height="16.8275862" rx="8.4137931"></rect>
                                <text id="支付成功" font-family="PingFangSC-Medium, PingFang SC" font-size="11" font-weight="400" fill="#1271FC">
                                    <tspan x="9" y="12.8848703">支付成功</tspan>
                                </text>
                            </g>
                            <g id="weixinzhifu" transform="translate(28.000000, 13.000000)" fill="#FFFFFF">
                                <path d="M14.7558822,24.155494 C12.5446246,25.4911671 12.216625,23.405917 12.216625,23.405917 L9.44538242,16.4012213 C8.37885382,13.0726142 10.3681378,14.9004888 10.3681378,14.9004888 C10.3681378,14.9004888 12.0749714,16.2990739 13.3705089,17.151159 C14.6651445,18.0038305 16.1408947,17.4016795 16.1408947,17.4016795 L34.2589378,8.34330241 C30.9158493,3.83767767 25.3942897,0.892044385 19.1427247,0.892044385 C8.94082316,0.892044385 0.671472042,8.73155271 0.671472042,18.4028142 C0.671472042,23.9663071 3.40943213,28.9166902 7.67491518,32.1255165 L6.90558406,36.9152598 C6.90558406,36.9152598 6.53036659,38.3133037 7.83009827,37.6648819 C8.71551228,37.223055 10.9729054,35.6377183 12.316698,34.6742857 C14.4988222,35.4964257 16.8119116,35.9164251 19.143807,35.9139447 C29.3448065,35.9139447 37.6159165,28.0744364 37.6159165,18.403175 C37.6159165,15.6019912 36.9188328,12.9565314 35.6844485,10.6080432 C29.9116916,14.3697283 16.4858061,23.112418 14.7558822,24.155494 Z" id="Fill-1"></path>
                            </g>
                            <g id="weixinzhifu" transform="translate(0.000000, 88.000000)" fill="#FFFFFF">
                                <path d="M14.7558822,24.155494 C12.5446246,25.4911671 12.216625,23.405917 12.216625,23.405917 L9.44538242,16.4012213 C8.37885382,13.0726142 10.3681378,14.9004888 10.3681378,14.9004888 C10.3681378,14.9004888 12.0749714,16.2990739 13.3705089,17.151159 C14.6651445,18.0038305 16.1408947,17.4016795 16.1408947,17.4016795 L34.2589378,8.34330241 C30.9158493,3.83767767 25.3942897,0.892044385 19.1427247,0.892044385 C8.94082316,0.892044385 0.671472042,8.73155271 0.671472042,18.4028142 C0.671472042,23.9663071 3.40943213,28.9166902 7.67491518,32.1255165 L6.90558406,36.9152598 C6.90558406,36.9152598 6.53036659,38.3133037 7.83009827,37.6648819 C8.71551228,37.223055 10.9729054,35.6377183 12.316698,34.6742857 C14.4988222,35.4964257 16.8119116,35.9164251 19.143807,35.9139447 C29.3448065,35.9139447 37.6159165,28.0744364 37.6159165,18.403175 C37.6159165,15.6019912 36.9188328,12.9565314 35.6844485,10.6080432 C29.9116916,14.3697283 16.4858061,23.112418 14.7558822,24.155494 Z" id="Fill-1"></path>
                            </g>
                        </g>
                    </g>
                    <ellipse id="椭圆形" fill="#C4DFFF" fill-rule="nonzero" cx="235.603118" cy="280.625292" rx="40.2655869" ry="6.44393155"></ellipse>
                    <g id="分组-24" transform="translate(201.508816, 173.677582)">
                        <g id="分组-6" transform="translate(9.913380, 42.413383)" fill-rule="nonzero" stroke="#000000" stroke-width="1.4">
                            <polyline id="路径-5" points="0.296101976 64.725003 14.7485309 0.177349478 34.5694579 0.177349478 49.7334973 64.725003"></polyline>
                            <path d="M14.9042134,0.438329922 L29.2932372,65.1071327" id="路径-6"></path>
                            <path d="M34.6113506,0.513057511 L20.1645828,65.755904" id="路径-7"></path>
                            <path d="M12.0957015,11.3293099 L37.0015012,11.3293099" id="路径-8"></path>
                            <path d="M10.2875203,21.4515015 L39.7024507,21.4515015" id="路径-9"></path>
                            <path d="M7.6409182,32.3758825 L42.0280638,32.3758825" id="路径-10"></path>
                            <path d="M5.17660611,43.3885779 L44.7103314,43.3885779" id="路径-11"></path>
                            <path d="M2.91949325,54.4822282 L22.5615268,54.4822282" id="路径-12"></path>
                            <path d="M27.2101478,54.2982398 L47.3456572,54.2982398" id="路径-13"></path>
                        </g>
                        <g id="数据条人物" transform="translate(28.982686, 30.415617) scale(-1, 1) translate(-28.982686, -30.415617) translate(0.330293, 0.000000)">
                            <polygon id="Path-23" fill="#F6C5C1" transform="translate(5.239948, 54.621481) scale(-1, 1) rotate(17.000000) translate(-5.239948, -54.621481) " points="4.58613871 55.9290986 5.89375677 55.9290986 5.89375677 53.3138625 4.58613871 53.3138625"></polygon>
                            <polygon id="Path-24" fill="#0A2048" transform="translate(4.335038, 57.160913) scale(-1, 1) rotate(-345.000000) translate(-4.335038, -57.160913) " points="1.71980202 56.1801992 3.07840795 56.1801992 6.95027426 57.5245895 6.95027426 58.1416263 1.71980202 58.1416263"></polygon>
                            <path d="M3.98599946,53.7001461 C0.0459212282,46.5850624 -0.810240043,41.5883807 1.41751565,38.710101 C3.64527134,35.8318212 10.4810554,32.8650881 21.9248678,29.8099016 L27.2581901,36.5693057 C17.1155534,38.2682074 10.6830983,39.6457658 7.96082488,40.701981 C5.23855146,41.7581962 4.51692128,45.7964466 5.79593433,52.8167322 L3.98599946,53.7001461 Z" id="Path-76" stroke="#0055B9" stroke-width="1.4"></path>
                            <path d="M32.09029,40.0362067 C31.7496961,40.500396 23.6029544,44.1800848 19.2320499,42.5166142 C14.8611454,40.8531436 13.3818497,43.2006666 12.8235628,46.8003228 C12.4513716,49.2000935 12.265276,52.1356299 12.265276,55.6069318 L10.0704043,55.6069318 C7.34186585,49.7358591 6.36304478,45.3724199 7.13394113,42.5166142 C7.90483748,39.6608084 13.4013862,35.2341485 23.6235874,29.2366343 C29.4951184,36.1268898 32.3173525,39.7267473 32.09029,40.0362067 Z" id="Path-75" fill="#FFC107"></path>
                            <polygon id="Path-23" fill="#F6C5C1" transform="translate(11.545888, 56.341283) scale(-1, 1) rotate(17.000000) translate(-11.545888, -56.341283) " points="10.8920794 57.6489006 12.1996975 57.6489006 12.1996975 55.0336645 10.8920794 55.0336645"></polygon>
                            <polygon id="Path-24" fill="#0A2048" transform="translate(10.640979, 58.880715) scale(-1, 1) rotate(-345.000000) translate(-10.640979, -58.880715) " points="8.02574274 57.9000012 9.38434867 57.9000012 13.256215 59.2443915 13.256215 59.8614283 8.02574274 59.8614283"></polygon>
                            <path d="M27.52517,17.2842535 C29.8701059,17.2842535 30.8058416,21.4597366 28.9326458,23.8630927 C27.05945,26.2664488 21.3699957,24.6408845 19.9118028,23.8630927 C18.4536099,23.0853009 15.1111279,23.9192857 15.5737489,20.2116974 C15.882163,17.7399719 17.724795,15.2066999 21.101645,12.6118814 L22.0143241,13.0645332 C20.8055171,15.0881528 20.2011136,16.4947263 20.2011136,17.2842535 C20.2011136,18.4685444 19.2267381,20.2116974 21.101645,20.2116974 C22.976552,20.2116974 25.1802341,17.2842535 27.52517,17.2842535 Z" id="Path-74" fill="#0820BD"></path>
                            <path d="M17.1954926,30.4016046 C19.6517193,23.9190546 21.6640559,19.5154345 23.2325024,17.1907442 C25.5851722,13.7037088 25.7444233,13.7073761 27.2328904,12.7914563 C28.7213575,11.8755365 30.3454156,11.7034768 31.9176032,12.7914563 C32.8943313,13.4673681 35.3165759,15.7523754 36.4758139,18.3148838 C38.4038732,22.5768801 39.563326,29.8486538 37.7606269,34.4296302 C36.9040849,36.6062546 34.9564104,39.249032 31.9176032,42.3579623 C26.6274533,40.643123 22.8215985,38.5323684 20.5000387,36.0256984 C19.4621058,34.9050056 18.3605904,33.0303077 17.1954926,30.4016046 Z" id="Path-72" stroke="#0055B9" stroke-width="1.4"></path>
                            <path d="M32.1100621,19.7085078 C32.8813296,18.2123265 34.8790881,19.2080956 35.852751,19.7085078 C36.8264138,20.2089201 36.9743934,23.8347913 36.1677055,26.8673838 C35.3610175,29.8999762 34.3109459,36.9231192 27.1788906,32.9830259 C22.4241871,30.356297 19.2541141,26.9596215 17.6686716,22.7929993 L18.9346171,22.2163487 C25.8299054,27.4803675 29.8264732,29.8852305 30.9243204,29.4309378 C32.5710913,28.7494986 31.3387945,21.2046892 32.1100621,19.7085078 Z" id="Path-73" fill="#4D8EF7"></path>
                            <path d="M26.0188086,5.53889262 C25.4197378,7.2244925 25.1202024,8.21036253 25.1202024,8.49650273 C25.1202024,8.78264293 25.4197378,8.89559307 26.0188086,8.83535315 C26.0188086,9.35767719 26.0188086,9.75661895 26.0188086,10.0321784 C26.0188086,10.4455176 26.3345764,11.3829047 27.297328,10.970248 C27.9391623,10.6951435 28.3191767,10.451955 28.437371,10.2406825 C28.8165895,11.3392819 28.8165895,12.0795451 28.437371,12.4614721 C28.0581525,12.8433991 27.6781382,13.3687013 27.297328,14.0373786 L28.9202478,14.9049508 L30.8881649,14.5245491 L30.8881649,12.4614721 C30.5660481,10.9809457 30.5660481,10.0601925 30.8881649,9.69921251 C31.3713402,9.15774251 31.7864711,6.96654309 31.337318,6.96654309 C31.0378826,6.96654309 30.7271065,6.96654309 30.4049897,6.96654309 L29.4443095,7.71026357 L29.4443095,6.11208818 L27.7458842,5.15940605 L26.0188086,5.53889262 Z" id="Path-63" fill="#F6C5C1"></path>
                            <path d="M24.6504956,5.50635613 C24.6504956,6.50890756 25.1007199,6.67137145 26.0011685,5.99374781 L27.4699432,5.99374781 L28.5169256,6.73944465 C28.5941065,7.64200883 28.7918802,8.1642142 29.1102469,8.30606077 C29.4286136,8.44790735 30.065468,8.29756608 31.0208101,7.85503697 C31.4052322,8.38722147 32.4407359,9.01739073 34.1273212,9.74554475 C36.6571993,10.8377758 36.6571993,9.14764483 39.3936551,9.74554475 C42.0752851,10.3314655 41.945703,12.7372767 43.9316483,13.9644341 C46.7679522,15.7170459 53.4756537,15.146798 55.1562676,12.3593975 C56.8368814,9.57199702 57.3317723,5.99374781 54.0645964,2.4419845 C51.8864791,0.0741422948 48.5088297,-0.168264695 43.9316483,1.71476353 C40.9063195,2.19957751 38.4815031,2.4419845 36.6571993,2.4419845 C33.9207435,2.4419845 32.9533548,1.71476353 30.11389,1.71476353 C28.2209135,1.71476353 26.8500063,1.95717052 26.0011685,2.4419845 C25.1007199,3.48234749 24.6504956,4.5038047 24.6504956,5.50635613 Z" id="Path-71" fill="#000000"></path>
                            <g id="Group-33" transform="translate(6.305941, 12.038614)">
                                <path d="M2.7404356,1.06515892 L8.7654054,1.03766817 C9.3176844,1.03514823 9.76743781,1.48081601 9.76995775,2.03309501 C9.76997259,2.03634924 9.76997156,2.03960353 9.76995464,2.04285776 L9.7203349,11.5849936 C9.71748282,12.1334622 9.27338145,12.5772806 8.72491117,12.5797832 L2.69994137,12.6072739 C2.14766237,12.6097939 1.69790896,12.1641261 1.69538902,11.6118471 C1.69537417,11.6085929 1.69537521,11.6053386 1.69539213,11.6020843 L1.74501187,2.05994852 C1.74786394,1.51147995 2.19196532,1.06766148 2.7404356,1.06515892 Z" id="Rectangle-25" fill="#000000" transform="translate(5.732673, 6.822471) rotate(-14.000000) translate(-5.732673, -6.822471) "></path>
                                <circle id="Oval-6" fill="#FFFFFF" transform="translate(6.747395, 11.475633) rotate(-14.000000) translate(-6.747395, -11.475633) " cx="6.74739529" cy="11.4756327" r="1"></circle>
                                <polygon id="Rectangle-25" fill="#FFFFFF" transform="translate(5.739481, 6.252248) rotate(-14.000000) translate(-5.739481, -6.252248) " points="2.69336115 2.09296166 8.83177495 2.07581333 8.78560023 10.4115341 2.64718642 10.4286824"></polygon>
                            </g>
                            <path d="M14.9049508,20.6376242 C15.1679792,20.6376242 15.8512227,20.6376242 16.9546811,20.6376242 C18.6098686,20.6376242 18.6098686,20.7265672 18.6098686,21.6628092 C18.6098686,22.2869706 17.374896,22.5990513 14.9049508,22.5990513 L14.9049508,20.6376242 Z" id="Path-20" fill="#F6C5C1" transform="translate(16.757410, 21.618338) scale(-1, 1) rotate(-37.000000) translate(-16.757410, -21.618338) "></path>
                            <path d="M20.7657877,10.7884789 C21.0288161,10.7884789 21.7120596,10.7884789 22.8155179,10.7884789 C24.4707055,10.7884789 24.4707055,10.8774219 24.4707055,11.813664 C24.4707055,12.4378253 23.2357329,12.749906 20.7657877,12.749906 L20.7657877,10.7884789 Z" id="Path-20" fill="#F6C5C1" transform="translate(22.618247, 11.769192) scale(-1, 1) rotate(-133.000000) translate(-22.618247, -11.769192) "></path>
                        </g>
                    </g>
                </g>
            </g>
        </g>
    </g>
</svg>