<?xml version="1.0" encoding="UTF-8"?>
<svg width="692px" height="436px" viewBox="0 0 692 436" version="1.1" xmlns="http://www.w3.org/2000/svg" xmlns:xlink="http://www.w3.org/1999/xlink">
    <!-- Generator: Sketch 52.2 (67145) - http://www.bohemiancoding.com/sketch -->
    <title>智能门禁</title>
    <desc>Created with Sketch.</desc>
    <defs>
        <linearGradient x1="50%" y1="0%" x2="50%" y2="100%" id="linearGradient-1">
            <stop stop-color="#B4D2FF" offset="0%"></stop>
            <stop stop-color="#1164E3" offset="100%"></stop>
        </linearGradient>
        <linearGradient x1="50%" y1="0%" x2="50%" y2="100%" id="linearGradient-2">
            <stop stop-color="#5A9BFF" offset="0%"></stop>
            <stop stop-color="#1164E3" offset="100%"></stop>
        </linearGradient>
        <linearGradient x1="50%" y1="0%" x2="50%" y2="100%" id="linearGradient-3">
            <stop stop-color="#3D84F1" offset="0%"></stop>
            <stop stop-color="#1164E3" offset="100%"></stop>
        </linearGradient>
        <linearGradient x1="50%" y1="0%" x2="50%" y2="113.908335%" id="linearGradient-4">
            <stop stop-color="#92BDFF" offset="0%"></stop>
            <stop stop-color="#88B7FF" stop-opacity="0.648267663" offset="100%"></stop>
        </linearGradient>
        <linearGradient x1="50%" y1="0%" x2="50%" y2="100%" id="linearGradient-5">
            <stop stop-color="#3E85F1" offset="0%"></stop>
            <stop stop-color="#FFFFFF" offset="100%"></stop>
        </linearGradient>
        <linearGradient x1="50%" y1="0%" x2="50%" y2="100%" id="linearGradient-6">
            <stop stop-color="#1164E3" offset="0%"></stop>
            <stop stop-color="#FFFFFF" offset="100%"></stop>
        </linearGradient>
        <linearGradient x1="50%" y1="0%" x2="50%" y2="100%" id="linearGradient-7">
            <stop stop-color="#448AF3" offset="0%"></stop>
            <stop stop-color="#1164E3" offset="100%"></stop>
        </linearGradient>
        <linearGradient x1="50%" y1="0%" x2="50%" y2="88.2306592%" id="linearGradient-8">
            <stop stop-color="#A5CAFF" offset="0%"></stop>
            <stop stop-color="#74ABFF" offset="100%"></stop>
        </linearGradient>
        <linearGradient x1="57.3004645%" y1="33.652674%" x2="57.3004645%" y2="100%" id="linearGradient-9">
            <stop stop-color="#C0D9F9" offset="0%"></stop>
            <stop stop-color="#DFEDFF" offset="100%"></stop>
        </linearGradient>
        <linearGradient x1="49.0998884%" y1="-41.6455078%" x2="49.0998884%" y2="50%" id="linearGradient-10">
            <stop stop-color="#ABCFFF" offset="0%"></stop>
            <stop stop-color="#F3FBFF" offset="100%"></stop>
        </linearGradient>
        <linearGradient x1="0%" y1="0%" x2="100%" y2="100%" id="linearGradient-11">
            <stop stop-color="#00A7FF" offset="0%"></stop>
            <stop stop-color="#006EFF" offset="100%"></stop>
        </linearGradient>
        <linearGradient x1="89.0386769%" y1="-77.6823771%" x2="13.5606855%" y2="100%" id="linearGradient-12">
            <stop stop-color="#ADF0FF" offset="0%"></stop>
            <stop stop-color="#22C4E7" offset="100%"></stop>
        </linearGradient>
        <linearGradient x1="-18.5312207%" y1="14.0989627%" x2="67.4586911%" y2="105.270986%" id="linearGradient-13">
            <stop stop-color="#00B3FF" offset="0%"></stop>
            <stop stop-color="#00FFFC" offset="100%"></stop>
        </linearGradient>
        <linearGradient x1="50%" y1="0%" x2="50%" y2="100%" id="linearGradient-14">
            <stop stop-color="#A8D3FF" offset="0%"></stop>
            <stop stop-color="#CCECFF" offset="100%"></stop>
        </linearGradient>
        <path d="M8.64,-1.27897692e-13 L128.734413,-1.27897692e-13 C133.506153,-1.28774247e-13 137.374413,3.86825976 137.374413,8.64 L137.374413,47.9328533 C137.374413,52.7045935 133.506153,56.5728533 128.734413,56.5728533 L8.64,56.5728533 C3.86825976,56.5728533 -2.81856368e-13,52.7045935 -2.82440737e-13,47.9328533 L-2.82440737e-13,8.64 C-2.83025107e-13,3.86825976 3.86825976,-1.27021138e-13 8.64,-1.27897692e-13 Z" id="path-15"></path>
        <filter x="-17.5%" y="-42.4%" width="134.9%" height="184.8%" filterUnits="objectBoundingBox" id="filter-16">
            <feOffset dx="0" dy="0" in="SourceAlpha" result="shadowOffsetOuter1"></feOffset>
            <feGaussianBlur stdDeviation="8" in="shadowOffsetOuter1" result="shadowBlurOuter1"></feGaussianBlur>
            <feColorMatrix values="0 0 0 0 0.290196078   0 0 0 0 0.564705882   0 0 0 0 0.88627451  0 0 0 0.2 0" type="matrix" in="shadowBlurOuter1"></feColorMatrix>
        </filter>
        <circle id="path-17" cx="17.7453307" cy="17.7453307" r="17.7453307"></circle>
        <path d="M8.64,0 L128.734413,0 C133.506153,-8.76554461e-16 137.374413,3.86825976 137.374413,8.64 L137.374413,47.9328533 C137.374413,52.7045935 133.506153,56.5728533 128.734413,56.5728533 L8.64,56.5728533 C3.86825976,56.5728533 2.36072648e-15,52.7045935 1.77635684e-15,47.9328533 L1.77635684e-15,8.64 C1.1919872e-15,3.86825976 3.86825976,8.76554461e-16 8.64,0 Z" id="path-19"></path>
        <filter x="-17.5%" y="-42.4%" width="134.9%" height="184.8%" filterUnits="objectBoundingBox" id="filter-20">
            <feOffset dx="0" dy="0" in="SourceAlpha" result="shadowOffsetOuter1"></feOffset>
            <feGaussianBlur stdDeviation="8" in="shadowOffsetOuter1" result="shadowBlurOuter1"></feGaussianBlur>
            <feColorMatrix values="0 0 0 0 0.290196078   0 0 0 0 0.564705882   0 0 0 0 0.88627451  0 0 0 0.2 0" type="matrix" in="shadowBlurOuter1"></feColorMatrix>
        </filter>
        <circle id="path-21" cx="17.7453307" cy="17.7453307" r="17.7453307"></circle>
        <path d="M8.64,0 L128.734413,0 C133.506153,-8.76554461e-16 137.374413,3.86825976 137.374413,8.64 L137.374413,47.9328533 C137.374413,52.7045935 133.506153,56.5728533 128.734413,56.5728533 L8.64,56.5728533 C3.86825976,56.5728533 5.84369641e-16,52.7045935 0,47.9328533 L0,8.64 C-5.84369641e-16,3.86825976 3.86825976,-2.67615922e-15 8.64,-3.55271368e-15 Z" id="path-23"></path>
        <filter x="-17.5%" y="-42.4%" width="134.9%" height="184.8%" filterUnits="objectBoundingBox" id="filter-24">
            <feOffset dx="0" dy="0" in="SourceAlpha" result="shadowOffsetOuter1"></feOffset>
            <feGaussianBlur stdDeviation="8" in="shadowOffsetOuter1" result="shadowBlurOuter1"></feGaussianBlur>
            <feColorMatrix values="0 0 0 0 0.290196078   0 0 0 0 0.564705882   0 0 0 0 0.88627451  0 0 0 0.2 0" type="matrix" in="shadowBlurOuter1"></feColorMatrix>
        </filter>
        <circle id="path-25" cx="17.7453307" cy="17.7453307" r="17.7453307"></circle>
    </defs>
    <g id="页面-1" stroke="none" stroke-width="1" fill="none" fill-rule="evenodd">
        <g id="切图">
            <g id="智能门禁">
                <g id="分组-48" transform="translate(0.414330, 0.000000)" fill-rule="nonzero">
                    <path d="M9.36195992e-18,222.321156 C60.043358,246.298688 97.8119892,249.540922 113.305894,232.047859 C114.915254,230.230844 152.502116,215.337571 154.205045,213.534005 C223.865037,139.757347 255.171029,0.70528171 349.02776,0.70528171 C478.313192,0.70528171 621.537584,21.0731556 612.947839,91.3967446 C604.358095,161.720334 628.95899,190.420677 661.537584,196.537011 C694.116177,202.653345 712.834925,252.621048 643.925788,314.260202 C575.01665,375.899357 528.795265,428.794588 496.479793,432.961773 C445.393566,439.549507 407.573947,394.684841 365.004154,394.684841 C322.434362,394.684841 316.094214,410.768119 270.149629,428.054443 C239.519906,439.578658 197.538378,431.1677 144.205045,402.821568 C54.1836352,351.914284 6.11528693,291.747479 9.36195992e-18,222.321156 Z" id="路径-2" fill="#DFF4FF" transform="translate(345.395358, 217.163756) scale(-1, 1) translate(-345.395358, -217.163756) "></path>
                    <path d="M0.0480865808,218.318445 C2.6216753,115.040483 219.790414,0.70528171 349.075847,0.70528171 C478.361279,0.70528171 621.58567,20.7052817 612.995926,89.7587226 C604.406181,158.812164 629.007077,186.994136 661.58567,193 C694.164263,199.005864 712.883012,248.071077 643.973874,308.596937 C575.064737,369.122797 494.178389,406.304033 461.862916,410.395952 C410.776689,416.864702 384.98699,382.769996 342.417198,382.769996 C299.847406,382.769996 287.054229,391.185409 246.366047,420.02933 C205.677866,448.873252 129.179445,437.559706 114.088313,387.568988 C98.9971815,337.57827 -2.52550214,321.596407 0.0480865808,218.318445 Z" id="路径-2" fill="#F3FBFF"></path>
                </g>
                <g id="分组-2" opacity="0.45" transform="translate(75.936038, 119.558589)">
                    <g id="分组-15">
                        <g id="Group-22" transform="translate(0.000000, 0.085932)">
                            <g id="分组-47" opacity="0.408528646" transform="translate(337.906177, 0.000000)">
                                <g id="Group-20">
                                    <g id="Group-19" transform="translate(0.000000, 31.952485)" fill="url(#linearGradient-1)">
                                        <polygon id="Path-31" points="0.0869720945 181.756035 0.0869720945 20.5360988 13.1586928 20.5360988 13.1586928 0.674697034 55.2161772 0.674697034 55.2161772 181.756035"></polygon>
                                    </g>
                                    <polygon id="Path-32" fill="url(#linearGradient-2)" points="54.8460831 0.669819429 80.2363833 0.669819429 80.2363833 19.1979775 90.5194456 19.1979775 87.1848985 213.394231 54.8460831 213.394231"></polygon>
                                </g>
                                <polygon id="Path-35" fill="url(#linearGradient-3)" points="87.2719813 69.0380918 123.891195 69.0380918 123.891195 89.026065 133.658677 89.026065 133.658677 214.063101 87.2719813 214.063101"></polygon>
                                <polygon id="Path-35" fill="url(#linearGradient-4)" transform="translate(87.726753, 141.550596) scale(-1, 1) translate(-87.726753, -141.550596) " points="71.8097493 69.0380918 93.9309937 69.0380918 93.9309937 89.026065 103.643756 89.026065 103.643756 214.063101 71.8097493 214.063101"></polygon>
                                <g id="Group-16" opacity="0.675668025" transform="translate(133.049372, 46.180889)">
                                    <polygon id="Path-38" fill="url(#linearGradient-5)" points="0.220068478 168.296742 0.220068478 11.9065833 9.38655714 0.199117573 17.4763471 11.9065833 17.4763471 168.296742"></polygon>
                                    <polygon id="Path-39" fill="#82B3FF" points="9.36905169 0.248998144 31.0285187 0.117366049 39.1051227 11.7795042 17.3577875 11.7795042"></polygon>
                                    <polygon id="Rectangle-8" fill="url(#linearGradient-6)" points="17.2271787 11.7169764 39.1103516 11.7169764 39.1103516 168.287535 17.2271787 168.287535"></polygon>
                                </g>
                            </g>
                            <g id="Group-16" opacity="0.675668025" transform="translate(0.477767, 89.688565)">
                                <polygon id="Path-38" fill="url(#linearGradient-5)" points="0.184295328 140.939327 0.184295328 9.97111305 7.86072881 0.166750089 14.635486 9.97111305 14.635486 140.939327"></polygon>
                                <polygon id="Path-39" fill="#82B3FF" points="7.84606895 0.208522342 25.9846892 0.0982876542 32.7484039 9.86469125 14.5361988 9.86469125"></polygon>
                                <polygon id="Rectangle-8" fill="url(#linearGradient-6)" points="14.426821 9.81232765 32.7527828 9.81232765 32.7527828 140.931617 14.426821 140.931617"></polygon>
                            </g>
                        </g>
                        <g id="分组-37" transform="translate(102.445608, 19.408060)" fill-rule="nonzero">
                            <polygon id="路径-15" fill="url(#linearGradient-7)" opacity="0.281691778" points="0.24110532 213.780386 0.24110532 49.3565663 19.3351549 49.3565663 19.3351549 30.1310732 48.118959 30.1310732 48.118959 213.780386"></polygon>
                            <polygon id="路径-16" fill="url(#linearGradient-8)" opacity="0.913364955" points="47.824656 30.2565814 85.6636049 30.2565814 85.6636049 217.85172 47.824656 217.85172"></polygon>
                            <polygon id="路径-17" fill="url(#linearGradient-9)" points="75.2308661 218.519536 75.2308661 1.09124201e-11 109.529086 1.09124201e-11 109.529086 26.3653292 132.375401 26.3653292 132.375401 218.519536"></polygon>
                            <polygon id="矩形" fill="#82B4FF" opacity="0.456612723" points="85.2697709 34.7638448 89.1308882 34.7638448 89.1308882 183.33215 85.2697709 183.33215"></polygon>
                            <polygon id="矩形" fill="#82B4FF" opacity="0.456612723" points="96.5957148 34.7638448 100.456832 34.7638448 100.456832 183.33215 96.5957148 183.33215"></polygon>
                            <polygon id="矩形" fill="#82B4FF" opacity="0.456612723" points="107.921659 34.7638448 111.782776 34.7638448 111.782776 183.33215 107.921659 183.33215"></polygon>
                            <polygon id="矩形" fill="#82B4FF" opacity="0.456612723" points="119.247603 34.7638448 123.10872 34.7638448 123.10872 183.33215 119.247603 183.33215"></polygon>
                        </g>
                    </g>
                </g>
                <ellipse id="椭圆形" fill="url(#linearGradient-10)" fill-rule="nonzero" cx="341.373251" cy="345.108803" rx="251.289626" ry="33.443662"></ellipse>
                <g id="分组-3" transform="translate(122.952141, 99.806045)">
                    <g id="menjin-(1)" transform="translate(170.322418, 160.453401)">
                        <path d="M3.50047938,0 L4.43408071,0 C5.36245178,0 6.25277527,0.372824875 6.90917284,1.03656927 C7.56577552,1.70015815 7.93450882,2.60023578 7.93450882,3.53882966 L7.93450882,100.491397 C7.93450882,101.429991 7.56577552,102.330069 6.90917284,102.993657 C6.25277527,103.657454 5.36245178,104.030227 4.43408071,104.030227 L3.50047938,104.030227 C2.57205704,104.030227 1.68173355,103.657454 1.02533598,102.993657 C0.368733297,102.330069 0,101.429991 0,100.491397 L0,3.53882966 C0,1.5843502 1.56712933,0 3.50047938,0 Z" id="路径" fill="#99C7FF"></path>
                        <path d="M7.61845244,9.41805548 L7.61845244,94.6121712 L29.3088104,94.6121712 C29.475646,94.6121712 29.635544,94.4875415 29.7535395,94.2656194 C29.8714522,94.0439053 29.9377331,93.7430372 29.9377331,93.4293839 L29.9377331,10.6008428 C29.9377331,10.2871895 29.8714522,9.98632141 29.7535395,9.76460727 C29.635544,9.54273721 29.475646,9.41805548 29.3088104,9.41805548 L7.61845244,9.41805548 Z" id="路径" fill="#0047AB"></path>
                        <path d="M16.4345733,9.41805548 L16.4345733,94.6121712 L29.4540291,94.6121712 C29.5823423,94.6121712 29.7053197,94.4875415 29.79607,94.2656194 C29.8867565,94.0439053 29.9377331,93.7430372 29.9377331,93.4293839 L29.9377331,10.6008428 C29.9377331,10.2871895 29.8867565,9.98632141 29.79607,9.76460727 C29.7053197,9.54273721 29.5823423,9.41805548 29.4540291,9.41805548 L16.4345733,9.41805548 Z" id="路径" fill="#006EFF"></path>
                        <path d="M76.4845893,9.41805548 C76.3177537,9.41805548 76.1578558,9.54273721 76.0398602,9.76460727 C75.9219476,9.98632141 75.8556666,10.2871895 75.8556666,10.6008428 L75.8556666,93.4293839 C75.8556666,93.7430372 75.9219476,94.0439053 76.0398602,94.2656194 C76.1578558,94.4875415 76.3177537,94.6121712 76.4845893,94.6121712 L98.1749473,94.6121712 L98.1749473,9.41805548 L76.4845893,9.41805548 Z" id="路径" fill="#0047AB"></path>
                        <path d="M76.3393706,9.41805548 C76.2110574,9.41805548 76.0880801,9.54273721 75.9973298,9.76460727 C75.9066432,9.98632141 75.8556666,10.2871895 75.8556666,10.6008428 L75.8556666,93.4293839 C75.8556666,93.7430372 75.9066432,94.0439053 75.9973298,94.2656194 C76.0880801,94.4875415 76.2110574,94.6121712 76.3393706,94.6121712 L89.3588264,94.6121712 L89.3588264,9.41805548 L76.3393706,9.41805548 Z" id="路径" fill="url(#linearGradient-11)"></path>
                        <path d="M101.35937,-1.8189894e-12 L102.292971,-1.8189894e-12 C103.221394,-1.8189894e-12 104.111717,0.372824875 104.768115,1.03656927 C105.424718,1.70015815 105.793451,2.60023578 105.793451,3.53882966 L105.793451,100.491397 C105.793451,101.429991 105.424718,102.330069 104.768115,102.993657 C104.111717,103.657454 103.221394,104.030227 102.292971,104.030227 L101.35937,104.030227 C100.430999,104.030227 99.5406756,103.657454 98.884278,102.993657 C98.2276754,102.330069 97.8589421,101.429991 97.8589421,100.491397 L97.8589421,3.53882966 C97.8589421,2.60023578 98.2276754,1.70015815 98.884278,1.03656927 C99.5406756,0.372824875 100.430999,-1.8189894e-12 101.35937,-1.8189894e-12 Z" id="路径" fill="#99C7FF"></path>
                    </g>
                    <g id="分组-30" transform="translate(215.284635, 94.161209)">
                        <path d="M29.3432186,0 L100.39918,-7.10542736e-15 C116.21255,-1.00102962e-14 129.031819,12.8192688 129.031819,28.6326383 L129.031819,28.6326383 C129.031819,43.7700441 117.115187,56.2248177 101.992535,56.8929866 C96.0939471,57.1536116 92.2326199,57.7514265 90.4085539,58.6864372 C86.5675612,60.6553184 83.6178643,63.1860366 81.5594633,66.2785919 C77.0995946,61.2171554 73.3864273,58.6864372 70.4199616,58.6864372 C56.7277139,58.6864372 43.0354663,58.6864372 29.3432186,58.6864372 L29.3432186,58.6864372 C13.1374065,58.6864372 4.62581523e-13,45.5490307 0,29.3432186 L0,29.3432186 C-1.9846396e-15,13.1374065 13.1374065,2.97695939e-15 29.3432186,0 Z" id="矩形" fill="url(#linearGradient-12)" fill-rule="nonzero"></path>
                        <rect id="矩形" fill="#07B1D6" fill-rule="nonzero" x="59" y="12" width="47" height="13.521739" rx="6.7608695"></rect>
                        <text id="开门成功" font-family="PingFangSC-Medium, 蘋方-簡" font-size="8" font-weight="500" fill="#FFFFFF">
                            <tspan x="66.5415617" y="21">开门成功</tspan>
                        </text>
                        <g id="shouji" transform="translate(13.105793, 11.869018)">
                            <g id="分组">
                                <path d="M17.3536224,0 C7.76837724,0 0,7.76837724 0,17.3536224 C0,26.9386558 7.76837724,34.707033 17.3536224,34.707033 C26.9386558,34.707033 34.707033,26.9386558 34.707033,17.3536224 C34.707033,7.76837724 26.9386558,0 17.3536224,0 Z" id="路径" fill="#FFFFFF"></path>
                                <polyline id="路径-3" stroke="#34CAEA" stroke-width="3" stroke-linecap="round" stroke-linejoin="round" fill-rule="nonzero" points="7.65743073 17.2588202 14.9919748 23.9609136 26.7154084 11.4407912"></polyline>
                            </g>
                        </g>
                        <path d="M62.0415617,31.5667506 L110.857873,31.5667506 C111.6863,31.5667506 112.357873,32.2383235 112.357873,33.0667506 L112.357873,33.2142492 C112.357873,34.0426764 111.6863,34.7142492 110.857873,34.7142492 L62.0415617,34.7142492 C61.2131346,34.7142492 60.5415617,34.0426764 60.5415617,33.2142492 L60.5415617,33.0667506 C60.5415617,32.2383235 61.2131346,31.5667506 62.0415617,31.5667506 Z" id="矩形" fill="#B1FAFF" fill-rule="nonzero"></path>
                        <path d="M62.0415617,39.2644836 L110.857873,39.2644836 C111.6863,39.2644836 112.357873,39.9360565 112.357873,40.7644836 L112.357873,40.9119822 C112.357873,41.7404094 111.6863,42.4119822 110.857873,42.4119822 L62.0415617,42.4119822 C61.2131346,42.4119822 60.5415617,41.7404094 60.5415617,40.9119822 L60.5415617,40.7644836 C60.5415617,39.9360565 61.2131346,39.2644836 62.0415617,39.2644836 Z" id="矩形" fill="#B1FAFF" fill-rule="nonzero"></path>
                    </g>
                    <ellipse id="椭圆形" fill="#C4DFFF" fill-rule="nonzero" cx="332.250474" cy="260.78902" rx="34.9759144" ry="6.0031255"></ellipse>
                    <g id="举牌人物" transform="translate(289.340050, 162.216625)">
                        <path d="M20.4761161,7.1191126 C20.4738092,7.81971705 20.5036976,17.9951658 22.5850791,20.9676159 C24.6664607,23.940066 25.4642845,24.8905783 29.1231408,29.3314965 C31.0014017,34.7604337 22.1216357,37.3040156 19.3933554,34.1385521 C16.665075,30.9730887 15.3609357,22.6891941 16.4360221,15.4370188 C17.5111085,8.18484342 16.6133452,9.0158326 17.3846021,7.12927478 C18.1558589,5.24271695 20.4784229,6.41850815 20.4761161,7.1191126 Z" id="Path-44" fill="#000000" transform="translate(22.720760, 20.815600) rotate(-54.000000) translate(-22.720760, -20.815600) "></path>
                        <path d="M5.56178055,13.1907464 C5.93134341,13.1900707 6.8913209,13.1883154 8.44171302,13.1854807 C10.7673012,13.1812286 10.7670721,13.3057206 10.764661,14.616163 C10.7630535,15.4897913 9.02707625,15.929778 5.55672915,15.9361232 L5.56178055,13.1907464 Z" id="Path-20" fill="#F6C5C1" transform="translate(8.160769, 14.560751) scale(1, -1) rotate(-222.000000) translate(-8.160769, -14.560751) "></path>
                        <path d="M30.9458472,54.4531479 C29.2842525,61.8241482 28.4534552,68.6856502 28.4534552,75.037654 C28.4534552,81.3896577 28.4534552,87.8049679 28.4534552,94.2835846 L30.9458472,94.2835846 C32.550159,91.6400735 33.8970873,88.9699376 34.986632,86.273177 C36.0761768,83.5764163 37.0938256,79.5419535 38.0395785,74.1697884 L42.9115503,64.9753511 L46.0550974,57.0302523 L30.9458472,54.4531479 Z" id="Path-46" stroke="#0A6CFD" stroke-width="1.5972"></path>
                        <polygon id="Path-23" fill="#F6C5C1" transform="translate(30.166012, 97.295122) scale(-1, 1) translate(-30.166012, -97.295122) " points="29.2535298 99.4986134 31.0784935 99.4986134 31.0784935 95.0916307 29.2535298 95.0916307"></polygon>
                        <polygon id="Path-24" fill="#0A2048" transform="translate(28.103009, 99.618819) scale(-1, 1) translate(-28.103009, -99.618819) " points="24.453082 98.2364588 26.3492063 98.2364588 31.7529366 100.131437 31.7529366 101.001178 24.453082 101.001178"></polygon>
                        <polygon id="Path-23" fill="#F6C5C1" transform="translate(56.568475, 94.597995) scale(-1, 1) rotate(22.000000) translate(-56.568475, -94.597995) " points="55.6747029 96.4286403 57.488548 96.4417478 57.4622469 92.7673501 55.6484019 92.7542426"></polygon>
                        <polygon id="Path-24" fill="#0A2048" transform="translate(55.489163, 98.262482) scale(-1, 1) rotate(31.000000) translate(-55.489163, -98.262482) " points="51.8235683 96.867685 53.721335 96.8849513 59.1468887 98.8006241 59.1547568 99.6572788 51.8485791 99.5908058"></polygon>
                        <path d="M39.6545002,55.5847281 L55.5079383,55.5847281 C52.6688422,61.2743142 51.5967928,65.8631663 52.2917902,69.3512843 C52.9867876,72.8394023 54.6415717,80.5686777 57.2561424,92.5391104 L55.5079383,94.3709409 C50.9952155,91.0555731 47.8683222,87.6913325 46.1272585,84.2782192 C44.3861948,80.8651059 42.2286087,75.4264664 39.6545002,67.9623008 L39.6545002,55.5847281 Z" id="Path-47" fill="#FFC107"></path>
                        <path d="M43.5968306,16.5822999 C49.1861898,16.5822999 55.6559931,24.0419601 57.5301277,37.7729677 C58.8001822,47.0781301 56.5818126,56.5003348 55.6559931,58.2866323 C46.4667139,58.7910472 29.9856294,60.3604068 27.8994972,55.8506574 C25.8133651,51.3409079 30.6208449,31.2431285 31.9166689,27.4510723 C33.7637663,22.0457882 38.9755107,16.5822999 43.5968306,16.5822999 Z" id="Path-45" stroke="#0A6CFD" stroke-width="1.5972"></path>
                        <path d="M50.5874894,34.6743958 C53.28756,26.9162834 53.5114056,21.9007829 54.1023077,20.3944755 C54.6932099,18.888168 56.4175415,18.3590279 57.183524,20.3748224 C57.9495065,22.3906169 57.5955795,32.9415893 56.9232819,35.7590992 C56.2509843,38.5766091 57.5879708,44.1608355 58.405352,48.1553091 C59.2227331,52.1497828 62.1683773,54.2578216 58.5704945,58.3872009 C54.9726117,62.5165802 51.8541037,58.9954017 50.0571936,55.4874292 C48.2602836,51.9794566 47.8874187,42.4325081 50.5874894,34.6743958 Z" id="Path-44" fill="#8FB7F2" transform="translate(54.476078, 39.654130) rotate(161.000000) translate(-54.476078, -39.654130) "></path>
                        <path d="M58.1092198,59.1318463 C58.5482302,59.1355209 59.6886048,59.145066 61.5303435,59.1604816 C64.2929515,59.183605 64.2941899,59.3313501 64.3072254,60.8865616 C64.3159157,61.9233693 62.2590169,62.4245202 58.1365291,62.3900144 L58.1092198,59.1318463 Z" id="Path-20" fill="#F6C5C1" transform="translate(61.208236, 60.761764) rotate(63.000000) translate(-61.208236, -60.761764) "></path>
                        <path d="M39.6545002,9.15730502 L39.6545002,7.848769 C41.1984544,6.41625689 42.3997475,5.97359285 43.2583795,6.52077688 C44.5463276,7.34155293 46.5239965,8.41028117 46.5239965,9.96405457 C46.5239965,11.517828 47.2691413,13.3648003 46.5239965,13.8964496 C46.0272333,14.2508825 44.9386943,14.948889 43.2583795,15.9904692 L41.7887639,15.3348438 L39.6545002,9.15730502 Z" id="Path-43" fill="#000000"></path>
                        <path d="M39.8179118,9.52610043 C38.4951548,10.1795291 37.8337764,10.6860165 37.8337764,11.0455628 C37.8337764,11.405109 37.8337764,11.865048 37.8337764,12.4253799 L37.2542763,13.4234709 C37.2542763,14.7580529 37.6815489,15.4253439 38.536094,15.4253439 C39.3906392,15.4253439 39.5947828,16.1076647 39.148525,17.4723061 L39.148525,21.2794983 C41.8230346,20.6750987 43.1602894,19.8894667 43.1602894,18.9226025 C43.1602894,17.9557383 43.1602894,17.0934985 43.1602894,16.3358832 C42.1288703,16.3995042 41.7720849,16.0884762 42.0899332,15.4027993 C42.4077815,14.7171225 42.9294282,14.0573463 43.6548734,13.4234709 C43.5117358,12.7580769 43.3468745,12.4253799 43.1602894,12.4253799 C42.9737042,12.4253799 42.6169188,12.7580769 42.0899332,13.4234709 L42.0899332,11.0455628 C41.2739942,11.2290066 40.7288747,11.2290066 40.4545748,11.0455628 C40.180275,10.8621189 39.968054,10.3556315 39.8179118,9.52610043 Z" id="Path-42" fill="#F6C5C1"></path>
                        <g id="Group-33" transform="translate(0.676793, 0.100183)">
                            <path d="M2.92326396,1.18351729 L9.77599159,1.14648975 C10.3282683,1.14350562 10.7783961,1.58879521 10.7813802,2.1410719 C10.7814008,2.1448755 10.7813996,2.14867919 10.7813768,2.15248277 L10.7166599,12.9247568 C10.7133687,13.4725807 10.2699069,13.9157745 9.72208118,13.9187346 L2.86935355,13.9557622 C2.31707686,13.9587463 1.86694903,13.5134567 1.86396489,12.96118 C1.86394434,12.9573764 1.86394549,12.9535727 1.86396834,12.9497691 L1.92868526,2.17749507 C1.93197644,1.62967121 2.37543821,1.18647738 2.92326396,1.18351729 Z" id="Rectangle-25" fill="#000000" transform="translate(6.322673, 7.551126) rotate(-14.000000) translate(-6.322673, -7.551126) "></path>
                            <ellipse id="Oval-6" fill="#FFFFFF" transform="translate(7.441828, 12.701256) rotate(-14.000000) translate(-7.441828, -12.701256) " cx="7.44182831" cy="12.7012555" rx="1" ry="1"></ellipse>
                            <polygon id="Rectangle-25" fill="#FFFFFF" transform="translate(6.330180, 6.920002) rotate(-14.000000) translate(-6.330180, -6.920002) " points="2.97365759 2.32021676 9.74523967 2.29564507 9.68670336 11.5197866 2.91512128 11.5443583"></polygon>
                        </g>
                    </g>
                    <g id="分组-39">
                        <path d="M135.019592,271.190438 C144.71672,270.046076 149.465957,264.940531 149.465957,255.692079 L149.546513,15.1860271 C149.546513,7.18561524 143.060898,0.7 135.060486,0.7 L29.2918205,0.7 C21.2914087,0.7 14.8057935,7.18561524 14.8057935,15.1860271 L14.8057935,256.691634 C14.8057935,264.692046 21.2914087,271.177661 29.2919051,271.177661 L135.019614,271.190438 Z" id="路径" stroke="url(#linearGradient-13)" stroke-width="1.4" fill-rule="nonzero"></path>
                        <path d="M29.4589606,6.17128463 C29.4589606,6.17128463 29.4589606,6.17128463 29.4589606,6.17128463 C32.6443753,6.17128463 42.0784113,6.17128463 57.7610684,6.17128463 C58.372572,9.17462232 59.4036458,10.6762912 60.8542898,10.6762912 C64.6888466,10.6762912 72.2253255,10.6762912 83.4637265,10.6762912 C93.2164744,10.6762912 100.844911,10.6762912 106.349037,10.6762912 C107.951883,10.6762912 109.088619,9.17462232 109.759245,6.17128463 C123.582485,6.17128463 131.683106,6.17128463 134.061107,6.17128463 C134.061107,6.17128463 134.061107,6.17128463 134.061107,6.17128463 L134.061107,6.17128463 C139.766375,6.17128463 144.391409,10.796318 144.391409,16.5015859 L144.391409,255.30425 C144.391409,261.631962 139.261785,266.761586 132.934073,266.761586 C132.934073,266.761586 132.934073,266.761586 132.934073,266.761586 C116.204862,266.761586 82.2406953,266.761586 31.0415734,266.761586 L31.0415734,266.761586 C24.6096059,266.761586 19.395466,261.547446 19.395466,255.115478 L19.395466,16.2347792 C19.395466,10.6768646 23.901046,6.17128463 29.4589606,6.17128463 Z" id="矩形" fill="url(#linearGradient-14)" fill-rule="nonzero"></path>
                        <g id="分组-40" transform="translate(0.000000, 28.211587)">
                            <g id="og-wac-hero" transform="translate(0.000000, 0.306483)">
                                <g id="分组-41">
                                    <g id="矩形" transform="translate(68.687206, 28.286427) rotate(180.000000) translate(-68.687206, -28.286427) ">
                                        <use fill="black" fill-opacity="1" filter="url(#filter-16)" xlink:href="#path-15"></use>
                                        <use fill="#FFFFFF" fill-rule="evenodd" xlink:href="#path-15"></use>
                                    </g>
                                    <g id="分组-5" transform="translate(51.000000, 11.000000)">
                                        <rect id="矩形" fill="#69A9FF" fill-rule="nonzero" x="0" y="0" width="50" height="16" rx="8"></rect>
                                        <text id="二维码" font-family="PingFangSC-Medium, 蘋方-簡" font-size="9" font-weight="500" fill="#FFFFFF">
                                            <tspan x="11.5" y="11">二维码</tspan>
                                        </text>
                                    </g>
                                    <g id="住户" transform="translate(9.227572, 10.647198)">
                                        <mask id="mask-18" fill="white">
                                            <use xlink:href="#path-17"></use>
                                        </mask>
                                        <use id="椭圆形" fill="#006EFF" xlink:href="#path-17"></use>
                                        <path d="M9.93738519,18.269407 L18.3236873,18.269407 L18.3236873,9.93738519 L9.93738519,9.93738519 L9.93738519,18.269407 Z M12.0339607,16.1864016 L16.2271118,16.1864016 L16.2271118,12.0203906 L12.0339607,12.0203906 L12.0339607,16.1864016 Z M17.2753995,18.269407 L25.6617016,18.269407 L25.6617016,9.93738519 L17.2753995,9.93738519 L17.2753995,18.269407 Z M19.371975,16.1864016 L23.5651261,16.1864016 L23.5651261,12.0203906 L19.371975,12.0203906 L19.371975,16.1864016 Z M13.0822485,15.1448988 L15.178824,15.1448988 L15.178824,13.0618934 L13.0822485,13.0618934 L13.0822485,15.1448988 Z M9.93738519,25.5599261 L18.3236873,25.5599261 L18.3236873,17.2279043 L9.93738519,17.2279043 L9.93738519,25.5599261 Z M12.0339607,23.4769206 L16.2271118,23.4769206 L16.2271118,19.3109097 L12.0339607,19.3109097 L12.0339607,23.4769206 Z M22.5168383,13.0618934 L20.4202628,13.0618934 L20.4202628,15.1448988 L22.5167392,15.1448988 L22.5167392,13.0618934 L22.5168383,13.0618934 Z M17.2753995,25.5599261 L19.371975,25.5599261 L19.371975,23.4769206 L17.2753995,23.4769206 L17.2753995,25.5599261 Z M19.371975,23.4769206 L21.4685506,23.4769206 L21.4685506,19.3109097 L19.371975,19.3109097 L19.371975,23.4769206 Z M23.5650765,23.4769206 L21.4685506,23.4769206 L21.4685506,25.5599261 L25.6617016,25.5599261 L25.6617016,21.3939152 L23.5650765,21.3939152 L23.5650765,23.4769206 Z M23.5651261,19.3109097 L25.6617016,19.3109097 L25.6617016,17.2279043 L23.5651261,17.2279043 L23.5651261,19.3109097 Z M17.2753995,19.3109097 L19.371975,19.3109097 L19.371975,17.2279043 L17.2753995,17.2279043 L17.2753995,19.3109097 Z M13.0822485,22.4354179 L15.178824,22.4354179 L15.178824,20.3524125 L13.0822485,20.3524125 L13.0822485,22.4354179 Z" id="erweima-(5)" fill="#FFFFFF" opacity="0.9" mask="url(#mask-18)"></path>
                                    </g>
                                    <rect id="Rectangle-28" fill="#D3E7FF" x="98.7378593" y="36.9899425" width="25.1444238" height="8.70351589" rx="4.35175794"></rect>
                                    <path d="M55.1950766,31.3948252 L123.882283,31.3948252" id="路径" stroke="#D3E7FF" stroke-width="1.728" stroke-linecap="round"></path>
                                    <path d="M55.1950766,37.6116222 L90.7652371,37.6116222" id="路径" stroke="#D3E7FF" stroke-width="1.728" stroke-linecap="round"></path>
                                    <path d="M55.1950766,43.8284193 L90.7652371,43.8284193" id="路径" stroke="#D3E7FF" stroke-width="1.728" stroke-linecap="round"></path>
                                </g>
                            </g>
                            <g id="og-wac-hero" transform="translate(0.000000, 71.287806)">
                                <g id="分组-41">
                                    <g id="矩形" transform="translate(68.687206, 28.286427) rotate(180.000000) translate(-68.687206, -28.286427) ">
                                        <use fill="black" fill-opacity="1" filter="url(#filter-20)" xlink:href="#path-19"></use>
                                        <use fill="#FFFFFF" fill-rule="evenodd" xlink:href="#path-19"></use>
                                    </g>
                                    <g id="分组-5" transform="translate(51.000000, 10.018677)">
                                        <rect id="矩形" fill="#69A9FF" fill-rule="nonzero" x="0" y="0" width="50" height="16" rx="8"></rect>
                                        <text id="蓝牙" font-family="PingFangSC-Medium, 蘋方-簡" font-size="9" font-weight="500" fill="#FFFFFF">
                                            <tspan x="16" y="11">蓝牙</tspan>
                                        </text>
                                    </g>
                                    <g id="住户" transform="translate(9.227572, 10.647198)">
                                        <mask id="mask-22" fill="white">
                                            <use xlink:href="#path-21"></use>
                                        </mask>
                                        <use id="椭圆形" fill="#00B4FF" xlink:href="#path-21"></use>
                                        <path d="M17.2628155,28.4750215 L23.2453483,22.2472464 L19.299361,18.1414835 L23.2453483,14.0357206 L17.2628155,7.80794551 L17.2628155,16.0074486 L13.9754556,12.5869814 L12.7766381,13.8343398 L16.9046146,18.1414835 L12.7766381,22.4486272 L13.9754556,23.6959856 L17.2628155,20.2755184 L17.2628155,28.4750215 Z M18.8656407,12.0269752 L20.7866375,14.0257544 L18.8771956,16.0125108 L18.8656407,12.0269752 Z M18.8771956,20.4650346 L20.7866375,22.451791 L18.8656407,24.4505702 L18.8771956,20.4650346 Z" id="形状" fill="#FFFFFF" fill-rule="nonzero" opacity="0.9" mask="url(#mask-22)"></path>
                                    </g>
                                    <rect id="Rectangle-28" fill="#D3E7FF" x="98.7378593" y="36.9899425" width="25.1444238" height="8.70351589" rx="4.35175794"></rect>
                                    <path d="M55.1950766,31.3948252 L123.882283,31.3948252" id="路径" stroke="#D3E7FF" stroke-width="1.728"></path>
                                    <path d="M55.1950766,37.6116222 L90.7652371,37.6116222" id="路径" stroke="#D3E7FF" stroke-width="1.728"></path>
                                    <path d="M55.1950766,43.8284193 L90.7652371,43.8284193" id="路径" stroke="#D3E7FF" stroke-width="1.728"></path>
                                </g>
                            </g>
                            <g id="og-wac-hero" transform="translate(0.000000, 142.269129)">
                                <g id="分组-41">
                                    <g id="矩形" transform="translate(68.687206, 28.286427) rotate(180.000000) translate(-68.687206, -28.286427) ">
                                        <use fill="black" fill-opacity="1" filter="url(#filter-24)" xlink:href="#path-23"></use>
                                        <use fill="#FFFFFF" fill-rule="evenodd" xlink:href="#path-23"></use>
                                    </g>
                                    <g id="分组-5" transform="translate(51.000000, 10.037354)">
                                        <rect id="矩形" fill="#69A9FF" fill-rule="nonzero" x="0" y="0" width="50" height="16" rx="8"></rect>
                                        <text id="人脸识别" font-family="PingFangSC-Medium, 蘋方-簡" font-size="9" font-weight="500" fill="#FFFFFF">
                                            <tspan x="7" y="11">人脸识别</tspan>
                                        </text>
                                    </g>
                                    <g id="住户" transform="translate(9.227572, 10.647198)">
                                        <mask id="mask-26" fill="white">
                                            <use xlink:href="#path-25"></use>
                                        </mask>
                                        <use id="椭圆形" fill="#1E8FFF" xlink:href="#path-25"></use>
                                        <g id="分组-4" mask="url(#mask-26)" fill="#FFFFFF" fill-rule="nonzero" opacity="0.9">
                                            <g transform="translate(10.647198, 9.227572)" id="路径">
                                                <path d="M11.4324743,-3.88133969e-13 L11.4324743,1.11525268 L13.6564916,1.11525268 L13.6564916,3.43655219 L14.7069054,3.43655219 L14.7068884,1.11525268 C14.7068884,0.70498408 14.706894,0.333233187 14.7069054,-3.88133969e-13 L11.4324743,-3.88133969e-13 Z"></path>
                                                <path d="M13.6564916,8.23827471 L13.6564916,10.454586 L11.9851618,10.454586 L11.9851618,10.9678531 C11.9576307,10.9535337 11.8344524,10.8463361 11.6156269,10.6462604 C11.2873888,10.3461468 10.3865261,9.67080566 9.64932403,9.36046299 C11.1462888,8.47037382 12.0938356,6.75886704 11.8032015,4.83540283 C11.5291561,3.03079325 10.1224339,1.52199966 8.32687249,1.14892816 C8.00677963,1.08185606 7.68055953,1.04799947 7.35344729,1.04790172 C6.15928845,1.04755129 5.01393814,1.5194542 4.16954029,2.35972307 C3.32514244,3.19999194 2.85092065,4.33974166 2.85127281,5.52806124 C2.85127281,7.16363311 3.74241803,8.58064451 5.056907,9.3624439 C4.3216956,9.67278657 3.49836755,10.3006974 3.16869657,10.5617286 C2.94891593,10.7357493 2.80311142,10.8711242 2.73128306,10.9678531 C2.73128306,10.7938323 2.73128306,10.6234036 2.73128306,10.4565669 L1.05040301,10.4565669 L1.05040301,8.24025562 L6.22530123e-06,8.24025562 L6.22530141e-06,10.4565669 C6.22530141e-06,10.8408635 4.15020102e-06,11.1886234 2.46913601e-13,11.4998465 L2.34432199,11.5018274 C1.46644773,12.6329273 0.85731049,14.0499387 0.665545062,15.6326863 C0.594545405,16.215074 0.461835767,16.7287902 1.05040301,16.7287902 L13.5448666,16.7287902 C14.1340974,16.7287902 14.1103585,16.2137534 14.040686,15.6326863 C13.8495841,14.0479578 13.2397833,12.6309464 12.361909,11.4998465 L14.7068884,11.4998465 C14.7068884,11.1873028 14.7068884,10.8388826 14.7068884,10.454586 L14.7068884,8.23761441 L13.6564916,8.23827471 Z"></path>
                                                <polygon points="1.05106656 3.43655219 1.05106656 1.11525268 3.27508386 1.11525268 3.27442031 -5.24913446e-13 6.2253014e-06 -5.24913446e-13 6.22530131e-06 3.43655219"></polygon>
                                            </g>
                                        </g>
                                    </g>
                                    <rect id="Rectangle-28" fill="#D3E7FF" x="98.7378593" y="36.9899425" width="25.1444238" height="8.70351589" rx="4.35175794"></rect>
                                    <path d="M55.1950766,31.3948252 L123.882283,31.3948252" id="路径" stroke="#D3E7FF" stroke-width="1.728"></path>
                                    <path d="M55.1950766,37.6116222 L90.7652371,37.6116222" id="路径" stroke="#D3E7FF" stroke-width="1.728"></path>
                                    <path d="M55.1950766,43.8284193 L90.7652371,43.8284193" id="路径" stroke="#D3E7FF" stroke-width="1.728"></path>
                                </g>
                            </g>
                        </g>
                    </g>
                </g>
                <g id="分组-20" transform="translate(525.000000, 311.000000)" fill-rule="nonzero">
                    <ellipse id="椭圆形" fill="#CFE3FC" cx="16.6222222" cy="33.6222222" rx="16.6222222" ry="3.4"></ellipse>
                    <circle id="椭圆形" fill="#91C0FF" cx="22.2888889" cy="13.2222222" r="11.7111111"></circle>
                    <ellipse id="椭圆形" stroke="#ADCDF2" stroke-width="1.5" cx="17" cy="13.6" rx="13.2222222" ry="13.6"></ellipse>
                    <path d="M17,18.8888889 L17,31.7333333" id="路径-11" stroke="#234BC1" stroke-width="2"></path>
                </g>
            </g>
        </g>
    </g>
</svg>