<?xml version="1.0" encoding="UTF-8"?>
<svg width="692px" height="436px" viewBox="0 0 692 436" version="1.1" xmlns="http://www.w3.org/2000/svg" xmlns:xlink="http://www.w3.org/1999/xlink">
    <!-- Generator: Sketch 52.2 (67145) - http://www.bohemiancoding.com/sketch -->
    <title>停车缴费</title>
    <desc>Created with Sketch.</desc>
    <defs>
        <linearGradient x1="50%" y1="0%" x2="50%" y2="100%" id="linearGradient-1">
            <stop stop-color="#B4D2FF" offset="0%"></stop>
            <stop stop-color="#1164E3" offset="100%"></stop>
        </linearGradient>
        <linearGradient x1="50%" y1="0%" x2="50%" y2="100%" id="linearGradient-2">
            <stop stop-color="#5A9BFF" offset="0%"></stop>
            <stop stop-color="#1164E3" offset="100%"></stop>
        </linearGradient>
        <linearGradient x1="50%" y1="0%" x2="50%" y2="100%" id="linearGradient-3">
            <stop stop-color="#3D84F1" offset="0%"></stop>
            <stop stop-color="#1164E3" offset="100%"></stop>
        </linearGradient>
        <linearGradient x1="50%" y1="0%" x2="50%" y2="113.908335%" id="linearGradient-4">
            <stop stop-color="#92BDFF" offset="0%"></stop>
            <stop stop-color="#88B7FF" stop-opacity="0.648267663" offset="100%"></stop>
        </linearGradient>
        <linearGradient x1="50%" y1="0%" x2="50%" y2="100%" id="linearGradient-5">
            <stop stop-color="#3E85F1" offset="0%"></stop>
            <stop stop-color="#FFFFFF" offset="100%"></stop>
        </linearGradient>
        <linearGradient x1="50%" y1="0%" x2="50%" y2="158.788411%" id="linearGradient-6">
            <stop stop-color="#1164E3" offset="0%"></stop>
            <stop stop-color="#FFFFFF" offset="100%"></stop>
        </linearGradient>
        <linearGradient x1="50%" y1="0%" x2="50%" y2="100%" id="linearGradient-7">
            <stop stop-color="#1164E3" offset="0%"></stop>
            <stop stop-color="#FFFFFF" offset="100%"></stop>
        </linearGradient>
        <linearGradient x1="0%" y1="-24.4752297%" x2="100%" y2="56.7783232%" id="linearGradient-8">
            <stop stop-color="#004CC0" offset="0%"></stop>
            <stop stop-color="#1164E3" offset="100%"></stop>
        </linearGradient>
        <linearGradient x1="50%" y1="0%" x2="50%" y2="100%" id="linearGradient-9">
            <stop stop-color="#448AF3" offset="0%"></stop>
            <stop stop-color="#1164E3" offset="100%"></stop>
        </linearGradient>
        <linearGradient x1="50%" y1="0%" x2="50%" y2="88.2306592%" id="linearGradient-10">
            <stop stop-color="#A5CAFF" offset="0%"></stop>
            <stop stop-color="#74ABFF" offset="100%"></stop>
        </linearGradient>
        <linearGradient x1="57.3004645%" y1="33.652674%" x2="57.3004645%" y2="100%" id="linearGradient-11">
            <stop stop-color="#C0D9F9" offset="0%"></stop>
            <stop stop-color="#DFEDFF" offset="100%"></stop>
        </linearGradient>
        <linearGradient x1="49.0998884%" y1="-41.6455078%" x2="49.0998884%" y2="50%" id="linearGradient-12">
            <stop stop-color="#ABCFFF" offset="0%"></stop>
            <stop stop-color="#F3FBFF" offset="100%"></stop>
        </linearGradient>
        <linearGradient x1="-18.5312207%" y1="14.0989627%" x2="67.4586911%" y2="105.270986%" id="linearGradient-13">
            <stop stop-color="#00B3FF" offset="0%"></stop>
            <stop stop-color="#00FFFC" offset="100%"></stop>
        </linearGradient>
        <linearGradient x1="50%" y1="0%" x2="50%" y2="100%" id="linearGradient-14">
            <stop stop-color="#BEDEFF" offset="0%"></stop>
            <stop stop-color="#A2CFFA" offset="100%"></stop>
        </linearGradient>
        <path d="M8.64,-1.27897692e-13 L140.303575,-1.29674049e-13 C145.075315,-1.13597977e-13 148.943575,3.86825976 148.943575,8.64 L148.943575,52.6972084 C148.943575,57.4689487 145.075315,61.3372084 140.303575,61.3372084 L8.64,61.3372084 C3.86825976,61.3372084 -2.83632725e-13,57.4689487 -2.84217094e-13,52.6972084 L-2.84217094e-13,8.64 C-2.84801464e-13,3.86825976 3.86825976,-1.28797495e-13 8.64,-1.29674049e-13 Z" id="path-15"></path>
        <filter x="-16.1%" y="-39.1%" width="132.2%" height="178.3%" filterUnits="objectBoundingBox" id="filter-16">
            <feOffset dx="0" dy="0" in="SourceAlpha" result="shadowOffsetOuter1"></feOffset>
            <feGaussianBlur stdDeviation="8" in="shadowOffsetOuter1" result="shadowBlurOuter1"></feGaussianBlur>
            <feColorMatrix values="0 0 0 0 0.619525935   0 0 0 0 0.619525935   0 0 0 0 0.619525935  0 0 0 0.0419780344 0" type="matrix" in="shadowBlurOuter1"></feColorMatrix>
        </filter>
        <circle id="path-17" cx="19.2397764" cy="19.2397764" r="19.2397764"></circle>
        <path d="M8.64,0 L140.303575,1.77635684e-15 C145.075315,8.99802378e-16 148.943575,3.86825976 148.943575,8.64 L148.943575,52.6972084 C148.943575,57.4689487 145.075315,61.3372084 140.303575,61.3372084 L8.64,61.3372084 C3.86825976,61.3372084 2.36072648e-15,57.4689487 1.77635684e-15,52.6972084 L1.77635684e-15,8.64 C1.1919872e-15,3.86825976 3.86825976,-8.99802378e-16 8.64,-1.77635684e-15 Z" id="path-19"></path>
        <filter x="-16.1%" y="-39.1%" width="132.2%" height="178.3%" filterUnits="objectBoundingBox" id="filter-20">
            <feOffset dx="0" dy="0" in="SourceAlpha" result="shadowOffsetOuter1"></feOffset>
            <feGaussianBlur stdDeviation="8" in="shadowOffsetOuter1" result="shadowBlurOuter1"></feGaussianBlur>
            <feColorMatrix values="0 0 0 0 0.619525935   0 0 0 0 0.619525935   0 0 0 0 0.619525935  0 0 0 0.0794553895 0" type="matrix" in="shadowBlurOuter1"></feColorMatrix>
        </filter>
        <circle id="path-21" cx="19.2397764" cy="19.2397764" r="19.2397764"></circle>
        <polygon id="path-23" points="5.87601949e-17 0 21.1483622 0 21.1483622 21.1483622 5.87601949e-17 21.1483622"></polygon>
        <path d="M8.64,0 L140.303575,0 C145.075315,-8.76554461e-16 148.943575,3.86825976 148.943575,8.64 L148.943575,52.6972084 C148.943575,57.4689487 145.075315,61.3372084 140.303575,61.3372084 L8.64,61.3372084 C3.86825976,61.3372084 6.59888318e-15,57.4689487 1.77635684e-15,52.6972084 L1.77635684e-15,8.64 C1.1919872e-15,3.86825976 3.86825976,8.76554461e-16 8.64,0 Z" id="path-25"></path>
        <filter x="-16.1%" y="-39.1%" width="132.2%" height="178.3%" filterUnits="objectBoundingBox" id="filter-26">
            <feOffset dx="0" dy="0" in="SourceAlpha" result="shadowOffsetOuter1"></feOffset>
            <feGaussianBlur stdDeviation="8" in="shadowOffsetOuter1" result="shadowBlurOuter1"></feGaussianBlur>
            <feColorMatrix values="0 0 0 0 0.619525935   0 0 0 0 0.619525935   0 0 0 0 0.619525935  0 0 0 0.102439991 0" type="matrix" in="shadowBlurOuter1"></feColorMatrix>
        </filter>
        <circle id="path-27" cx="19.2397764" cy="19.2397764" r="19.2397764"></circle>
        <linearGradient x1="0%" y1="50%" x2="43.7705592%" y2="100%" id="linearGradient-29">
            <stop stop-color="#FAE204" offset="0%"></stop>
            <stop stop-color="#F2B702" offset="100%"></stop>
        </linearGradient>
        <linearGradient x1="33.923077%" y1="-20.2258026%" x2="50%" y2="100%" id="linearGradient-30">
            <stop stop-color="#4D98F7" offset="0%"></stop>
            <stop stop-color="#0367FD" offset="100%"></stop>
        </linearGradient>
        <linearGradient x1="50%" y1="0%" x2="50%" y2="100%" id="linearGradient-31">
            <stop stop-color="#88DBF3" offset="0%"></stop>
            <stop stop-color="#50E3C2" offset="100%"></stop>
        </linearGradient>
        <linearGradient x1="86.9292269%" y1="-40.5525447%" x2="50%" y2="100%" id="linearGradient-32">
            <stop stop-color="#0080F3" offset="0%"></stop>
            <stop stop-color="#0045D7" offset="100%"></stop>
        </linearGradient>
        <linearGradient x1="105.449278%" y1="41.4322377%" x2="24.8638228%" y2="117.079502%" id="linearGradient-33">
            <stop stop-color="#31BBFF" offset="0%"></stop>
            <stop stop-color="#50E3C2" offset="100%"></stop>
        </linearGradient>
    </defs>
    <g id="页面-1" stroke="none" stroke-width="1" fill="none" fill-rule="evenodd">
        <g id="切图">
            <g id="停车缴费">
                <g id="分组-48" transform="translate(0.414128, 0.000000)" fill-rule="nonzero">
                    <path d="M0.00020224191,222.321156 C60.0435603,246.298688 97.8121914,249.540922 113.306096,232.047859 C114.915457,230.230844 152.502318,215.337571 154.205247,213.534005 C223.865239,139.757347 255.171231,0.70528171 349.027962,0.70528171 C478.313394,0.70528171 621.537786,21.0731556 612.948041,91.3967446 C604.358297,161.720334 628.959193,190.420677 661.537786,196.537011 C694.116379,202.653345 712.835127,252.621048 643.92599,314.260202 C575.016852,375.899357 528.795467,428.794588 496.479995,432.961773 C445.393768,439.549507 407.574149,394.684841 365.004357,394.684841 C322.434565,394.684841 316.094416,410.768119 270.149831,428.054443 C239.520109,439.578658 197.53858,431.1677 144.205247,402.821568 C54.1838374,351.914284 6.11548917,291.747479 0.00020224191,222.321156 Z" id="路径-2" fill="#DFF4FF" transform="translate(345.395560, 217.163756) scale(-1, 1) translate(-345.395560, -217.163756) "></path>
                    <path d="M0.0482888227,218.318445 C2.62187755,115.040483 219.790617,0.70528171 349.076049,0.70528171 C478.361481,0.70528171 621.585872,20.7052817 612.996128,89.7587226 C604.406383,158.812164 629.007279,186.994136 661.585872,193 C694.164466,199.005864 712.883214,248.071077 643.974076,308.596937 C575.064939,369.122797 494.178591,406.304033 461.863119,410.395952 C410.776892,416.864702 384.987193,382.769996 342.4174,382.769996 C299.847608,382.769996 287.054431,391.185409 246.36625,420.02933 C205.678068,448.873252 129.179647,437.559706 114.088516,387.568988 C98.9973837,337.57827 -2.5252999,321.596407 0.0482888227,218.318445 Z" id="路径-2" fill="#F3FBFF"></path>
                </g>
                <g id="分组-2" opacity="0.45" transform="translate(92.032305, 105.103596)">
                    <g id="分组-15">
                        <g id="Group-22" transform="translate(0.000000, 54.925891)">
                            <g id="分组-47" opacity="0.408528646" transform="translate(377.757116, 0.000000)">
                                <g id="Group-20">
                                    <g id="Group-19" transform="translate(0.000000, 25.160578)" fill="url(#linearGradient-1)">
                                        <polygon id="Path-31" points="0.0672493744 140.291674 0.0672493744 15.6316911 10.1746873 15.6316911 10.1746873 0.274272746 18.5837207 0.274272746 23.6689181 0.274272746 29.9646042 0.274272746 36.4291292 0.274272746 42.6947677 0.274272746 42.6947677 140.291674"></polygon>
                                    </g>
                                    <polygon id="Path-32" fill="url(#linearGradient-2)" points="42.4086001 0.517924029 62.0411249 0.517924029 62.0411249 15.0509961 69.9922903 15.0509961 67.4139207 165.209236 42.4086001 165.209236"></polygon>
                                </g>
                                <polygon id="Path-35" fill="url(#linearGradient-3)" points="67.4812556 53.5888343 95.7963057 53.5888343 95.7963057 69.0441215 103.34881 69.0441215 103.34881 165.726425 67.4812556 165.726425"></polygon>
                                <polygon id="Path-35" fill="url(#linearGradient-4)" transform="translate(67.832898, 109.657630) scale(-1, 1) translate(-67.832898, -109.657630) " points="55.5254043 53.5888343 72.6301993 53.5888343 72.6301993 69.0441215 80.1403923 69.0441215 80.1403923 165.726425 55.5254043 165.726425"></polygon>
                                <g id="Group-16" opacity="0.675668025" transform="translate(102.877677, 45.992869)">
                                    <polygon id="Path-38" fill="url(#linearGradient-5)" points="0.170163402 130.131977 0.170163402 9.20651944 7.25796129 0.153963547 13.5132242 9.20651944 13.5132242 130.131977"></polygon>
                                    <polygon id="Path-39" fill="#82B3FF" points="7.24442557 0.192532668 23.9921607 0.0907508714 30.2372279 9.10825815 13.4215504 9.10825815"></polygon>
                                    <polygon id="Rectangle-8" fill="url(#linearGradient-6)" points="13.3205598 9.05990984 30.241271 9.05990984 30.241271 130.124858 13.3205598 130.124858"></polygon>
                                </g>
                            </g>
                            <g id="Group-16" opacity="0.675668025" transform="translate(0.477533, 8.042036)">
                                <polygon id="Path-38" fill="url(#linearGradient-5)" points="0.228861217 175.020965 0.228861217 12.3823056 9.76159289 0.207073228 18.1746069 12.3823056 18.1746069 175.020965"></polygon>
                                <polygon id="Path-39" fill="#82B3FF" points="9.74338802 0.258946755 32.2682494 0.122055358 40.6675507 12.2501491 18.0513103 12.2501491"></polygon>
                                <polygon id="Rectangle-8" fill="url(#linearGradient-7)" points="17.915483 12.1851231 40.6729885 12.1851231 40.6729885 175.01139 17.915483 175.01139"></polygon>
                            </g>
                        </g>
                        <g id="分组-37" transform="translate(179.662654, 0.000000)" fill-rule="nonzero">
                            <polygon id="路径-14" fill="url(#linearGradient-8)" points="0 210.592227 0 86.8696259 10.8383268 86.8696259 10.8383268 71.8346662 40.9484885 71.8687758 40.9484885 210.592227"></polygon>
                            <polygon id="路径-15" fill="url(#linearGradient-9)" opacity="0.281691778" points="36.3893711 231.34849 36.3893711 53.412604 57.0525368 53.412604 57.0525368 32.6071929 88.2017443 32.6071929 88.2017443 231.34849"></polygon>
                            <polygon id="路径-16" fill="url(#linearGradient-10)" opacity="0.913364955" points="85.2397108 32.7430152 126.188199 32.7430152 126.188199 235.754399 85.2397108 235.754399"></polygon>
                            <polygon id="路径-17" fill="url(#linearGradient-11)" points="106.96748 236.477095 106.96748 1.09122955e-11 144.084268 1.09122955e-11 144.084268 28.5319866 168.808055 28.5319866 168.808055 236.477095"></polygon>
                            <polygon id="矩形" fill="#82B4FF" opacity="0.456612723" points="117.831365 37.6206777 122.009782 37.6206777 122.009782 198.39807 117.831365 198.39807"></polygon>
                            <polygon id="矩形" fill="#82B4FF" opacity="0.456612723" points="130.088055 37.6206777 134.266473 37.6206777 134.266473 198.39807 130.088055 198.39807"></polygon>
                            <polygon id="矩形" fill="#82B4FF" opacity="0.456612723" points="142.344746 37.6206777 146.523163 37.6206777 146.523163 198.39807 142.344746 198.39807"></polygon>
                            <polygon id="矩形" fill="#82B4FF" opacity="0.456612723" points="154.601436 37.6206777 158.779853 37.6206777 158.779853 198.39807 154.601436 198.39807"></polygon>
                        </g>
                    </g>
                </g>
                <ellipse id="椭圆形" fill="url(#linearGradient-12)" fill-rule="nonzero" cx="343.099146" cy="336.132925" rx="260.652993" ry="33.4273376"></ellipse>
                <ellipse id="椭圆形" fill="#C4DFFF" fill-rule="nonzero" cx="139.302206" cy="370.359945" rx="27.2489205" ry="5.58991028"></ellipse>
                <path d="M296.645308,371.332793 L323.909347,301.855342 L323.909347,81.2569043 C323.909347,72.3969019 316.726896,65.2144509 307.866893,65.2144509 L191.257925,65.2144509 C182.397923,65.2144509 175.215472,72.3969019 175.215472,81.2569043 L175.215472,355.29034 C175.215472,364.150342 182.397923,371.332793 191.257925,371.332793 L296.645308,371.332793 Z" id="路径" stroke="url(#linearGradient-13)" stroke-width="1.4" fill-rule="nonzero"></path>
                <path d="M191.778723,71.5639049 C191.778723,71.5639049 191.778723,71.5639049 191.778723,71.5639049 C195.290613,71.5639049 205.69155,71.5639049 222.981533,71.5639049 C223.65571,74.8750568 224.792459,76.5306327 226.391781,76.5306327 C230.619344,76.5306327 238.928242,76.5306327 251.318474,76.5306327 C262.070788,76.5306327 270.481068,76.5306327 276.549316,76.5306327 C278.316439,76.5306327 279.56968,74.8750568 280.309038,71.5639049 C295.549032,71.5639049 304.479891,71.5639049 307.101615,71.5639049 C307.101615,71.5639049 307.101615,71.5639049 307.101615,71.5639049 L307.101615,71.5639049 C313.391731,71.5639049 318.490877,76.663051 318.490877,82.9531665 L318.490902,354.006206 C318.490902,360.982574 312.835439,366.638038 305.859071,366.638038 C305.859071,366.638038 305.859071,366.638038 305.859071,366.638038 C287.415271,366.638038 249.970094,366.638038 193.523539,366.638038 L193.523539,366.638038 C186.432316,366.638038 180.683744,360.889466 180.683744,353.798243 L180.683744,82.6588838 C180.683744,76.5312962 185.651135,71.5639049 191.778723,71.5639049 Z" id="矩形" fill="url(#linearGradient-14)" fill-rule="nonzero"></path>
                <g id="分组-40" transform="translate(144.555292, 112.979448)">
                    <g id="og-wac-hero" transform="translate(0.000000, 0.377100)">
                        <g id="分组-41">
                            <g id="矩形" transform="translate(74.471787, 30.668604) rotate(180.000000) translate(-74.471787, -30.668604) ">
                                <use fill="black" fill-opacity="1" filter="url(#filter-16)" xlink:href="#path-15"></use>
                                <use fill="#FFFFFF" fill-rule="evenodd" xlink:href="#path-15"></use>
                            </g>
                            <g id="分组-5" transform="translate(60.000000, 11.972463)">
                                <rect id="矩形" fill="#69A9FF" fill-rule="nonzero" x="0" y="0" width="50" height="16" rx="8"></rect>
                                <text id="车牌识别" font-family="PingFangSC-Medium, 蘋方-簡" font-size="9" font-weight="500" fill="#FFFFFF">
                                    <tspan x="7" y="11">车牌识别</tspan>
                                </text>
                            </g>
                            <g id="住户" transform="translate(10.004684, 11.543866)">
                                <mask id="mask-18" fill="white">
                                    <use xlink:href="#path-17"></use>
                                </mask>
                                <use id="椭圆形" fill="#006EFF" xlink:href="#path-17"></use>
                                <path d="M9.04945408,12.3365446 L29.7225434,12.3365446 C30.8271129,12.3365446 31.7225434,13.2319751 31.7225434,14.3365446 L31.7225434,23.554271 C31.7225434,24.6588405 30.8271129,25.554271 29.7225434,25.554271 L9.04945408,25.554271 C7.94488458,25.554271 7.04945408,24.6588405 7.04945408,23.554271 L7.04945408,14.3365446 C7.04945408,13.2319751 7.94488458,12.3365446 9.04945408,12.3365446 Z" id="矩形" fill="#FFFFFF" fill-rule="nonzero" mask="url(#mask-18)"></path>
                                <circle id="椭圆形" fill="#006EFF" fill-rule="nonzero" mask="url(#mask-18)" cx="29.0789981" cy="14.0989082" r="1"></circle>
                                <circle id="椭圆形" fill="#006EFF" fill-rule="nonzero" mask="url(#mask-18)" cx="29.0789981" cy="23.7919075" r="1"></circle>
                                <circle id="椭圆形" fill="#006EFF" fill-rule="nonzero" mask="url(#mask-18)" cx="9.69299936" cy="14.0989082" r="1"></circle>
                                <circle id="椭圆形" fill="#006EFF" fill-rule="nonzero" mask="url(#mask-18)" cx="9.69299936" cy="23.7919075" r="1"></circle>
                                <path d="M12.906042,16.2987262 L12.906042,21.5639414" id="路径-2" stroke="#006EFF" stroke-width="1.5" stroke-linecap="round" fill-rule="nonzero" mask="url(#mask-18)"></path>
                                <path d="M16.6510645,16.2987262 L16.6510645,21.5639414" id="路径-2" stroke="#006EFF" stroke-width="1.5" stroke-linecap="round" fill-rule="nonzero" mask="url(#mask-18)"></path>
                                <path d="M19.9554961,16.2987262 L19.9554961,21.5639414" id="路径-2" stroke="#006EFF" stroke-width="1.5" stroke-linecap="round" fill-rule="nonzero" mask="url(#mask-18)"></path>
                                <path d="M23.2599277,16.2987262 L23.2599277,21.5639414" id="路径-2" stroke="#006EFF" stroke-width="1.5" stroke-linecap="round" fill-rule="nonzero" mask="url(#mask-18)"></path>
                                <path d="M26.5643593,16.2987262 L26.5643593,21.5639414" id="路径-2" stroke="#006EFF" stroke-width="1.5" stroke-linecap="round" fill-rule="nonzero" mask="url(#mask-18)"></path>
                            </g>
                            <rect id="Rectangle-28" fill="#D3E7FF" x="107.053194" y="40.1050978" width="27.2619936" height="9.4364936" rx="4.7182468"></rect>
                            <path d="M59.8434006,34.0387805 L134.315188,34.0387805" id="路径" stroke="#D3E7FF" stroke-width="1.728" stroke-linecap="round" stroke-linejoin="round"></path>
                            <path d="M59.8434006,40.7791331 L98.4091476,40.7791331" id="路径" stroke="#D3E7FF" stroke-width="1.728" stroke-linecap="round" stroke-linejoin="round"></path>
                            <path d="M59.8434006,47.5194857 L98.4091476,47.5194857" id="路径" stroke="#D3E7FF" stroke-width="1.728" stroke-linecap="round" stroke-linejoin="round"></path>
                        </g>
                    </g>
                    <g id="og-wac-hero" transform="translate(0.000000, 77.336205)">
                        <g id="分组-41">
                            <g id="矩形" transform="translate(74.471787, 30.668604) rotate(180.000000) translate(-74.471787, -30.668604) ">
                                <use fill="black" fill-opacity="1" filter="url(#filter-20)" xlink:href="#path-19"></use>
                                <use fill="#FFFFFF" fill-rule="evenodd" xlink:href="#path-19"></use>
                            </g>
                            <g id="分组-5" transform="translate(60.000000, 11.013358)">
                                <rect id="矩形" fill="#69A9FF" fill-rule="nonzero" x="0" y="0" width="50" height="16" rx="8"></rect>
                                <text id="微信支付" font-family="PingFangSC-Medium, 蘋方-簡" font-size="9" font-weight="500" fill="#FFFFFF">
                                    <tspan x="7" y="11">微信支付</tspan>
                                </text>
                            </g>
                            <g id="住户" transform="translate(10.004684, 11.543866)">
                                <mask id="mask-22" fill="white">
                                    <use xlink:href="#path-21"></use>
                                </mask>
                                <use id="椭圆形" fill="#00B4FF" xlink:href="#path-21"></use>
                                <g id="weixinzhifu" mask="url(#mask-22)">
                                    <g transform="translate(9.381315, 8.931104)">
                                        <mask id="mask-24" fill="white">
                                            <use xlink:href="#path-23"></use>
                                        </mask>
                                        <g id="Clip-2" stroke="none" fill="none"></g>
                                        <path d="M8.06243571,13.3168563 C6.79663033,14.0814449 6.60887127,12.8877708 6.60887127,12.8877708 L5.02250982,8.87802471 C4.41198952,6.97260726 5.55072902,8.01895013 5.55072902,8.01895013 C5.55072902,8.01895013 6.52778351,8.81955177 7.26939697,9.30731674 C8.01049411,9.79541732 8.85526791,9.45072388 8.85526791,9.45072388 L19.2267038,4.26537484 C17.3129967,1.68618911 14.1522524,0 10.5736261,0 C4.73368149,0 0,4.48762363 0,10.0238103 C0,13.2085588 1.56730931,16.0423406 4.00902908,17.8791911 L3.56863559,20.6210168 C3.56863559,20.6210168 3.35384727,21.4213086 4.09786161,21.0501281 C4.60470524,20.7972101 5.89692028,19.8897049 6.66615676,19.3382006 C7.91528506,19.8088238 9.23938274,20.049247 10.5742457,20.0478271 C16.4136739,20.0478271 21.1483622,15.5602035 21.1483622,10.0240168 C21.1483622,8.42051593 20.7493258,6.90615722 20.0427187,5.561796 C16.7381798,7.7151232 9.05270794,12.7197612 8.06243571,13.3168563 Z" id="Fill-1" stroke="none" fill="#FFFFFF" fill-rule="evenodd" mask="url(#mask-24)"></path>
                                    </g>
                                </g>
                            </g>
                            <rect id="Rectangle-28" fill="#D3E7FF" x="107.053194" y="40.1050978" width="27.2619936" height="9.4364936" rx="4.7182468"></rect>
                            <path d="M59.8434006,34.0387805 L134.315188,34.0387805" id="路径" stroke="#D3E7FF" stroke-width="1.728" stroke-linecap="round" stroke-linejoin="round"></path>
                            <path d="M59.8434006,40.7791331 L98.4091476,40.7791331" id="路径" stroke="#D3E7FF" stroke-width="1.728" stroke-linecap="round" stroke-linejoin="round"></path>
                            <path d="M59.8434006,47.5194857 L98.4091476,47.5194857" id="路径" stroke="#D3E7FF" stroke-width="1.728" stroke-linecap="round" stroke-linejoin="round"></path>
                        </g>
                    </g>
                    <g id="og-wac-hero" transform="translate(0.000000, 154.295311)">
                        <g id="分组-41">
                            <g id="矩形" transform="translate(74.471787, 30.668604) rotate(180.000000) translate(-74.471787, -30.668604) ">
                                <use fill="black" fill-opacity="1" filter="url(#filter-26)" xlink:href="#path-25"></use>
                                <use fill="#FFFFFF" fill-rule="evenodd" xlink:href="#path-25"></use>
                            </g>
                            <g id="分组-5" transform="translate(60.000000, 9.054252)">
                                <rect id="矩形" fill="#69A9FF" fill-rule="nonzero" x="0" y="0" width="50" height="16" rx="8"></rect>
                                <text id="通行记录" font-family="PingFangSC-Medium, 蘋方-簡" font-size="9" font-weight="500" fill="#FFFFFF">
                                    <tspan x="7" y="11">通行记录</tspan>
                                </text>
                            </g>
                            <g id="住户" transform="translate(10.004684, 11.543866)">
                                <mask id="mask-28" fill="white">
                                    <use xlink:href="#path-27"></use>
                                </mask>
                                <use id="椭圆形" fill="#1E8FFF" xlink:href="#path-27"></use>
                                <rect id="矩形" fill="#FFFFFF" fill-rule="nonzero" mask="url(#mask-28)" x="11" y="9" width="17" height="21" rx="3"></rect>
                                <rect id="矩形" fill="#1E8FFF" fill-rule="nonzero" mask="url(#mask-28)" x="14" y="14" width="11" height="2" rx="1"></rect>
                                <rect id="矩形" fill="#1E8FFF" fill-rule="nonzero" mask="url(#mask-28)" x="14" y="14" width="11" height="2" rx="1"></rect>
                                <rect id="矩形" fill="#1E8FFF" fill-rule="nonzero" mask="url(#mask-28)" x="14" y="18" width="11" height="2" rx="1"></rect>
                                <rect id="矩形" fill="#1E8FFF" fill-rule="nonzero" mask="url(#mask-28)" x="14" y="22" width="11" height="2" rx="1"></rect>
                            </g>
                            <rect id="Rectangle-28" fill="#D3E7FF" x="107.053194" y="40.1050978" width="27.2619936" height="9.4364936" rx="4.7182468"></rect>
                            <path d="M59.8434006,34.0387805 L134.315188,34.0387805" id="路径" stroke="#D3E7FF" stroke-width="1.728" stroke-linecap="round" stroke-linejoin="round"></path>
                            <path d="M59.8434006,40.7791331 L98.4091476,40.7791331" id="路径" stroke="#D3E7FF" stroke-width="1.728" stroke-linecap="round" stroke-linejoin="round"></path>
                            <path d="M59.8434006,47.5194857 L98.4091476,47.5194857" id="路径" stroke="#D3E7FF" stroke-width="1.728" stroke-linecap="round" stroke-linejoin="round"></path>
                        </g>
                    </g>
                </g>
                <g id="左边人物" transform="translate(138.073714, 331.824763) rotate(1.000000) translate(-138.073714, -331.824763) translate(121.407224, 294.788120)">
                    <polygon id="Path-23" fill="#F6C5C1" points="10.2188917 71.9450109 11.7215053 71.9450109 11.7215053 68.9397837 10.2188917 68.9397837"></polygon>
                    <polygon id="Path-23" fill="#D9B07C" points="22.0495696 72.4360885 23.5521832 72.4360885 23.5521832 69.4308613 22.0495696 69.4308613"></polygon>
                    <path d="M16.8365046,38.0119418 C17.3454086,46.1025391 17.5934203,51.8236763 17.5805399,55.1753534 C17.5669555,58.7102007 15.9295972,63.6322583 12.6684649,69.9415261 C11.5578638,69.9415261 10.5925087,69.9415261 9.77239939,69.9415261 C9.32759481,69.9415261 9.59714704,60.6314717 7.05370434,55.5417924 C6.51691751,54.4676291 3.05905731,51.923575 2.20230062,49.5285587 C1.25898159,46.8915621 0.547165003,43.1211018 0.0668508601,38.2171778 L16.8365046,38.0119418 Z" id="Path-18" fill="#FFC107"></path>
                    <path d="M22.7565285,37.2063149 C26.2109015,42.8074038 27.9751139,47.7291614 28.0491658,51.9715877 C28.1232176,56.214014 26.9282727,62.0222848 24.464331,69.3964003 L22.0958139,69.3964003 C21.1288464,61.6953092 20.4412268,56.8926584 20.032955,54.988448 C19.6246832,53.0842376 18.469801,50.6929499 16.5683085,47.8145849 L11.749439,41.3978074 L22.7565285,37.2063149 Z" id="Path-19" stroke="#003BA6" stroke-width="1.2"></path>
                    <path d="M12.4831321,9.84525625 C7.68135749,11.679412 4.56285548,14.481539 3.12762609,18.251637 C0.974782002,23.9067841 1.04475956,28.4889538 0.353244682,33.0688703 C-0.338270197,37.6487868 0.166299765,42.4565201 0.353244682,42.5526983 C4.44173876,44.6561206 10.9461322,44.8220234 15.9767256,43.9553184 C19.3304545,43.3775151 22.5196898,41.4632719 25.5444315,38.2125887 C22.6990931,27.8340754 20.5593096,21.087346 19.1250811,17.9724004 C17.6908526,14.8574548 15.4768696,12.1484068 12.4831321,9.84525625 Z" id="Path-15" stroke="#003BA6" stroke-width="1.2"></path>
                    <g id="Group-2" transform="translate(11.440561, 6.654050) rotate(-23.000000) translate(-11.440561, -6.654050) translate(7.934463, 1.235534)">
                        <path d="M0.993405496,5.41851578 C1.1115318,6.63360292 1.01898069,7.48158776 0.715752157,7.9624703 C0.412523625,8.44335284 0.173939573,8.822835 0,9.10091678 L1.62162267,10.8370316 L3.14256951,10.4488907 C3.15486256,9.57958096 3.2655,8.97540071 3.47448182,8.63634989 C3.68346365,8.29729908 2.85643821,7.22468771 0.993405496,5.41851578 Z" id="Path-14" fill="#F4A49E"></path>
                        <path d="M6.55359815,3.0854978 C6.831149,4.42490455 6.831149,5.37753152 6.55359815,5.94337872 C6.13727187,6.79214952 4.81414978,9.2888842 4.43111232,9.2888842 C4.04807485,9.2888842 1.59918575,8.40353604 1.59918575,7.73456716 C1.59918575,7.06559827 0.93016715,5.26603671 0.93016715,4.98333345 C0.93016715,4.7006302 0.500871207,4.94455265 0.500871207,4.42387627 C0.500871207,3.90319989 1.12190205,2.09262106 1.59918575,2.58905943 C1.91737489,2.92001835 2.31849784,2.60844983 2.80255459,1.65435389 L4.02300016,1.2901228 L5.92024613,1.93331127 L6.55359815,3.0854978 Z" id="Path-13" fill="#F6C5C1"></path>
                        <path d="M1.26329093,2.97380842 C1.21808666,2.84287518 1.31079128,2.41224376 1.54140477,1.68191415 C1.88732502,0.586419733 2.56129905,0.0501993785 3.12764389,0.0501993785 C3.69398873,0.0501993785 5.23674565,-0.25271303 6.12447127,0.629645434 C7.01219689,1.5120039 7.01219689,2.38239217 7.01219689,2.67810029 C7.01219689,2.97380842 6.35888766,3.26951654 6.12447127,2.97380842 C5.96819368,2.77666967 5.30409907,2.34603824 4.13218745,1.68191415 L3.12764389,1.68191415 L2.24034878,2.67810029 L1.26329093,2.97380842 Z" id="Path-12" fill="#000000"></path>
                    </g>
                    <path d="M13.0701209,14.3385985 C15.9858472,14.3385985 17.6552302,17.6702544 18.0782697,24.3335663 L27.7296373,32.2187511 L27.7296373,33.8725756 L20.4127798,32.2187511 C16.5516906,30.9357312 13.81775,29.5259443 12.210958,27.9893903 C10.604166,26.4528364 9.43269046,23.8177987 8.69653146,20.0842772 C8.69653146,16.2538248 10.1543946,14.3385985 13.0701209,14.3385985 Z" id="Path-16" fill="#000000" transform="translate(18.213084, 24.105587) rotate(-11.000000) translate(-18.213084, -24.105587) "></path>
                    <polygon id="Path-24" fill="#001F57" points="10.2188917 71.6945753 11.7800966 71.6945753 16.2293461 73.2394448 16.2293461 73.9484958 10.2188917 73.9484958"></polygon>
                    <polygon id="Path-24" fill="#001F57" points="22.0495696 71.4343461 23.6107745 71.4343461 28.0600241 72.9792156 28.0600241 73.6882665 22.0495696 73.6882665"></polygon>
                    <path d="M28.7203929,29.5792991 C29.0226448,29.5792991 29.8077754,29.5792991 31.0757845,29.5792991 C32.9777981,29.5792991 32.9777981,29.6815055 32.9777981,30.7573625 C32.9777981,31.4746005 31.558663,31.8332195 28.7203929,31.8332195 L28.7203929,29.5792991 Z" id="Path-20" fill="#F6C5C1" transform="translate(30.849095, 30.706259) rotate(-11.000000) translate(-30.849095, -30.706259) "></path>
                </g>
                <g id="分组-2" transform="translate(376.306095, 180.533719)">
                    <g id="tingchechang" transform="translate(110.910083, 95.990444) scale(-1, 1) translate(-110.910083, -95.990444) translate(45.722543, 0.000000)">
                        <polygon id="矩形" fill="#FFFFFF" fill-rule="nonzero" transform="translate(40.115409, 141.559866) scale(-1, 1) translate(-40.115409, -141.559866) " points="20.7740512 93.1250571 59.4567673 91.1388448 59.4567673 191.980887 20.7740512 191.980887"></polygon>
                        <path d="M59.4567673,93.7644498 C59.4567673,88.8805671 57.8590994,84.5761379 54.7805335,81.2246783 L128.287931,8.06719657 C130.115668,6.24816008 130.115668,3.18424898 128.287931,1.36427737 C126.460194,-0.454759123 123.380688,-0.454759123 121.552951,1.36427737 L46.6023441,75.8622495 C44.6782991,75.2878538 42.7515053,75.0271729 40.6371235,74.9051571 C29.7836486,74.2788297 22.1211881,82.0415583 20.7740512,91.1388448 L59.4567673,128.744062 L59.4567673,93.7644498 Z" id="路径" fill="url(#linearGradient-29)"></path>
                        <path d="M54.7805335,81.2246783 L128.287931,8.06719657 C130.115668,6.24816008 130.115668,3.18424898 128.287931,1.36427737 C126.460194,-0.454759123 123.380688,-0.454759123 121.552951,1.36427737 L46.6023441,75.8622495 C49.362504,76.8376929 49.1568365,76.8376929 51.0389952,78.0632784 C53.2613176,79.5103647 53.6791242,80.0457856 54.7805335,81.2246783 Z" id="路径" fill="#0160F6"></path>
                        <path d="M40.6371235,98.6529229 C38.0396275,98.6529229 35.8264238,96.5463379 35.8264238,93.8651234 C35.8264238,91.2797585 37.9433196,89.0770902 40.6371235,89.0770902 C43.2348543,89.0770902 45.448058,91.183909 45.448058,93.8651234 C45.3517501,96.5463379 43.2348543,98.6529229 40.6371235,98.6529229 Z" id="路径" fill="#0160F6"></path>
                        <polygon id="路径" fill="#FFD033" points="59.4567673 142.114526 20.7740512 104.206116 20.7740512 121.729508 59.4567673 159.542069"></polygon>
                        <polygon id="Fill-3" fill="#FFD033" points="59.4567673 173.598228 20.7740512 136.105853 20.7740512 153.621953 59.4567673 191.980887"></polygon>
                        <path d="M46.5625286,191.980887 L20.7740512,166.908756 L20.7740512,187.250196 L3.58173297,187.250196 C1.64116124,187.252718 0.670875374,188.034918 0.670875374,189.596796 C0.670875374,191.158674 1.64116124,191.953371 3.58173297,191.980887 L46.5625286,191.980887 Z" id="Fill-4" fill="#FFD033"></path>
                    </g>
                    <g id="分组-30" transform="translate(0.000000, 65.504175)">
                        <path d="M17.7329571,-5.45696821e-12 L70.4891401,-5.4534155e-12 C80.0456174,-5.45517099e-12 87.7926729,7.74705553 87.7926729,17.3035328 L87.7926729,17.3035328 C87.7926729,26.8108886 80.0854383,34.5181232 70.5780825,34.5181232 C70.5607878,34.5181232 70.5434931,34.5180972 70.5261985,34.518045 C47.2264544,34.447837 35.140428,34.6590172 34.2681193,35.1516023 C33.201224,35.7540686 31.6004713,37.2973701 29.4658611,39.7815066 C27.0258614,36.904445 24.94735,35.4659142 23.230327,35.4659142 C21.3978704,35.4659142 19.5654137,35.4659142 17.7329571,35.4659142 L17.7329571,35.4659142 C7.93931533,35.4659142 8.8184388e-14,27.5265989 0,17.7329571 L0,17.7329571 C-1.19937521e-15,7.93931533 7.93931533,-5.45872186e-12 17.7329571,-5.46052092e-12 Z" id="矩形" fill="url(#linearGradient-30)" fill-rule="nonzero"></path>
                        <g id="jiaofei" transform="translate(13.217726, 7.930636)">
                            <path d="M3.91614351,2.35613951 C3.8136864,2.26680257 3.72731781,2.16141138 3.65691529,2.0400881 C3.58661071,1.91876483 3.53543114,1.79106384 3.50337656,1.65696069 C3.47134648,1.52283311 3.47134648,1.3888277 3.50337656,1.25472456 C3.53543114,1.12059698 3.60257678,0.996145932 3.70493593,0.881200378 C3.82010222,0.766181517 3.92255932,0.71513533 4.01208684,0.727915203 C4.10161437,0.740695077 4.20081458,0.772583671 4.30966301,0.823654294 C4.41843797,0.874822659 4.54966828,0.932271001 4.70318251,0.996145932 C4.85672124,1.05989869 5.04870586,1.09188502 5.27903843,1.09188502 C5.4838302,1.09188502 5.64701713,1.03441225 5.76859923,0.919491127 C5.89018133,0.804570008 6.00534761,0.679996787 6.11412257,0.54589364 C6.22287305,0.4118638 6.34129622,0.287315014 6.46929413,0.172393896 C6.59726755,0.0574727771 6.77002923,0 6.98755466,0 C7.20515356,0 7.37475631,0.0574727771 7.49633841,0.172393896 C7.61782255,0.287412757 7.72982991,0.4118638 7.83218906,0.54589364 C7.93462167,0.679996787 8.05304484,0.80132006 8.18736061,0.909839024 C8.32174985,1.01848017 8.50406178,1.0727763 8.73451679,1.07267856 C8.92637898,1.07267856 9.08317458,1.01848017 9.20485463,0.909839024 C9.32641225,0.80132006 9.44473746,0.679996787 9.55992824,0.54589364 C9.67509453,0.4118638 9.79981107,0.287315014 9.93422479,0.172393896 C10.068614,0.0574727771 10.2446081,0 10.4621335,0 C10.679659,0 10.8524206,0.0574727771 10.9803941,0.172393896 C11.1084899,0.287412757 11.2236562,0.4118638 11.3260154,0.54589364 C11.42835,0.679996787 11.5402839,0.804472266 11.6619395,0.919491127 C11.7835216,1.03441225 11.9531243,1.09188502 12.1706498,1.09188502 C12.4009823,1.09188502 12.5897101,1.05999643 12.7369309,0.996145932 C12.8841518,0.932271001 13.0120273,0.874724916 13.1208757,0.823654294 C13.2296507,0.772583671 13.3288509,0.740695077 13.4183784,0.727915203 C13.5080039,0.71513533 13.610363,0.766181517 13.7255293,0.881200378 C13.8279864,0.996145932 13.8919731,1.12059698 13.9175139,1.25472456 C13.9431527,1.3888277 13.9431527,1.52283311 13.9175139,1.65696069 C13.8919731,1.79106384 13.8406956,1.91876483 13.7639752,2.0400881 C13.6871814,2.16141138 13.6039472,2.26680257 13.5144197,2.35613951 C13.4119626,2.44557418 13.2551915,2.59878605 13.0440819,2.81592172 C12.8328743,3.03298409 12.6185078,3.2564486 12.4009823,3.48638858 C12.145011,3.75449713 11.876306,4.04181215 11.5946959,4.34830919 L5.83574487,4.34830919 C5.54142558,4.04181215 5.27262262,3.75449713 5.02948291,3.48638858 C4.81195748,3.2564486 4.59759097,3.03298409 4.38648135,2.81592172 C4.17527377,2.59878605 4.01850265,2.44557418 3.91614351,2.35613951 Z M12.1898727,5.21035198 C13.162505,5.75947113 14.0326802,6.41713368 14.8005942,7.18343738 C15.1204788,7.51542086 15.4404369,7.88261619 15.7604194,8.28485233 C16.0803775,8.68708846 16.3618896,9.1340908 16.6050538,9.62576161 C16.8481935,10.1174324 17.0465939,10.6473695 17.2001327,11.2156952 C17.3537449,11.783923 17.4305632,12.3937649 17.4305632,13.0450498 C17.4305632,14.1305082 17.2641194,15.1010699 16.9314277,15.9567106 C16.598638,16.8123268 16.0771206,17.540242 15.3668754,18.1404562 C14.6566303,18.7407437 13.754425,19.2004526 12.6601126,19.5196318 C11.5658982,19.8389331 10.2573418,19.9985227 8.73451679,19.9985227 C7.19876224,19.9985227 5.88053312,19.8389331 4.78000085,19.5196318 C3.67939512,19.2004526 2.77390845,18.740646 2.0636633,18.1404562 C1.35334467,17.540242 0.831827258,16.8123268 0.499135535,15.9567106 C0.166443813,15.1010699 0,14.1305082 0,13.0450498 C0,12.3937649 0.0735614555,11.783923 0.220782318,11.2156952 C0.367978692,10.6473695 0.566281178,10.1174324 0.815836702,9.62576161 C1.06541671,9.1340908 1.34376993,8.68708846 1.65092084,8.28485233 C1.95807175,7.88261619 2.2780298,7.51542086 2.61072152,7.18343738 C3.37866002,6.41713368 4.25525104,5.75947113 5.24069049,5.21035198 L12.1898727,5.21035198 Z" id="Fill-1" fill="#FFFFFF"></path>
                            <path d="M6.56108531,14.888248 L8.17859173,14.888248 L8.17859173,13.8530439 L6.56108531,13.8530439 C5.88053105,13.8530439 5.54025903,13.6277934 5.54025903,13.1772856 C5.54025903,12.7363632 5.88053105,12.5159052 6.56108531,12.5159052 L7.47407782,12.5159052 L5.32459151,9.14430297 C5.15205663,8.87591538 5.03943138,8.68421283 4.98671239,8.56918958 C4.9339934,8.45416632 4.9076343,8.32716338 4.9076343,8.18817695 C4.9076343,7.9389599 4.98311718,7.73887037 5.1340852,7.58790235 C5.28505322,7.43693433 5.48035019,7.36145145 5.71998197,7.36145145 C5.96440638,7.36145145 6.16209964,7.43573619 6.31306766,7.58430789 C6.46403568,7.73287959 6.64016239,7.97250778 6.84145309,8.30319963 L9.16347342,11.9407919 L11.2410706,8.51167824 C11.3177527,8.37748444 11.3992263,8.23730195 11.4854937,8.09112657 C11.5717612,7.94495118 11.6556311,7.82034453 11.7371059,7.71730286 C11.8185807,7.6142612 11.9204226,7.52919319 12.0426348,7.46209629 C12.1648471,7.39499939 12.3098221,7.36145145 12.4775644,7.36145145 C12.7171961,7.36145145 12.9124931,7.43453804 13.0634611,7.58071343 C13.2144291,7.72688881 13.289912,7.90541181 13.289912,8.11628778 C13.289912,8.28403002 13.2599585,8.43739206 13.2000506,8.57637849 C13.1401426,8.71536493 13.0454895,8.8902935 12.9160883,9.10116947 L10.8456801,12.5159052 L11.7586726,12.5159052 C12.4344342,12.5159052 12.77231,12.7363632 12.77231,13.1772856 C12.77231,13.6277934 12.4344342,13.8530439 11.7586726,13.8530439 L10.1339773,13.8530439 L10.1339773,14.888248 L11.7586726,14.888248 C12.4344342,14.888248 12.77231,15.1134985 12.77231,15.5640062 C12.77231,16.0049287 12.4344342,16.2253866 11.7586726,16.2253866 L10.1339773,16.2253866 L10.1339773,16.8005 C10.1339773,17.7734051 9.81047922,18.2598503 9.16347342,18.2598503 C8.50688234,18.2598503 8.17859173,17.7734051 8.17859173,16.8005 L8.17859173,16.2253866 L6.56108531,16.2253866 C5.88053105,16.2253866 5.54025903,16.0049287 5.54025903,15.5640062 C5.54025903,15.1134985 5.88053105,14.888248 6.56108531,14.888248 Z" id="¥" fill="#1E79FB"></path>
                        </g>
                        <rect id="矩形" fill="#92C5FF" fill-rule="nonzero" x="43.3807782" y="17.4422529" width="27.3261962" height="1.74422529" rx="0.872112645"></rect>
                        <rect id="矩形" fill="#92C5FF" fill-rule="nonzero" x="43.3807782" y="11.0467602" width="27.3261962" height="1.74422529" rx="0.872112645"></rect>
                        <rect id="矩形" fill="#92C5FF" fill-rule="nonzero" x="43.3807782" y="23.2563372" width="27.3261962" height="1.74422529" rx="0.872112645"></rect>
                    </g>
                </g>
                <g id="分组" transform="translate(382.037938, 339.443124) rotate(-1.000000) translate(-382.037938, -339.443124) translate(289.954444, 292.740490)" fill-rule="nonzero">
                    <ellipse id="椭圆形" fill="#000000" cx="162.474242" cy="66.0912454" rx="15.4948187" ry="19.6270971"></ellipse>
                    <ellipse id="椭圆形" fill="#D8D8D8" cx="159.817987" cy="66.4917984" rx="10.1823094" ry="12.8176961"></ellipse>
                    <rect id="矩形" fill="#000000" x="139.010659" y="22.4309681" width="15.9375278" height="8.81216606" rx="4.40608303"></rect>
                    <ellipse id="椭圆形" stroke="url(#linearGradient-31)" stroke-width="1.4" cx="162.031533" cy="66.4074715" rx="16.822946" ry="22.3466412"></ellipse>
                    <path d="M4.42795572,64.8535496 C5.44538385,52.8349261 7.56247118,45.1221123 10.7792177,41.7151081 C10.6460018,37.9348172 13.2812732,32.2439653 15.9375278,31.9423859 C18.5937824,31.6408065 25.3233075,19.5282988 34.3560432,13.507511 C43.3887789,7.48672322 48.1132334,3.73646007 63.1983272,3.73646007 C78.283421,3.73646007 103.593931,3.73646007 114.120377,5.65118777 C121.138008,6.92767291 130.582181,14.2241415 142.452895,27.5405935 C164.061481,29.5572887 175.907408,34.1500251 177.990677,41.3188026 C181.115581,52.0719689 180.824188,72.071264 177.990677,73.5969202 C175.157166,75.1225765 16.3434769,73.5969202 10.3857163,73.5969202 C6.41387592,73.5969202 4.42795572,70.6824634 4.42795572,64.8535496 Z" id="路径-47" fill="url(#linearGradient-32)"></path>
                    <path d="M68.7232107,78.0177293 C53.8256941,77.9247148 39.9799127,77.821856 29.11155,77.7376917 M26.0594613,77.7139474 C18.2272074,77.6527511 12.2316309,77.6040057 8.92495904,77.5803412 M6.22868443,77.5647292 C2.07680459,77.5647292 0.000864666221,74.518163 0.000864666221,68.4250306 C1.06441177,53.1912618 3.27746449,43.7936574 6.64002284,40.2322172 C6.50076836,36.2805697 9.2554939,30.3317573 12.0321538,30.0165076 C14.8088138,29.7012579 21.8433813,17.0397027 31.2855616,10.7459987 C40.727742,4.45229478 45.6663512,0.532036047 61.4352368,0.532036047 C77.2041224,0.532036047 103.661931,0.532036047 114.665531,2.53355639 C122.001264,3.86790329 131.873531,11.4951133 144.282333,25.4151864 C166.870413,27.5232964 179.253304,32.3242168 181.431006,39.8179476 C184.697558,51.0585439 184.392957,75.9699165 181.431006,77.5647292 C181.155437,77.7131045 179.468547,77.8338712 176.630313,77.9308823 M147.797701,78.2588853 C134.775954,78.2940166 119.150726,78.2629279 103.103533,78.1979493 M100.493381,78.1871009 C91.565295,78.149053 82.5436169,78.1011054 73.8012954,78.0487849" id="形状" stroke="url(#linearGradient-33)" stroke-width="1.4"></path>
                    <path d="M36.2896435,28.627742 C40.4051151,28.627742 67.7729708,28.627742 68.494967,28.627742 C69.2169633,28.627742 65.9257573,9.05406689 63.1983272,7.39057304 C60.4708971,5.72707918 44.1655731,9.32889672 38.1632464,16.1251575 C32.1609198,22.9214183 32.174172,28.627742 36.2896435,28.627742 Z" id="路径-49" fill="#FFFFFF"></path>
                    <path d="M69.4188629,7.28909237 C74.0044484,7.28909237 103.626788,6.17210611 112.907251,8.25577947 C122.187713,10.3394528 140.061476,28.027842 136.958972,28.627742 C133.856469,29.227642 77.2224981,28.627742 74.2496418,28.627742 C72.0140145,28.627742 71.7788567,25.1367073 70.5988598,18.1645384 C69.4188629,11.1923696 67.2148287,7.28909237 69.4188629,7.28909237 Z" id="路径-50" fill="#FFFFFF"></path>
                    <ellipse id="椭圆形" fill="#000000" cx="17.2656551" cy="68.8951164" rx="11.9531458" ry="16.0221201"></ellipse>
                    <ellipse id="椭圆形" fill="#D8D8D8" transform="translate(16.380237, 69.295669) rotate(-1.000000) translate(-16.380237, -69.295669) " cx="16.3802369" cy="69.2956694" rx="7.52586328" ry="10.8152851"></ellipse>
                    <ellipse id="椭圆形" fill="#000000" cx="86.7709846" cy="68.4945634" rx="16.822946" ry="21.2293091"></ellipse>
                    <ellipse id="椭圆形" fill="#D8D8D8" cx="85.0001482" cy="69.2956694" rx="10.6250185" ry="14.0193551"></ellipse>
                    <path d="M124.404717,66.0256239 C129.646324,66.0256239 154.911588,66.0256239 162.031533,66.0256239 C169.151477,66.0256239 171.38371,54.7346822 170.349622,52.9323971 C169.315533,51.1301119 162.451714,50.861242 158.951591,50.5975428 C155.451468,50.3338437 148.182174,52.2896983 143.43775,52.5416945 C138.693327,52.7936907 135.699154,50.5975428 131.646463,50.5975428 C127.593773,50.5975428 119.572098,50.7269433 115.989786,52.2896983 C112.407473,53.8524533 119.163111,66.0256239 124.404717,66.0256239 Z" id="路径-51" fill="#000000"></path>
                    <path d="M127.060972,64.4234119 C132.302579,64.4234119 153.140751,64.4234119 160.260696,64.4234119 C167.380641,64.4234119 169.612874,53.9335762 168.578785,52.1312911 C167.544697,50.3290059 160.680878,50.060136 157.180755,49.7964368 C153.680632,49.5327377 150.838428,51.4885923 146.094005,51.7405885 C141.349581,51.9925847 138.355408,49.7964368 134.302718,49.7964368 C130.250027,49.7964368 122.228352,49.9258373 118.64604,51.4885923 C115.063728,53.0513473 121.819365,64.4234119 127.060972,64.4234119 Z" id="路径-51" fill="#001E52"></path>
                    <path d="M70.5988598,74.790003 C66.6233062,75.319705 64.6355294,73.5630113 64.6355294,69.5199218 C64.6355294,63.4552877 63.9379061,53.3488446 70.5988598,47.1917297 C77.2598135,41.0346147 83.2400325,38.7663181 92.6635007,40.9269893 C102.086969,43.0876604 105.364767,53.0248822 106.250185,57.6439524 C107.135603,62.2630227 107.950495,71.0772396 107.135603,73.2227638 C106.320712,75.3682879 103.784468,77.7973712 101.823094,74.163013 C99.8617206,70.5286549 103.593931,61.4452742 95.6251667,53.8697221 C87.6564028,46.2941699 79.659165,48.800292 74.3751297,53.8697221 C70.8524395,57.2493421 69.5936829,64.2227691 70.5988598,74.790003 Z" id="路径-52" fill="#669FFF"></path>
                    <path d="M7.16702878,75.7235981 C6.05492019,75.6663077 5.02030502,74.0310664 4.06318329,70.8178743 C2.6275007,65.998086 2.96791255,57.5405391 7.56268921,52.0718903 C12.1574659,46.6032415 16.5354431,46.9101271 20.7152033,47.324655 C24.8949635,47.7391829 30.176783,52.0718903 31.8750556,59.6167759 C33.5733281,67.1616614 32.9571572,71.8174521 32.174172,74.7623673 C31.3911868,77.7072825 26.593078,78.4759218 27.4025696,74.7623673 C28.2120611,71.0488128 28.9055736,61.061843 24.1509922,56.4044024 C19.3964108,51.7469618 13.3653882,53.7332825 9.52011708,58.4679273 C6.95660298,61.6243573 6.17224022,67.3762475 7.16702878,75.7235981 Z" id="路径-52" fill="#4C86FF"></path>
                    <ellipse id="椭圆形" stroke="url(#linearGradient-31)" stroke-width="1.4" cx="85.8855664" cy="69.1270155" rx="18.5937824" ry="23.4639733"></ellipse>
                    <ellipse id="椭圆形" stroke="url(#linearGradient-31)" stroke-width="1.4" cx="17.7083642" cy="68.5894312" rx="13.2812732" ry="18.1197529"></ellipse>
                    <path d="M105.364767,43.502932 C109.233284,44.5684656 115.371549,44.5909592 115.371549,41.7151081 C115.371549,38.839257 109.765794,32.8453462 105.364767,32.8453462 C100.96374,32.8453462 97.3960032,35.1766842 97.3960032,38.0525352 C97.3960032,40.9283863 101.49625,42.4373985 105.364767,43.502932 Z" id="椭圆形" fill="#FFFFFF"></path>
                    <path d="M165.230365,42.0027878 C167.533394,42.626718 171.55756,44.1007291 173.330126,42.0027878 C175.102692,39.9048465 169.055531,34.4475582 165.926431,34.4475582 C162.797332,34.4475582 160.260696,36.1397523 160.260696,38.2271794 C160.260696,40.3146066 162.927337,41.3788575 165.230365,42.0027878 Z" id="椭圆形" fill="#FFFFFF"></path>
                    <rect id="矩形" fill="#000000" x="54.0105108" y="24.0331802" width="15.9375278" height="8.81216606" rx="4.40608303"></rect>
                </g>
            </g>
        </g>
    </g>
</svg>