<?xml version="1.0" encoding="UTF-8"?>
<svg width="692px" height="436px" viewBox="0 0 692 436" version="1.1" xmlns="http://www.w3.org/2000/svg" xmlns:xlink="http://www.w3.org/1999/xlink">
    <!-- Generator: Sketch 52.2 (67145) - http://www.bohemiancoding.com/sketch -->
    <title>分组 49</title>
    <desc>Created with Sketch.</desc>
    <defs>
        <linearGradient x1="50%" y1="0%" x2="50%" y2="100%" id="linearGradient-1">
            <stop stop-color="#B4D2FF" offset="0%"></stop>
            <stop stop-color="#1164E3" offset="100%"></stop>
        </linearGradient>
        <linearGradient x1="50%" y1="0%" x2="50%" y2="100%" id="linearGradient-2">
            <stop stop-color="#5A9BFF" offset="0%"></stop>
            <stop stop-color="#1164E3" offset="100%"></stop>
        </linearGradient>
        <linearGradient x1="50%" y1="0%" x2="50%" y2="100%" id="linearGradient-3">
            <stop stop-color="#3D84F1" offset="0%"></stop>
            <stop stop-color="#1164E3" offset="100%"></stop>
        </linearGradient>
        <linearGradient x1="50%" y1="0%" x2="50%" y2="113.908335%" id="linearGradient-4">
            <stop stop-color="#92BDFF" offset="0%"></stop>
            <stop stop-color="#88B7FF" stop-opacity="0.648267663" offset="100%"></stop>
        </linearGradient>
        <linearGradient x1="50%" y1="0%" x2="50%" y2="100%" id="linearGradient-5">
            <stop stop-color="#3E85F1" offset="0%"></stop>
            <stop stop-color="#FFFFFF" offset="100%"></stop>
        </linearGradient>
        <linearGradient x1="50%" y1="0%" x2="50%" y2="100%" id="linearGradient-6">
            <stop stop-color="#1164E3" offset="0%"></stop>
            <stop stop-color="#FFFFFF" offset="100%"></stop>
        </linearGradient>
        <linearGradient x1="0%" y1="-24.4752297%" x2="100%" y2="56.7783232%" id="linearGradient-7">
            <stop stop-color="#004CC0" offset="0%"></stop>
            <stop stop-color="#1164E3" offset="100%"></stop>
        </linearGradient>
        <linearGradient x1="50%" y1="0%" x2="50%" y2="100%" id="linearGradient-8">
            <stop stop-color="#448AF3" offset="0%"></stop>
            <stop stop-color="#1164E3" offset="100%"></stop>
        </linearGradient>
        <linearGradient x1="50%" y1="0%" x2="50%" y2="88.2306592%" id="linearGradient-9">
            <stop stop-color="#A5CAFF" offset="0%"></stop>
            <stop stop-color="#74ABFF" offset="100%"></stop>
        </linearGradient>
        <linearGradient x1="57.3004645%" y1="33.652674%" x2="57.3004645%" y2="100%" id="linearGradient-10">
            <stop stop-color="#C0D9F9" offset="0%"></stop>
            <stop stop-color="#DFEDFF" offset="100%"></stop>
        </linearGradient>
        <linearGradient x1="49.0998884%" y1="-41.6455078%" x2="49.0998884%" y2="50%" id="linearGradient-11">
            <stop stop-color="#ABCFFF" offset="0%"></stop>
            <stop stop-color="#F3FBFF" offset="100%"></stop>
        </linearGradient>
        <path d="M42.7669455,4.84553058 L111.482445,4.84553058 C125.289563,4.84553058 136.482445,16.0384118 136.482445,29.8455306 L136.482445,299.650549 C136.482445,313.457668 125.289563,324.650549 111.482445,324.650549 L42.8987761,324.650548 C29.0916576,324.650548 17.8987766,313.457667 17.8987766,299.650549 C17.8987766,299.609582 17.8988773,299.568616 17.8990787,299.527651 C18.2554579,227.033712 18.2114135,187.630954 17.7669455,181.319376 C17.2735883,174.313559 13.5011293,168.520584 6.44956829,163.940451 C13.9944864,160.171705 17.7669455,154.547504 17.7669455,147.067847 C17.7669455,107.993741 17.7669455,68.919636 17.7669455,29.8455306 L17.7669455,29.8455306 C17.7669455,16.0384118 28.9598267,4.84553058 42.7669455,4.84553058 Z" id="path-12"></path>
        <filter x="-23.8%" y="-9.1%" width="147.7%" height="119.4%" filterUnits="objectBoundingBox" id="filter-13">
            <feOffset dx="0" dy="2" in="SourceAlpha" result="shadowOffsetOuter1"></feOffset>
            <feGaussianBlur stdDeviation="10" in="shadowOffsetOuter1" result="shadowBlurOuter1"></feGaussianBlur>
            <feColorMatrix values="0 0 0 0 0.39886267   0 0 0 0 0.39886267   0 0 0 0 0.39886267  0 0 0 0.0356091486 0" type="matrix" in="shadowBlurOuter1"></feColorMatrix>
        </filter>
        <linearGradient x1="50%" y1="0%" x2="50%" y2="100%" id="linearGradient-14">
            <stop stop-color="#008FFF" offset="0%"></stop>
            <stop stop-color="#00F8FF" offset="100%"></stop>
        </linearGradient>
        <path d="M37.6761324,-1.91978516e-12 L117.135564,-2.27373675e-12 C130.942682,-2.32532582e-12 142.135564,11.1928813 142.135564,25 L142.135564,305.849059 C142.135564,319.656178 130.942682,330.849059 117.135564,330.849059 L37.8098214,330.849059 C24.0027024,330.849059 12.809821,319.656178 12.8098211,305.849059 C12.8098211,305.807387 12.8099253,305.765715 12.8101337,305.724044 C13.1892946,229.901868 13.1446275,188.664396 12.6761324,182.011627 C12.1582627,174.657725 8.19836836,168.576925 0.796449279,163.769227 C8.71623803,159.81323 12.6761324,153.90959 12.6761324,146.058304 C12.6761324,105.705536 12.6761324,65.3527682 12.6761324,25 L12.6761324,25 C12.6761324,11.1928813 23.8690137,-1.85266547e-12 37.6761324,-1.90425453e-12 Z" id="path-15"></path>
        <filter x="-21.9%" y="-8.8%" width="143.8%" height="118.7%" filterUnits="objectBoundingBox" id="filter-16">
            <feOffset dx="0" dy="2" in="SourceAlpha" result="shadowOffsetOuter1"></feOffset>
            <feMorphology radius="1.4" operator="erode" in="SourceAlpha" result="shadowInner"></feMorphology>
            <feOffset dx="0" dy="2" in="shadowInner" result="shadowInner"></feOffset>
            <feComposite in="shadowOffsetOuter1" in2="shadowInner" operator="out" result="shadowOffsetOuter1"></feComposite>
            <feGaussianBlur stdDeviation="10" in="shadowOffsetOuter1" result="shadowBlurOuter1"></feGaussianBlur>
            <feColorMatrix values="0 0 0 0 0.39886267   0 0 0 0 0.39886267   0 0 0 0 0.39886267  0 0 0 0.0356091486 0" type="matrix" in="shadowBlurOuter1"></feColorMatrix>
        </filter>
        <circle id="path-17" cx="20.1897107" cy="20.1897107" r="20.1897107"></circle>
        <ellipse id="path-19" cx="20.2631164" cy="20.1934379" rx="20.2631164" ry="20.1934379"></ellipse>
        <ellipse id="path-21" cx="20.2631164" cy="20.1934379" rx="20.2631164" ry="20.1934379"></ellipse>
        <ellipse id="path-23" cx="20.2631164" cy="20.1934379" rx="20.2631164" ry="20.1934379"></ellipse>
        <linearGradient x1="123.548441%" y1="34.2512113%" x2="-11.0596202%" y2="90.4231978%" id="linearGradient-25">
            <stop stop-color="#00B3FF" offset="0%"></stop>
            <stop stop-color="#00FFFC" offset="100%"></stop>
        </linearGradient>
        <linearGradient x1="50%" y1="0%" x2="50%" y2="100%" id="linearGradient-26">
            <stop stop-color="#BFDFFF" offset="0%"></stop>
            <stop stop-color="#A1CEFA" offset="100%"></stop>
        </linearGradient>
        <linearGradient x1="100%" y1="64.3961881%" x2="-3.6771318%" y2="71.9396523%" id="linearGradient-27">
            <stop stop-color="#FBE18F" offset="0%"></stop>
            <stop stop-color="#F5BF56" offset="100%"></stop>
        </linearGradient>
        <linearGradient x1="74.0484893%" y1="-14.4286159%" x2="29.8481514%" y2="100%" id="linearGradient-28">
            <stop stop-color="#87F5FF" offset="0%"></stop>
            <stop stop-color="#22C4E7" offset="100%"></stop>
        </linearGradient>
        <linearGradient x1="33.923077%" y1="-20.2258026%" x2="50%" y2="100%" id="linearGradient-29">
            <stop stop-color="#4D98F7" offset="0%"></stop>
            <stop stop-color="#0367FD" offset="100%"></stop>
        </linearGradient>
    </defs>
    <g id="页面-1" stroke="none" stroke-width="1" fill="none" fill-rule="evenodd">
        <g id="通知不到位" transform="translate(-620.000000, -330.000000)">
            <g id="分组-49" transform="translate(620.000000, 330.000000)">
                <g id="分组-48" transform="translate(0.414330, 0.000000)" fill-rule="nonzero">
                    <path d="M9.36195992e-18,222.321156 C60.043358,246.298688 97.8119892,249.540922 113.305894,232.047859 C114.915254,230.230844 152.502116,215.337571 154.205045,213.534005 C223.865037,139.757347 255.171029,0.70528171 349.02776,0.70528171 C478.313192,0.70528171 621.537584,21.0731556 612.947839,91.3967446 C604.358095,161.720334 628.95899,190.420677 661.537584,196.537011 C694.116177,202.653345 712.834925,252.621048 643.925788,314.260202 C575.01665,375.899357 528.795265,428.794588 496.479793,432.961773 C445.393566,439.549507 407.573947,394.684841 365.004154,394.684841 C322.434362,394.684841 316.094214,410.768119 270.149629,428.054443 C239.519906,439.578658 197.538378,431.1677 144.205045,402.821568 C54.1836352,351.914284 6.11528693,291.747479 9.36195992e-18,222.321156 Z" id="路径-2" fill="#DFF4FF" transform="translate(345.395358, 217.163756) scale(-1, 1) translate(-345.395358, -217.163756) "></path>
                    <path d="M0.0480865808,218.318445 C2.6216753,115.040483 219.790414,0.70528171 349.075847,0.70528171 C478.361279,0.70528171 621.58567,20.7052817 612.995926,89.7587226 C604.406181,158.812164 629.007077,186.994136 661.58567,193 C694.164263,199.005864 712.883012,248.071077 643.973874,308.596937 C575.064737,369.122797 494.178389,406.304033 461.862916,410.395952 C410.776689,416.864702 384.98699,382.769996 342.417198,382.769996 C299.847406,382.769996 287.054229,391.185409 246.366047,420.02933 C205.677866,448.873252 129.179445,437.559706 114.088313,387.568988 C98.9971815,337.57827 -2.52550214,321.596407 0.0480865808,218.318445 Z" id="路径-2" fill="#F3FBFF"></path>
                </g>
                <g id="分组-2" opacity="0.45" transform="translate(92.082133, 105.150528)">
                    <g id="分组-15">
                        <g id="Group-22" transform="translate(0.000000, 34.191725)">
                            <g id="分组-47" opacity="0.408528646" transform="translate(369.432626, 0.000000)">
                                <g id="Group-20">
                                    <g id="Group-19" transform="translate(0.000000, 17.214047)" fill="url(#linearGradient-1)">
                                        <polygon id="Path-31" points="0.0769420608 180.351307 0.0769420608 37.7240169 11.6411701 37.7240169 11.6411701 20.153126 21.2622018 20.153126 21.2622018 0.235267143 27.0803313 0.235267143 27.0803313 20.153126 34.2834178 20.153126 34.2834178 11.8831295 41.6796781 11.8831295 41.6796781 20.153126 48.8483862 20.153126 48.8483862 180.351307"></polygon>
                                    </g>
                                    <polygon id="Path-32" fill="url(#linearGradient-2)" points="48.5209732 0.592572682 70.9831438 0.592572682 70.9831438 25.4866881 80.0803147 25.4866881 77.1303233 197.287311 48.5209732 197.287311"></polygon>
                                </g>
                                <polygon id="Path-35" fill="url(#linearGradient-3)" points="77.2073633 69.5790045 109.603476 69.5790045 109.603476 87.2618701 118.244526 87.2618701 118.244526 197.879043 77.2073633 197.879043"></polygon>
                                <polygon id="Path-35" fill="url(#linearGradient-4)" transform="translate(77.609688, 133.729024) scale(-1, 1) translate(-77.609688, -133.729024) " points="63.528309 69.5790045 83.0984269 69.5790045 83.0984269 87.2618701 91.6910678 87.2618701 91.6910678 197.879043 63.528309 197.879043"></polygon>
                                <g id="Group-16" opacity="0.675668025" transform="translate(117.705488, 49.357803)">
                                    <polygon id="Path-38" fill="url(#linearGradient-5)" points="0.194689139 148.887965 0.194689139 10.5334598 8.30405494 0.176154392 15.4608921 10.5334598 15.4608921 148.887965"></polygon>
                                    <polygon id="Path-39" fill="#82B3FF" points="8.2885683 0.220282499 27.450163 0.103830841 34.5953349 10.421036 15.3560053 10.421036"></polygon>
                                    <polygon id="Rectangle-8" fill="url(#linearGradient-6)" points="15.2404589 10.3657193 34.5999607 10.3657193 34.5999607 148.87982 15.2404589 148.87982"></polygon>
                                </g>
                            </g>
                            <g id="Group-16" opacity="0.675668025" transform="translate(0.477767, 19.990832)">
                                <polygon id="Path-38" fill="url(#linearGradient-5)" points="0.228972983 175.106437 0.228972983 12.3883526 9.76636003 0.207174353 18.1834826 12.3883526 18.1834826 175.106437"></polygon>
                                <polygon id="Path-39" fill="#82B3FF" points="9.74814627 0.259073213 32.2840079 0.122114964 40.6874109 12.2561316 18.0601257 12.2561316"></polygon>
                                <polygon id="Rectangle-8" fill="url(#linearGradient-6)" points="17.9242322 12.1910738 40.6928514 12.1910738 40.6928514 175.096857 17.9242322 175.096857"></polygon>
                            </g>
                        </g>
                        <g id="分组-37" transform="translate(82.773064, 0.000000)" fill-rule="nonzero">
                            <polygon id="路径-14" fill="url(#linearGradient-7)" points="0 210.695071 0 86.9120492 10.8436198 86.9120492 10.8436198 71.8697472 40.968486 71.9038734 40.968486 210.695071"></polygon>
                            <polygon id="路径-15" fill="url(#linearGradient-8)" points="27.5910212 235.869531 27.5910212 57.8467488 48.2642779 57.8467488 48.2642779 37.0311773 79.4286973 37.0311773 79.4286973 235.869531"></polygon>
                            <polygon id="路径-16" fill="url(#linearGradient-9)" opacity="0.913364955" points="85.2813382 32.7590054 126.249824 32.7590054 126.249824 235.869531 85.2813382 235.869531"></polygon>
                            <polygon id="路径-17" fill="url(#linearGradient-10)" points="107.019718 236.59258 107.019718 1.09122947e-11 144.154633 1.09122947e-11 144.154633 28.5459204 168.890493 28.5459204 168.890493 236.59258"></polygon>
                            <polygon id="矩形" fill="#82B4FF" opacity="0.456612723" points="117.888909 37.63905 122.069366 37.63905 122.069366 198.494959 117.888909 198.494959"></polygon>
                            <polygon id="矩形" fill="#82B4FF" opacity="0.456612723" points="130.151585 37.63905 134.332042 37.63905 134.332042 198.494959 130.151585 198.494959"></polygon>
                            <polygon id="矩形" fill="#82B4FF" opacity="0.456612723" points="142.414261 37.63905 146.594719 37.63905 146.594719 198.494959 142.414261 198.494959"></polygon>
                            <polygon id="矩形" fill="#82B4FF" opacity="0.456612723" points="154.676937 37.63905 158.857395 37.63905 158.857395 198.494959 154.676937 198.494959"></polygon>
                        </g>
                    </g>
                </g>
                <ellipse id="椭圆形" fill="url(#linearGradient-11)" fill-rule="nonzero" cx="339.952596" cy="345.108803" rx="247.64479" ry="33.443662"></ellipse>
                <g id="分组-3" transform="translate(68.671570, 37.427113)">
                    <g id="分组" transform="translate(306.189965, 0.000000)">
                        <g id="矩形" fill-rule="nonzero">
                            <use fill="black" fill-opacity="1" filter="url(#filter-13)" xlink:href="#path-12"></use>
                            <use fill="#FFFFFF" xlink:href="#path-12"></use>
                        </g>
                        <g id="矩形" fill-rule="nonzero">
                            <use fill="black" fill-opacity="1" filter="url(#filter-16)" xlink:href="#path-15"></use>
                            <path stroke="url(#linearGradient-14)" stroke-width="1.4" d="M2.1645529,163.844467 C9.11019558,168.662407 12.8638956,174.713097 13.3744031,181.962454 C13.8448868,188.643461 13.889528,229.856959 13.5101249,305.727544 C13.5098717,305.788301 13.5098717,305.788301 13.5098211,305.849059 C13.509821,319.269578 24.3893018,330.149059 37.8098214,330.149059 L117.135564,330.149059 C130.556083,330.149059 141.435564,319.269579 141.435564,305.849059 L141.435564,25 C141.435564,11.5794806 130.556083,0.7 117.135564,0.7 L37.6761324,0.7 C24.255613,0.7 13.3761324,11.5794806 13.3761324,25 C13.3761324,55.2645761 13.3761324,55.2645761 13.3761324,85.5291522 C13.3761324,115.793728 13.3761324,115.793728 13.3761324,146.058304 C13.3761324,153.826789 9.61339455,159.779338 2.1645529,163.844467 Z" stroke-linejoin="square"></path>
                        </g>
                        <g id="分组-2" transform="translate(57.338779, 25.035241)">
                            <g id="住户">
                                <mask id="mask-18" fill="white">
                                    <use xlink:href="#path-17"></use>
                                </mask>
                                <use id="椭圆形" fill="#006EFF" xlink:href="#path-17"></use>
                                <ellipse id="椭圆形" fill-opacity="0.86" fill="#FFFFFF" mask="url(#mask-18)" cx="19.8475636" cy="15.8502032" rx="7.73373716" ry="7.77431886"></ellipse>
                                <ellipse id="椭圆形" fill-opacity="0.86" fill="#FFFFFF" mask="url(#mask-18)" cx="19.9415458" cy="40.2076456" rx="14.5576229" ry="14.634012"></ellipse>
                            </g>
                            <text id="住户A" font-family="PingFangSC, 蘋方-簡" font-size="12" font-weight="normal" fill="#4A4A4A">
                                <tspan x="2.46070744" y="55.0896458">住户A</tspan>
                            </text>
                        </g>
                        <g id="分组-2" transform="translate(57.547251, 100.159452)">
                            <g id="住户">
                                <mask id="mask-20" fill="white">
                                    <use xlink:href="#path-19"></use>
                                </mask>
                                <use id="椭圆形" fill="#00B4FF" xlink:href="#path-19"></use>
                                <ellipse id="椭圆形" fill-opacity="0.8" fill="#FFFFFF" mask="url(#mask-20)" cx="19.9197253" cy="15.8531292" rx="7.76185544" ry="7.77575404"></ellipse>
                                <ellipse id="椭圆形" fill-opacity="0.8" fill="#FFFFFF" mask="url(#mask-20)" cx="20.0140491" cy="40.2150681" rx="14.6105514" ry="14.6367135"></ellipse>
                            </g>
                            <text id="住户B" font-family="PingFangSC, 蘋方-簡" font-size="12" font-weight="normal" fill="#4A4A4A">
                                <tspan x="2.48419724" y="55.7647894">住户B</tspan>
                            </text>
                        </g>
                        <g id="分组-2" transform="translate(57.547251, 176.086778)"></g>
                        <g id="住户" transform="translate(57.547251, 176.086778)">
                            <mask id="mask-22" fill="white">
                                <use xlink:href="#path-21"></use>
                            </mask>
                            <use id="椭圆形" fill="#1E8FFF" xlink:href="#path-21"></use>
                            <ellipse id="椭圆形" fill-opacity="0.8" fill="#FFFFFF" mask="url(#mask-22)" cx="19.9197253" cy="15.8531292" rx="7.76185544" ry="7.77575404"></ellipse>
                            <ellipse id="椭圆形" fill-opacity="0.8" fill="#FFFFFF" mask="url(#mask-22)" cx="20.0140491" cy="40.2150681" rx="14.6105514" ry="14.6367135"></ellipse>
                        </g>
                        <text id="住户C" font-family="PingFangSC, 蘋方-簡" font-size="12" font-weight="normal" fill="#4A4A4A">
                            <tspan x="60.0314478" y="231.582931">住户C</tspan>
                        </text>
                        <g id="分组-2" transform="translate(57.547251, 251.206367)"></g>
                        <g id="住户" transform="translate(57.547251, 251.206367)">
                            <mask id="mask-24" fill="white">
                                <use xlink:href="#path-23"></use>
                            </mask>
                            <use id="椭圆形" fill="#0077F2" xlink:href="#path-23"></use>
                            <ellipse id="椭圆形" fill-opacity="0.86" fill="#FFFFFF" mask="url(#mask-24)" cx="19.9197253" cy="15.8531292" rx="7.76185544" ry="7.77575404"></ellipse>
                            <ellipse id="椭圆形" fill-opacity="0.86" fill="#FFFFFF" mask="url(#mask-24)" cx="20.0140491" cy="40.2150681" rx="14.6105514" ry="14.6367135"></ellipse>
                        </g>
                        <text id="住户D" font-family="PingFangSC, 蘋方-簡" font-size="12" font-weight="normal" fill="#4A4A4A">
                            <tspan x="60.0314478" y="306.721782">住户D</tspan>
                        </text>
                    </g>
                    <g id="分组-40" transform="translate(0.000000, 40.516641)">
                        <g id="分组-39" fill-rule="nonzero">
                            <path d="M103.582709,0.7 C93.4758977,0.7 85.2827087,8.89318908 85.2827087,19 L85.2827087,275.576244 C85.2827087,285.683055 93.4758977,293.876244 103.582709,293.876244 L208.296744,293.876244 C218.403555,293.876244 226.596744,285.683055 226.596744,275.576244 L226.596744,19 C226.596744,8.89318908 218.403555,0.7 208.296744,0.7 L103.582709,0.7 Z" id="矩形" stroke="url(#linearGradient-25)" stroke-width="1.4"></path>
                            <path d="M100.621241,6.31987174 C100.621241,6.31987174 100.621241,6.31987174 100.621241,6.31987174 C103.960458,6.31987174 113.849999,6.31987174 130.289866,6.31987174 C130.930895,9.4916717 132.011753,11.0775717 133.532438,11.0775717 C137.55214,11.0775717 145.452505,11.0775717 157.233532,11.0775717 C167.457174,11.0775717 175.453937,11.0775717 181.223819,11.0775717 C182.904056,11.0775717 184.095678,9.4916717 184.798683,6.31987174 C199.289355,6.31987174 207.7811,6.31987174 210.273919,6.31987174 C210.273919,6.31987174 210.273919,6.31987174 210.273919,6.31987174 L210.273919,6.31987174 C216.254761,6.31987174 221.103191,11.1683022 221.103191,17.1491442 L221.103162,276.964934 C221.103162,283.598257 215.725791,288.975628 209.092468,288.975628 C209.092468,288.975628 209.092468,288.975628 209.092468,288.975628 C191.555516,288.975628 155.951449,288.975628 102.280267,288.975628 L102.280267,288.975628 C95.5377068,288.975628 90.0717816,283.509703 90.0717816,276.767142 L90.0717816,16.8693309 C90.0717816,11.0430255 94.7949353,6.31987174 100.621241,6.31987174 Z" id="矩形" fill="url(#linearGradient-26)"></path>
                            <path d="M53.6003669,83.7627343 C27.5104151,91.7435519 13.1588406,107.433014 10.5456434,130.831122 C6.62584761,165.928284 28.2952039,200.947632 79.260362,200.858558 C130.22552,200.769485 134.512408,153.460071 186.438816,132.093446 C238.365225,110.726822 268.798589,131.949503 290.751281,156.024776" id="路径-53" stroke="#70B2FF" stroke-linecap="round" stroke-dasharray="3" transform="translate(150.424122, 142.310731) rotate(-14.000000) translate(-150.424122, -142.310731) "></path>
                            <g id="分组-51" transform="translate(275.913801, 108.631573)">
                                <polygon id="路径-54" fill="url(#linearGradient-27)" points="0.195192754 21.1852295 33.5894742 29.6903639 18.9650324 0.221638593 12.3330485 6.73465635 23.9015103 22.2133264 5.93607931 12.7517824"></polygon>
                                <polygon id="路径-55" fill="#DB8D0C" points="12.370504 6.73465635 12.2625441 11.9928182 24.5649102 22.663697"></polygon>
                                <polygon id="路径-56" fill="#FFA300" points="5.97965495 12.7935452 12.2625441 11.9928182 24.5649102 22.663697"></polygon>
                            </g>
                            <g id="分组-51" transform="translate(321.447293, 56.256815) rotate(-16.000000) translate(-321.447293, -56.256815) translate(304.400894, 41.103838)">
                                <polygon id="路径-54" fill="url(#linearGradient-27)" points="0.195192754 21.1852295 33.5894742 29.6903639 18.9650324 0.221638593 12.3330485 6.73465635 23.9015103 22.2133264 5.93607931 12.7517824"></polygon>
                                <polygon id="路径-55" fill="#DB8D0C" points="12.370504 6.73465635 12.2625441 11.9928182 24.5649102 22.663697"></polygon>
                                <polygon id="路径-56" fill="#FFA300" points="5.97965495 12.7935452 12.2625441 11.9928182 24.5649102 22.663697"></polygon>
                            </g>
                            <path d="M167.244048,103.005053 C186.838263,70.3498093 210.772389,50.3644354 239.046426,43.0489308 C267.320463,35.7334262 293.277502,39.109813 316.917543,53.178091" id="路径-3" stroke="#70B2FF" stroke-linecap="round" stroke-dasharray="3"></path>
                        </g>
                        <g id="01基于微信推送" transform="translate(30.128519, 55.913310)">
                            <g id="分组-30" transform="translate(66.622889, 137.160057)" fill-rule="nonzero">
                                <path d="M24.1221381,-1.81393292e-06 L95.0033705,-1.81393294e-06 C108.003044,-1.81393294e-06 118.541362,10.5383161 118.541362,23.53799 C118.541362,23.5379903 118.541362,23.5379903 118.541362,23.5379906 L118.541362,23.5379906 C118.541362,36.7876273 108.045049,47.6557214 94.8034348,48.1167199 C92.3613208,48.201764 90.6406337,48.2442744 89.6413742,48.2442744 C86.6169278,48.2442744 84.1393499,50.3536065 82.2086407,54.5722706 C79.5111723,50.3536065 77.0032397,48.2442744 74.6848429,48.2442744 C57.830608,48.2442744 40.9763731,48.2442744 24.1221381,48.2442744 L24.1221381,48.2442744 C10.7998491,48.2442744 4.06819323e-14,37.4444253 3.55271368e-15,24.1221363 L3.55271368e-15,24.1221363 C-1.58276506e-14,10.7998473 10.7998491,-1.81393289e-06 24.1221381,-1.81393292e-06 Z" id="矩形" fill="#FFFFFF"></path>
                                <rect id="矩形" fill="#B1D6FF" x="27.268832" y="11.8003716" width="65.1584968" height="3.00325464" rx="1.50162732"></rect>
                                <rect id="矩形" fill="#B1D6FF" x="27.268832" y="22.5574837" width="65.1584968" height="3.00325464" rx="1.50162732"></rect>
                                <rect id="矩形" fill="#B1D6FF" x="27.268832" y="33.3145957" width="65.1584968" height="3.00325464" rx="1.50162732"></rect>
                            </g>
                            <g id="分组-30" transform="translate(29.082806, 80.769414)" fill-rule="nonzero">
                                <path d="M28.9923786,-1.25285934e-05 L127.394027,-1.25285934e-05 C143.018325,-1.25285934e-05 155.684322,12.6659837 155.684322,28.2902819 L155.684322,28.2902819 C155.684322,43.0528646 144.259902,55.2978074 129.532758,56.3200998 C125.253695,56.6171412 122.392594,57.1720202 120.949456,57.9847447 C117.495155,59.9300848 114.842419,62.4305443 112.991248,65.4861232 C108.980377,60.4852042 105.641033,57.9847447 102.973216,57.9847447 C78.3129369,57.9847447 53.6526578,57.9847447 28.9923786,57.9847447 L28.9923786,57.9847447 C12.98033,57.9847447 -5.98447701e-13,45.0044146 -6.00408612e-13,28.9923661 L-6.00408612e-13,28.9923661 C-6.02369522e-13,12.9803175 12.98033,-1.25285934e-05 28.9923786,-1.25285934e-05 Z" id="矩形" fill="url(#linearGradient-28)"></path>
                                <path d="M28.3193076,13.7661907 L127.567203,13.7661907 C128.35468,13.7661907 128.993057,14.4045675 128.993057,15.1920451 L128.993057,15.1920451 C128.993057,15.9795227 128.35468,16.6178995 127.567203,16.6178995 L28.3193076,16.6178995 C27.5318299,16.6178995 26.8934532,15.9795227 26.8934532,15.1920451 L26.8934532,15.1920451 C26.8934532,14.4045675 27.5318299,13.7661907 28.3193076,13.7661907 Z" id="矩形" fill="#BAF6FF"></path>
                                <path d="M28.3193076,23.2718866 L127.567203,23.2718866 C128.35468,23.2718866 128.993057,23.9102633 128.993057,24.697741 L128.993057,24.697741 C128.993057,25.4852186 128.35468,26.1235953 127.567203,26.1235953 L28.3193076,26.1235953 C27.5318299,26.1235953 26.8934532,25.4852186 26.8934532,24.697741 L26.8934532,24.697741 C26.8934532,23.9102633 27.5318299,23.2718866 28.3193076,23.2718866 Z" id="矩形" fill="#BAF6FF"></path>
                                <path d="M28.3193076,32.7775824 L127.567203,32.7775824 C128.35468,32.7775824 128.993057,33.4159592 128.993057,34.2034368 L128.993057,34.2034368 C128.993057,34.9909144 128.35468,35.6292912 127.567203,35.6292912 L28.3193076,35.6292912 C27.5318299,35.6292912 26.8934532,34.9909144 26.8934532,34.2034368 L26.8934532,34.2034368 C26.8934532,33.4159592 27.5318299,32.7775824 28.3193076,32.7775824 Z" id="矩形" fill="#BAF6FF"></path>
                                <path d="M28.3193076,41.9566841 L127.567203,41.9566841 C128.35468,41.9566841 128.993057,42.5950609 128.993057,43.3825385 L128.993057,43.3825385 C128.993057,44.1700161 128.35468,44.8083929 127.567203,44.8083929 L28.3193076,44.8083929 C27.5318299,44.8083929 26.8934532,44.1700161 26.8934532,43.3825385 L26.8934532,43.3825385 C26.8934532,42.5950609 27.5318299,41.9566841 28.3193076,41.9566841 Z" id="矩形" fill="#BAF6FF"></path>
                            </g>
                            <g id="分组-30" transform="translate(47.318488, 0.151955)">
                                <path d="M33.1131156,-5.45696821e-12 L130.413717,-5.45696821e-12 C148.258724,-5.46024629e-12 162.72496,14.4662362 162.72496,32.3112428 L162.72496,32.3112428 C162.72496,50.0641273 148.333404,64.4556836 130.580519,64.4556836 C130.548406,64.4556836 130.516292,64.4556355 130.484179,64.4555392 C87.4528966,64.3266013 65.1303182,64.7211808 63.5164435,65.63931 C61.538938,66.7643079 58.5719202,69.6461464 54.61539,74.2848257 C50.0928161,68.9124294 46.2402659,66.2262312 43.0577394,66.2262312 C39.7428648,66.2262312 36.4279902,66.2262312 33.1131156,66.2262312 L33.1131156,66.2262312 C14.8252468,66.2262312 1.72789967e-13,51.4009844 0,33.1131156 L0,33.1131156 C-2.239618e-15,14.8252468 14.8252468,-5.44650336e-12 33.1131156,-5.44986278e-12 Z" id="矩形" fill="url(#linearGradient-29)" fill-rule="nonzero"></path>
                                <g id="分组-4" transform="translate(75.000000, 12.000000)">
                                    <rect id="矩形" fill="#FFFFFF" fill-rule="nonzero" x="0" y="1" width="60" height="16.8275862" rx="8.4137931"></rect>
                                    <text id="海纳物业" font-family="PingFangSC-Medium, 蘋方-簡" font-size="11" font-weight="500" fill="#1271FC">
                                        <tspan x="9" y="12.8848703">海纳物业</tspan>
                                    </text>
                                </g>
                                <rect id="矩形" fill="#92C5FF" fill-rule="nonzero" x="76" y="48" width="58.8934189" height="3.25702776" rx="1.62851388"></rect>
                                <rect id="矩形" fill="#92C5FF" fill-rule="nonzero" x="76" y="39" width="58.8934189" height="3.25702776" rx="1.62851388"></rect>
                                <g id="weixin-color-(1)" transform="translate(16.021901, 12.180663)" fill="#FFFFFF">
                                    <path d="M50.2093349,26.2777377 C50.2093349,19.2996333 43.2668023,13.5675007 35.3326085,13.5675007 C27.1501443,13.5675007 20.4555593,19.2996333 20.4555593,26.2777377 C20.4555593,33.255907 26.9021967,38.9879746 35.3326085,38.9879746 C37.0681125,38.9879746 38.8036811,38.489534 40.5392497,37.9911582 L45.2503185,40.7327117 L44.0106451,36.2466808 C47.4820405,33.5051273 50.2093349,30.0161725 50.2093349,26.2777377 Z M30.6215397,24.0348845 C29.6297493,24.0348845 28.8859711,23.2872235 28.8859711,22.290407 C28.8859711,21.5424864 29.8776969,20.54567 30.6215397,20.54567 C31.8612131,20.54567 32.8529389,21.2932661 32.8529389,22.290407 C32.8529389,23.0380031 31.8612131,24.0348845 30.6215397,24.0348845 Z M40.0434191,24.0348845 C39.2995763,24.0348845 38.3078505,23.2872235 38.3078505,22.290407 C38.3078505,21.5424864 39.2995763,20.54567 40.0434191,20.54567 C41.2833507,20.54567 42.2750765,21.2932661 42.2750765,22.290407 C42.2750765,23.0380031 41.5312983,24.0348845 40.0434191,24.0348845 Z" id="Fill-1"></path>
                                    <path d="M17.2957153,0 C7.65943824,0 0,6.46930132 0,14.9290273 C0,19.6566584 2.71775933,23.6378965 6.9182604,26.6235983 L5.18875964,31.848868 L11.3657779,28.8631015 C13.5893757,29.36074 15.3188765,29.8583786 17.5427961,29.8583786 L19.2722968,29.8583786 C19.0252161,28.614347 18.7781354,27.3699914 18.7781354,26.1259598 C18.7781354,18.4126268 25.2022343,12.1921448 33.6028504,12.1921448 L35.3326085,12.1921448 C33.3557697,5.22526971 25.9434121,0 17.2957153,0 Z M11.859875,11.6945062 C10.6245357,11.6945062 9.14185827,10.9481132 9.14185827,9.45526229 C9.14185827,8.21097149 10.3774549,7.21569437 11.859875,7.21569437 C13.0952786,7.21569437 14.0835372,7.96215221 14.0835372,9.45526229 C13.8364565,10.9481132 13.0952786,11.6945062 11.859875,11.6945062 Z M23.9668307,11.6945062 C22.7314914,11.6945062 21.248814,10.9481132 21.248814,9.45526229 C21.248814,8.21097149 22.4844106,7.21569437 23.9668307,7.21569437 C25.2022343,7.21569437 26.1904929,7.96215221 26.1904929,9.45526229 C26.1904929,10.9481132 25.2022343,11.6945062 23.9668307,11.6945062 Z" id="Fill-2"></path>
                                </g>
                            </g>
                            <g id="分组-16" transform="translate(0.072439, 141.127873)">
                                <ellipse id="椭圆形" fill="#FF9B07" fill-rule="nonzero" cx="14.0094337" cy="14.113787" rx="14.0094337" ry="14.113787"></ellipse>
                                <g id="weixin-color-(1)" transform="translate(5.000000, 7.000000)" fill="#FFFFFF">
                                    <path d="M17.5323335,9.81612102 C17.5323335,7.50423248 15.1990052,5.60514202 12.5323877,5.60514202 C9.78232857,5.60514202 7.53233345,7.50423248 7.53233345,9.81612102 C7.53233345,12.1280311 9.69899542,14.0271 12.5323877,14.0271 C13.1156764,14.0271 13.6989867,13.8619636 14.2822971,13.6968486 L15.8656487,14.605142 L15.4490046,13.1188926 C16.6157122,12.2105993 17.5323335,11.0546873 17.5323335,9.81612102 Z M10.9490361,9.07305008 C10.6157035,9.07305008 10.3657257,8.82534543 10.3657257,8.49509407 C10.3657257,8.24730342 10.6990367,7.91705206 10.9490361,7.91705206 C11.3656802,7.91705206 11.6989911,8.1647352 11.6989911,8.49509407 C11.6989911,8.74277722 11.3656802,9.07305008 10.9490361,9.07305008 Z M14.1156525,9.07305008 C13.865653,9.07305008 13.5323421,8.82534543 13.5323421,8.49509407 C13.5323421,8.24730342 13.865653,7.91705206 14.1156525,7.91705206 C14.5323834,7.91705206 14.8656943,8.1647352 14.8656943,8.49509407 C14.8656943,8.74277722 14.6157165,9.07305008 14.1156525,9.07305008 Z" id="Fill-1"></path>
                                    <path d="M6.40647048,0.605142025 C3.13370546,0.605142025 0.532333453,2.83951702 0.532333453,5.76134727 C0.532333453,7.39418215 1.45536499,8.7692269 2.88197952,9.80043215 L2.29458986,11.605142 L4.39248814,10.5739144 C5.14768781,10.7457894 5.73507748,10.9176644 6.49038641,10.9176644 L7.07777608,10.9176644 C6.99386015,10.4879993 6.90994422,10.0582223 6.90994422,9.62855715 C6.90994422,6.96451702 9.09175843,4.81607952 11.9448564,4.81607952 L12.5323335,4.81607952 C11.8609404,2.4098519 9.34348437,0.605142025 6.40647048,0.605142025 Z M4.56029815,4.64420452 C4.14074034,4.64420452 3.6371792,4.3864144 3.6371792,3.87081178 C3.6371792,3.44105715 4.05682441,3.09730715 4.56029815,3.09730715 C4.9798778,3.09730715 5.31551967,3.35511965 5.31551967,3.87081178 C5.23160374,4.3864144 4.9798778,4.64420452 4.56029815,4.64420452 Z M8.67217877,4.64420452 C8.25262097,4.64420452 7.74905982,4.3864144 7.74905982,3.87081178 C7.74905982,3.44105715 8.16870504,3.09730715 8.67217877,3.09730715 C9.09175843,3.09730715 9.4274003,3.35511965 9.4274003,3.87081178 C9.4274003,4.3864144 9.09175843,4.64420452 8.67217877,4.64420452 Z" id="Fill-2"></path>
                                </g>
                            </g>
                            <g id="分组-16" transform="translate(8.000000, 33.000000)">
                                <ellipse id="椭圆形" fill="#23C4E7" fill-rule="nonzero" cx="14.0094337" cy="14.113787" rx="14.0094337" ry="14.113787"></ellipse>
                                <g id="weixin-color-(1)" transform="translate(5.000000, 7.000000)" fill="#FFFFFF">
                                    <path d="M17.5323335,9.81612102 C17.5323335,7.50423248 15.1990052,5.60514202 12.5323877,5.60514202 C9.78232857,5.60514202 7.53233345,7.50423248 7.53233345,9.81612102 C7.53233345,12.1280311 9.69899542,14.0271 12.5323877,14.0271 C13.1156764,14.0271 13.6989867,13.8619636 14.2822971,13.6968486 L15.8656487,14.605142 L15.4490046,13.1188926 C16.6157122,12.2105993 17.5323335,11.0546873 17.5323335,9.81612102 Z M10.9490361,9.07305008 C10.6157035,9.07305008 10.3657257,8.82534543 10.3657257,8.49509407 C10.3657257,8.24730342 10.6990367,7.91705206 10.9490361,7.91705206 C11.3656802,7.91705206 11.6989911,8.1647352 11.6989911,8.49509407 C11.6989911,8.74277722 11.3656802,9.07305008 10.9490361,9.07305008 Z M14.1156525,9.07305008 C13.865653,9.07305008 13.5323421,8.82534543 13.5323421,8.49509407 C13.5323421,8.24730342 13.865653,7.91705206 14.1156525,7.91705206 C14.5323834,7.91705206 14.8656943,8.1647352 14.8656943,8.49509407 C14.8656943,8.74277722 14.6157165,9.07305008 14.1156525,9.07305008 Z" id="Fill-1"></path>
                                    <path d="M6.40647048,0.605142025 C3.13370546,0.605142025 0.532333453,2.83951702 0.532333453,5.76134727 C0.532333453,7.39418215 1.45536499,8.7692269 2.88197952,9.80043215 L2.29458986,11.605142 L4.39248814,10.5739144 C5.14768781,10.7457894 5.73507748,10.9176644 6.49038641,10.9176644 L7.07777608,10.9176644 C6.99386015,10.4879993 6.90994422,10.0582223 6.90994422,9.62855715 C6.90994422,6.96451702 9.09175843,4.81607952 11.9448564,4.81607952 L12.5323335,4.81607952 C11.8609404,2.4098519 9.34348437,0.605142025 6.40647048,0.605142025 Z M4.56029815,4.64420452 C4.14074034,4.64420452 3.6371792,4.3864144 3.6371792,3.87081178 C3.6371792,3.44105715 4.05682441,3.09730715 4.56029815,3.09730715 C4.9798778,3.09730715 5.31551967,3.35511965 5.31551967,3.87081178 C5.23160374,4.3864144 4.9798778,4.64420452 4.56029815,4.64420452 Z M8.67217877,4.64420452 C8.25262097,4.64420452 7.74905982,4.3864144 7.74905982,3.87081178 C7.74905982,3.44105715 8.16870504,3.09730715 8.67217877,3.09730715 C9.09175843,3.09730715 9.4274003,3.35511965 9.4274003,3.87081178 C9.4274003,4.3864144 9.09175843,4.64420452 8.67217877,4.64420452 Z" id="Fill-2"></path>
                                </g>
                            </g>
                        </g>
                    </g>
                </g>
                <ellipse id="椭圆形" fill="#C4DFFF" fill-rule="nonzero" cx="351.303613" cy="370.065291" rx="29.2632043" ry="6.00312539"></ellipse>
                <g id="中间人物" transform="translate(364.375960, 325.012849) rotate(-10.000000) translate(-364.375960, -325.012849) translate(327.169886, 277.699141)">
                    <path d="M29.2349579,47.2701839 L45.0575884,48.9898333 C46.9489199,56.3751354 46.9489199,62.8093583 45.0575884,68.2925021 C43.1662569,73.7756458 38.4810718,80.7818148 31.0020332,89.311009 C29.823983,89.3407222 29.2349579,89.1966959 29.2349579,88.8789301 C29.2349579,88.4022814 34.2255028,79.7513691 34.2255028,74.0219356 C34.2255028,70.2023133 32.5619878,61.2850627 29.2349579,47.2701839 Z" id="Path-69" fill="#0A2048"></path>
                    <path d="M50.5895158,8.68678073 C50.5892589,9.30232466 50.7735719,19.6362168 52.6104176,22.2530523 C53.8349814,23.9976093 55.7133594,25.988037 58.2455516,28.2243353 C58.5149145,33.655806 57.7753376,36.2062309 56.026821,35.8756101 C53.4040461,35.3796788 52.604643,36.0858499 50.1987479,33.2978026 C47.7928527,30.5097554 46.1331134,22.3537311 47.0596833,15.9846936 C47.9862532,9.61565601 47.1993058,10.3434986 47.8723987,8.68791652 C48.5454915,7.03233448 50.5897728,8.07123681 50.5895158,8.68678073 Z" id="Path-44" fill="#000000" transform="translate(52.549233, 21.849547) scale(-1, 1) rotate(-16.000000) translate(-52.549233, -21.849547) "></path>
                    <path d="M60.1655179,11.0026106 C60.3126903,10.7135041 60.6949859,9.96252029 61.3124046,8.74965917 C62.2385327,6.93036749 62.1409442,6.88059815 61.1136972,6.35671034 C60.4288658,6.0074518 59.3954452,7.19023689 58.0134353,9.90506562 L60.1655179,11.0026106 Z" id="Path-20" fill="#F6C5C1" transform="translate(59.981605, 8.649803) rotate(-13.000000) translate(-59.981605, -8.649803) "></path>
                    <path d="M31.5011637,28.8978052 C34.1205692,25.6178708 39.8860735,20.9922863 41.4474198,20.9922863 C43.0087662,20.9922863 45.6429102,22.4065263 46.834144,26.7915229 C48.0253777,31.1765195 50.7145099,40.3168582 48.8153037,50.7073125 C46.9160975,61.0977669 47.4934731,59.6115893 45.5942668,61.2320504 C44.5464996,62.1260376 38.6040232,62.7565686 33.2695182,61.8299318 C28.9345804,61.0769261 22.1339729,57.3558229 20.4364632,55.4955444 C20.4364632,55.4955444 21.175255,47.5489034 24.0137772,40.488492 C26.1033711,35.2909308 28.8817582,32.1777395 31.5011637,28.8978052 Z" id="Path-66" stroke="#004697" stroke-width="1.4"></path>
                    <polygon id="Path-23" fill="#FFDFDD" transform="translate(29.703000, 90.425314) rotate(13.000000) translate(-29.703000, -90.425314) " points="28.8485906 92.1374433 30.5585911 92.1380346 30.5574085 88.7131838 28.8474079 88.7125925"></polygon>
                    <polygon id="Path-24" fill="#0A2048" transform="translate(31.337320, 91.979985) rotate(18.000000) translate(-31.337320, -91.979985) " points="27.9164825 90.6941707 29.6932868 90.6949945 34.7577843 92.4577992 34.7581584 93.2657988 27.9176718 93.2626272"></polygon>
                    <polygon id="Path-23" fill="#F5C27A" transform="translate(4.315547, 81.267020) rotate(60.000000) translate(-4.315547, -81.267020) " points="3.46077168 82.9769746 5.17265913 82.9781428 5.17032269 79.5570658 3.45843524 79.5558975"></polygon>
                    <polygon id="Path-24" fill="#0A2048" transform="translate(2.820453, 84.664507) rotate(60.000000) translate(-2.820453, -84.664507) " points="-0.604197767 83.379267 1.17444121 83.3804808 6.24455312 85.1425814 6.24510438 85.9497477 -0.602445436 85.9450748"></polygon>
                    <path d="M24.541084,51.1287908 C23.8206121,52.8340695 23.333802,54.4044154 23.0806538,55.8398287 C22.7009314,57.9929486 20.8741631,67.9050476 19.7274366,69.7550658 C18.2675017,72.1103841 13.4407896,75.4493784 5.24730014,79.7720486 L5.77633768,81.8068495 C12.827974,81.265369 18.2731327,80.2629423 22.1118137,78.7995692 C27.8698352,76.6045097 32.3257279,74.8175374 35.7055056,67.7961255 C37.9586908,63.1151842 39.6948581,58.7166404 40.9140074,54.6004941 L24.541084,51.1287908 Z" id="Path-70" stroke="#004697" stroke-width="1.4"></path>
                    <path d="M43.6485266,14.2367112 C44.2378026,14.9698387 44.6197708,15.5539747 44.7944314,15.9891192 C45.0564223,16.6418359 45.4309652,16.7811844 45.7837587,16.78134 C46.1365522,16.7814956 46.6681225,17.4957115 46.6683825,18.0859061 C46.6686425,18.6761007 46.6838426,18.9522158 46.0036817,19.4663601 C45.5502411,19.809123 45.1477589,20.0147095 44.7962349,20.0831196 C44.3874491,20.2022783 44.1831676,20.5147689 44.1833904,21.0205914 C44.1836133,21.5264138 44.567793,22.4418124 45.3359296,23.7667872 L41.3458288,23.9947412 C42.0269292,23.1057951 42.3432328,22.483442 42.2947395,22.1276817 C42.2462462,21.7719214 41.7050364,20.7442994 40.67111,19.0448158 C41.1181747,16.1071103 41.3417071,14.6382576 41.3417071,14.6382576 C41.3417071,14.6382576 42.1106469,14.5044088 43.6485266,14.2367112 Z" id="Path-65" fill="#F6C5C1" transform="translate(43.669777, 19.115726) rotate(17.000000) translate(-43.669777, -19.115726) "></path>
                    <path d="M41.1251286,6.90979682 C43.5039104,6.9108461 44.2625828,7.22543379 43.5049302,9.22578912 C42.7472776,11.2261444 41.1268391,10.7927147 41.127794,12.960403 C41.1287489,15.1280913 40.5583626,17.7019177 38.1989269,17.7008769 C35.8394913,17.6998362 30.1371286,19.3969198 27.3247259,17.6960803 C24.5123231,15.9952409 24.1794638,14.2954951 19.3920173,15.9929823 C14.6045707,17.6904695 16.4581865,27.7471616 8.68106985,24.9755493 C0.903953229,22.203937 3.57867075,15.2925115 4.52479595,12.9442575 C5.47092115,10.5960035 6.53345262,9.20948105 9.45151103,9.2107682 C12.3695694,9.21205535 13.5321699,11.5275107 17.2585264,9.21421187 C20.9848829,6.90091299 24.4790844,4.58751171 27.3199716,6.90370739 C30.1608587,9.21990307 33.7105837,10.3460341 34.9240651,9.22200411 C36.1375465,8.09797417 38.7463467,6.90874755 41.1251286,6.90979682 Z" id="Path-64" fill="#000000" transform="translate(23.547181, 15.699708) rotate(17.000000) translate(-23.547181, -15.699708) "></path>
                    <path d="M46.525888,20.4019525 C48.4743236,20.0846146 52.4582317,20.9544679 51.3778856,25.2031905 C50.1014704,30.2230023 49.9509084,34.0415558 50.9261997,36.6588508 L64.1023788,46.2545367 L63.3893431,47.7353758 L55.1729767,45.8847973 C50.8375763,44.4475551 47.7682249,42.866993 45.9649224,41.1431109 C44.16162,39.4192288 42.8481937,36.4615609 42.0246437,32.2701073 C41.787805,24.8853168 43.2882198,20.9292652 46.525888,20.4019525 Z" id="Path-16" fill="#0820BD" transform="translate(53.051403, 34.039080) rotate(-50.000000) translate(-53.051403, -34.039080) "></path>
                    <path d="M69.2647595,32.16605 C69.6040104,32.165845 70.4852494,32.1653126 71.9084765,32.1644527 C74.0433172,32.1631629 74.0432479,32.2779968 74.0425183,33.4867747 C74.0420319,34.2926267 72.4489362,34.696515 69.263231,34.6984397 L69.2647595,32.16605 Z" id="Path-20" fill="#F6C5C1" transform="translate(71.652888, 33.431441) rotate(-25.000000) translate(-71.652888, -33.431441) "></path>
                </g>
            </g>
        </g>
    </g>
</svg>